%FSTAX23Y23*%
%MOIN*%
%SFA1B1*%

%IPPOS*%
%ADD16R,0.027600X0.035400*%
%ADD17R,0.033500X0.029500*%
%ADD21R,0.035400X0.027600*%
%ADD22R,0.029500X0.033500*%
%ADD65R,0.059100X0.059100*%
%ADD66C,0.059100*%
%ADD67O,0.074800X0.047200*%
%ADD68O,0.049200X0.041300*%
%ADD73O,0.011800X0.057100*%
%ADD74O,0.057100X0.011800*%
%ADD75O,0.049200X0.021700*%
%ADD76R,0.027600X0.031500*%
%ADD77R,0.031500X0.027600*%
%ADD78R,0.145700X0.145700*%
%ADD79O,0.009800X0.035400*%
%ADD80O,0.035400X0.009800*%
%ADD81R,0.037400X0.053100*%
%ADD82R,0.129900X0.094500*%
%ADD83R,0.039400X0.094500*%
%ADD84R,0.055100X0.029500*%
%LNpcb1-1*%
%LPD*%
G54D16*
X01447Y00613D03*
X01392D03*
X0222Y00528D03*
X02165D03*
X00921Y00611D03*
X00866D03*
X00445Y00607D03*
X0039D03*
G54D17*
X01864Y00591D03*
X01917D03*
X01864Y00633D03*
X01917D03*
X01403Y00249D03*
Y00198D03*
G54D21*
X01996Y00578D03*
Y00633D03*
X02044Y00578D03*
Y00633D03*
X01789Y00639D03*
Y00583D03*
X00711Y00508D03*
Y00453D03*
X00692Y00314D03*
Y00369D03*
G54D22*
X01995Y00207D03*
X01944D03*
X01769Y00218D03*
X01718D03*
X01597Y00237D03*
X01648D03*
X02157Y00421D03*
X02106D03*
X02151Y00218D03*
X021D03*
G54D65*
X00246Y00116D03*
Y00716D03*
G54D66*
X00346Y00116D03*
X00446D03*
X00546D03*
X00646D03*
X00746D03*
X00846D03*
X00946D03*
X01046D03*
X01146D03*
X01246D03*
X01346D03*
X01446D03*
X01546D03*
X01646D03*
X01746D03*
X01846D03*
X01946D03*
X02046D03*
X02146D03*
X00346Y00716D03*
X00446D03*
X00546D03*
X00646D03*
X00746D03*
X00846D03*
X00946D03*
X01046D03*
X01146D03*
X01246D03*
X01346D03*
X01446D03*
X01546D03*
X01646D03*
X01746D03*
X01846D03*
X01946D03*
X02046D03*
X02146D03*
G54D67*
X00155Y0058D03*
Y00251D03*
G54D68*
X00273Y00328D03*
Y00503D03*
G54D73*
X01002Y00237D03*
X01022D03*
X01041D03*
X01061D03*
X01081D03*
X011D03*
X0112D03*
X0114D03*
X01159D03*
X01179D03*
X01199D03*
X01218D03*
Y00569D03*
X01199D03*
X01179D03*
X01159D03*
X0114D03*
X0112D03*
X011D03*
X01081D03*
X01061D03*
X01041D03*
X01022D03*
X01002D03*
G54D74*
X01277Y00295D03*
Y00315D03*
Y00334D03*
Y00354D03*
Y00374D03*
Y00393D03*
Y00413D03*
Y00433D03*
Y00452D03*
Y00472D03*
Y00492D03*
Y00511D03*
X00944D03*
Y00492D03*
Y00472D03*
Y00452D03*
Y00433D03*
Y00413D03*
Y00393D03*
Y00374D03*
Y00354D03*
Y00334D03*
Y00315D03*
Y00295D03*
G54D75*
X01673Y00506D03*
Y00456D03*
Y00406D03*
Y00356D03*
X0139Y00506D03*
Y00456D03*
Y00406D03*
Y00356D03*
G54D76*
X00756Y00574D03*
X00803D03*
X01303Y00197D03*
X0135D03*
X00755Y00633D03*
X00802D03*
X00784Y0031D03*
X00831D03*
X00781Y00507D03*
X00828D03*
G54D77*
X02153Y00277D03*
Y00324D03*
X02096Y00327D03*
Y00279D03*
G54D78*
X01915Y00399D03*
G54D79*
X01983Y00497D03*
X01964D03*
X01944D03*
X01924D03*
X01905D03*
X01885D03*
X01865D03*
X01846D03*
Y00302D03*
X01865D03*
X01885D03*
X01905D03*
X01924D03*
X01944D03*
X01964D03*
X01983D03*
G54D80*
X01817Y00468D03*
Y00449D03*
Y00429D03*
Y00409D03*
Y0039D03*
Y0037D03*
Y0035D03*
Y0033D03*
X02012D03*
Y0035D03*
Y0037D03*
Y0039D03*
Y00409D03*
Y00429D03*
Y00449D03*
Y00468D03*
G54D81*
X00503Y00609D03*
X00566D03*
X00686D03*
X00623D03*
G54D82*
X00454Y00229D03*
G54D83*
X00545Y00457D03*
X00454D03*
X00364D03*
G54D84*
X0081Y00438D03*
Y00381D03*
M02*