%FSTAX23Y23*%
%MOIN*%
%SFA1B1*%

%IPPOS*%
%ADD12C,0.007900*%
%ADD14O,0.011800X0.082700*%
%ADD15O,0.082700X0.011800*%
%ADD16R,0.027600X0.035400*%
%ADD17R,0.033500X0.029500*%
%ADD18R,0.063000X0.085800*%
%ADD19R,0.063000X0.086600*%
%ADD20R,0.031500X0.023600*%
%ADD21R,0.035400X0.027600*%
%ADD22R,0.029500X0.033500*%
%ADD23R,0.031500X0.031500*%
%ADD24R,0.106300X0.059100*%
%ADD26R,0.047200X0.023600*%
%ADD27R,0.094500X0.039400*%
%ADD28R,0.094500X0.129900*%
%ADD29R,0.074800X0.070900*%
%ADD30R,0.053100X0.015700*%
%ADD31C,0.039400*%
%ADD32R,0.074800X0.062000*%
%ADD33R,0.074800X0.062000*%
%ADD62R,0.023600X0.023600*%
%ADD63C,0.006300*%
%ADD64C,0.010000*%
%ADD65R,0.059100X0.059100*%
%ADD66C,0.059100*%
%ADD67O,0.074800X0.047200*%
%ADD68O,0.049200X0.041300*%
%ADD69C,0.015200*%
%ADD70C,0.015700*%
%ADD71C,0.011800*%
%ADD72C,0.019700*%
%LNpcb1-1*%
%LPD*%
G36*
X02238Y00065D02*
X02237Y00065D01*
X02233Y00069*
X02232Y00067*
X02198*
X02198Y00066*
X02195Y00061*
X01891*
X01889Y00065*
X01909Y00086*
X01911Y00089*
X01912Y00092*
Y00093*
X01917Y00095*
X0192Y0009*
X01928Y00085*
X01936Y00081*
X01946Y0008*
X01955Y00081*
X01964Y00085*
X01971Y0009*
X01977Y00098*
X0198Y00106*
X02011*
X02015Y00098*
X0202Y0009*
X02028Y00085*
X02036Y00081*
X02046Y0008*
X02055Y00081*
X02064Y00085*
X02071Y0009*
X02077Y00098*
X0208Y00106*
X02111*
X02115Y00098*
X0212Y0009*
X02128Y00085*
X02136Y00081*
X02146Y0008*
X02155Y00081*
X02164Y00085*
X02171Y0009*
X02177Y00098*
X0218Y00106*
X02181Y00116*
X0218Y00125*
X02177Y00134*
X02171Y00141*
X02164Y00147*
X02155Y0015*
X02146Y00152*
X02136Y0015*
X02128Y00147*
X02123Y00143*
X02083Y00183*
Y00191*
X02082Y00193*
X02085Y00197*
X02086Y00198*
X02141*
X02163Y00176*
X02164Y00175*
X02167Y0017*
X02171Y00167*
X02176Y00166*
X02182Y00167*
X02186Y0017*
X02189Y00175*
X0219Y0018*
X02189Y00185*
X02186Y0019*
X02182Y00193*
X02176Y00194*
X02173Y00193*
X02142Y00223*
Y00297*
X02073*
Y00365*
X02073Y00369*
X02071Y00372*
X02068Y00375*
X02068Y00375*
X02067Y00379*
X0207Y00384*
X02132*
X02132Y00383*
X02133Y00378*
X02136Y00374*
X0214Y00371*
X02146Y0037*
X02146Y0037*
X02148Y00369*
X0215Y00365*
X02149Y00361*
X0215Y00356*
X02153Y00352*
X02158Y00349*
X02163Y00348*
X02168Y00349*
X02173Y00352*
X02175Y00355*
X02187*
X0219Y00355*
X02193Y00357*
X02195Y0036*
X02196Y00362*
X022Y00364*
X02202Y0036*
X02198Y00354*
X02197Y00352*
X02232*
X02231Y00354*
X02227Y0036*
X02225Y00362*
Y00368*
X02226Y00369*
X0223Y00374*
X0223Y00376*
X02213*
Y00386*
X0223*
X0223Y00388*
X02226Y00394*
Y00397*
X0223Y00403*
X0223Y00405*
X02213*
Y00415*
X0223*
X0223Y00417*
X02226Y00423*
X02224Y00424*
Y0043*
X02226Y00431*
X0223Y00437*
X0223Y00439*
X02213*
Y00449*
X0223*
X0223Y00451*
X02226Y00457*
X02223Y00459*
Y00465*
X02225Y00465*
X02229Y00471*
X02229Y00473*
X02212*
Y00478*
X02207*
Y00496*
X02205Y00495*
X02199Y00491*
X02195Y00485*
X02194Y00478*
X02194Y00477*
X02189Y00475*
X02168Y00496*
Y00585*
X02168Y00585*
X02171Y0059*
X02172Y00595*
X02171Y00601*
X02168Y00605*
X02164Y00608*
X02159Y00609*
X02153Y00608*
X02149Y00605*
X02147Y00602*
X02142Y00604*
Y00657*
X02142Y00657*
X02149Y00664*
X02154Y00662*
X02154Y00662*
X02155Y00659*
X02159Y00653*
X02161Y00652*
Y00646*
X0216Y00646*
X02156Y0064*
X02156Y00638*
X02173*
Y00633*
X02178*
Y00615*
X0218Y00616*
X02185Y00619*
X02188Y00618*
X02224*
X02224Y0062*
X0222Y00625*
X02214Y00629*
X02211Y0063*
Y00635*
X02214Y00636*
X0222Y0064*
X02224Y00646*
X02225Y00648*
X02207*
Y00658*
X02225*
X02224Y0066*
X0222Y00666*
X02218Y00667*
Y00673*
X0222Y00675*
X02224Y00681*
X02225Y00683*
X0219*
X02191Y00681*
X02195Y00675*
X02196Y00674*
X02196Y00669*
X02195Y00668*
X02194Y00667*
X02189Y00669*
X02188Y00673*
X02184Y00679*
X02179Y00683*
X02172Y00684*
X02171Y00684*
X02169Y00689*
X02171Y0069*
X02177Y00698*
X0218Y00706*
X02181Y00716*
X0218Y00725*
X02177Y00734*
X02171Y00741*
X02164Y00747*
X02155Y0075*
X02146Y00752*
X02136Y0075*
X02128Y00747*
X0212Y00741*
X02115Y00734*
X02111Y00725*
X0211Y00716*
X02111Y00706*
X02115Y00698*
X0212Y0069*
X02128Y00685*
X02134Y00682*
Y00675*
X02132Y00673*
X02106*
X02105Y00676*
X02104Y00678*
X02107Y00682*
X02108Y00687*
X02107Y00693*
X02104Y00697*
X02103Y00697*
Y0074*
X02103Y00744*
X02101Y00747*
X02086Y00762*
X02083Y00764*
X02079Y00764*
X01889*
X01886Y00764*
X01883Y00762*
X01866Y00745*
X01864Y00747*
X01855Y0075*
X01846Y00752*
X01836Y0075*
X01828Y00747*
X0182Y00741*
X01815Y00734*
X01811Y00725*
X0181Y00716*
X01811Y00706*
X01815Y00698*
X0182Y0069*
X01828Y00685*
X01836Y00681*
X01846Y0068*
X01855Y00681*
X01864Y00685*
X01871Y0069*
X01877Y00698*
X0188Y00706*
X01881Y00716*
X0188Y00725*
X01878Y0073*
X01893Y00746*
X01919*
X0192Y00743*
X0192Y00741*
X01915Y00734*
X01911Y00725*
X0191Y00716*
X01911Y00706*
X01915Y00698*
X0192Y0069*
X01928Y00685*
X01936Y00681*
X0194Y00681*
X0194Y00676*
X01891*
X01888Y00675*
X01885Y00673*
X01883Y0067*
X01882Y00666*
Y00595*
X01878Y00593*
X01826Y00645*
Y00659*
X01825Y00663*
X01823Y00666*
X01797Y00692*
Y00748*
X01796Y00752*
X01794Y00755*
X01783Y00766*
X01785Y0077*
X02189*
X02192Y00766*
X02191Y00764*
X0219Y00762*
X02225*
X02224Y00764*
X02223Y00766*
X02226Y0077*
X02238*
Y00065*
G37*
G36*
X01282Y00766D02*
X01263Y00747D01*
X01255Y0075*
X01246Y00752*
X01236Y0075*
X01228Y00747*
X0122Y00741*
X01215Y00734*
X01211Y00725*
X0121Y00716*
X01211Y00706*
X01215Y00698*
X0122Y00691*
X01218Y00686*
X01173*
X01172Y00691*
X01177Y00698*
X0118Y00706*
X01181Y00716*
X0118Y00725*
X01177Y00734*
X01171Y00741*
X01164Y00747*
X01155Y0075*
X01146Y00752*
X01136Y0075*
X01128Y00747*
X0112Y00741*
X01115Y00734*
X01111Y00725*
X0111Y00716*
X01111Y00706*
X01115Y00698*
X0112Y00691*
X01119Y00688*
X01118Y00686*
X01117Y00686*
X01114Y00684*
X01091Y0066*
X0109Y0066*
X01087Y00659*
X01082Y00662*
X01081Y00662*
X01081Y00664*
X01096Y0068*
X01098Y00683*
X01099Y00687*
Y0076*
X01098Y00764*
X01097Y00765*
X01099Y0077*
X0128*
X01282Y00766*
G37*
G36*
X01778Y00744D02*
Y00739D01*
X01773Y00738*
X01771Y00741*
X01764Y00747*
X01755Y0075*
X01746Y00752*
X01736Y0075*
X01728Y00747*
X0172Y00741*
X01715Y00734*
X01711Y00725*
X0171Y00716*
X01711Y00706*
X01715Y00698*
X0172Y0069*
X01722Y00689*
X0172Y00684*
X01671*
X01669Y00689*
X01671Y0069*
X01677Y00698*
X0168Y00706*
X01681Y00716*
X0168Y00725*
X01677Y00734*
X01671Y00741*
X01664Y00747*
X01655Y0075*
X01646Y00752*
X01636Y0075*
X01628Y00747*
X0162Y00741*
X01615Y00734*
X01614*
X0161Y00735*
Y00745*
X01623Y00758*
X01765*
X01778Y00744*
G37*
G36*
X01579Y00752D02*
Y00739D01*
X01574Y00737*
X01571Y00741*
X01564Y00747*
X01555Y0075*
X01546Y00752*
X01536Y0075*
X01528Y00747*
X0152Y00741*
X01515Y00734*
X01511Y00725*
X01501*
X01497Y00724*
X01494Y00722*
X01486Y00714*
X01481Y00717*
X0148Y00725*
X01477Y00734*
X01471Y00741*
X01464Y00747*
X01455Y0075*
X01446Y00752*
X01436Y0075*
X01428Y00747*
X0142Y00741*
X01415Y00734*
X01411Y00725*
X014*
X01397Y00724*
X01394Y00722*
X01386Y00714*
X01381Y00717*
X0138Y00725*
X01377Y00734*
X01371Y00741*
X01364Y00747*
X01355Y0075*
X01346Y00752*
X01336Y0075*
X01328Y00747*
X0132Y00741*
X01315Y00734*
X01311Y00725*
X0131Y00716*
X01311Y00708*
X01289Y00686*
X01273*
X01272Y00691*
X01277Y00698*
X0128Y00706*
X01281Y00716*
X0128Y00725*
X01277Y00734*
X013Y00757*
X01574*
X01579Y00752*
G37*
G36*
X00445Y00765D02*
X00439Y00759D01*
X00437Y00756*
X00436Y00753*
Y0075*
X00428Y00747*
X0042Y00741*
X00415Y00734*
X00411Y00725*
X0041Y00716*
X00411Y00706*
X00415Y00698*
X0042Y0069*
X00428Y00685*
X00436Y00681*
X00446Y0068*
X00455Y00681*
X00464Y00685*
X00471Y0069*
X00477Y00698*
X0048Y00706*
X00481Y00716*
X0048Y00725*
X00477Y00734*
X00471Y00741*
X00464Y00747*
X00461Y00748*
X00462Y00753*
X00529*
X0053Y00748*
X00528Y00747*
X0052Y00741*
X00515Y00734*
X00511Y00725*
X0051Y00716*
X00511Y00706*
X00515Y00698*
X0052Y0069*
X00528Y00685*
X00536Y00681*
X00546Y0068*
X00555Y00681*
X00564Y00685*
X00571Y0069*
X00577Y00698*
X0058Y00706*
X00581Y00716*
X0058Y00725*
X00577Y00734*
X00571Y00741*
X00564Y00747*
X00561Y00748*
X00562Y00753*
X00629*
X0063Y00748*
X00628Y00747*
X0062Y00741*
X00615Y00734*
X00611Y00725*
X0061Y00716*
X00611Y00706*
X00615Y00698*
X0062Y0069*
X00628Y00685*
X00636Y00681*
X00646Y0068*
X00655Y00681*
X00664Y00685*
X00671Y0069*
X00677Y00698*
X00678Y00702*
X00684Y00703*
X00732Y00656*
X00732Y00655*
X0073Y0065*
X00692*
Y00603*
X00701*
Y00576*
X00701Y00572*
X00704Y00568*
X00729Y00543*
Y00525*
X00726Y00522*
X00724Y00518*
X00723Y00514*
Y00268*
X00702Y00247*
X0065*
Y00258*
X00544*
Y00206*
X00569*
X00572Y00201*
X00572Y002*
X00568Y00197*
X00564Y00193*
X00563Y00187*
X00564Y00182*
X00568Y00177*
X00572Y00174*
X00578Y00173*
X00583Y00174*
X00587Y00177*
X00591Y00182*
X00591Y00185*
X00609Y00203*
X00611Y00206*
X00626*
X00627Y00201*
X00625Y002*
X00624Y00198*
X00622Y00196*
X0062Y00195*
X00617Y0019*
X00616Y00185*
X00617Y0018*
X0062Y00175*
X00625Y00172*
X0063Y00171*
X00636Y00172*
X0064Y00175*
X00643Y0018*
X00644Y00184*
X00863*
X00866Y0018*
X00865Y00178*
X00865Y00177*
X00881*
Y00167*
X00862*
X0086Y00164*
X00468*
X00459Y00174*
X00461Y00179*
X00504*
Y00206*
X00524Y00226*
X00527Y0023*
X00528Y00234*
Y00302*
X00539Y00314*
X00544Y00312*
Y00297*
X0065*
Y00348*
X00544*
Y00342*
X00501*
Y00354*
X00462*
Y00307*
X00478*
X00479Y00302*
X00479Y00302*
X00476Y00297*
X00475Y00292*
X00476Y00286*
X00478Y00283*
Y00273*
X00458*
X00457*
X00452Y00272*
X00452*
X0043*
X00406Y00296*
X00407Y00302*
X00408Y00303*
X00421*
Y00326*
X00403*
Y00311*
X00398Y00308*
X00395Y0031*
X0039Y00311*
X00384Y0031*
X0038Y00307*
X00377Y00302*
X00376Y00297*
X00377Y00291*
X0038Y00287*
X00384Y00284*
X00388Y00283*
X00406Y00264*
Y00233*
X00452*
X00454*
X00458Y00234*
X00459*
X00494*
X00496Y00229*
X00485Y00218*
X00458*
X00457*
X00452Y00217*
X00452*
X00406*
Y00177*
X00429*
X00446Y0016*
X00444Y00155*
X00435Y00154*
X00426Y0015*
X00417Y00144*
X00411Y00136*
X00407Y00126*
X00406Y00121*
X00485*
X00484Y00126*
X0048Y00136*
X00477Y0014*
X00479Y00145*
X00519*
X0052Y0014*
X00515Y00134*
X00511Y00125*
X0051Y00116*
X00511Y00106*
X00515Y00098*
X0052Y0009*
X00528Y00085*
X00536Y00081*
X00546Y0008*
X00555Y00081*
X00564Y00085*
X00571Y0009*
X00577Y00098*
X0058Y00106*
X00581Y00116*
X0058Y00125*
X00577Y00134*
X00571Y0014*
X00573Y00145*
X00619*
X0062Y0014*
X00615Y00134*
X00611Y00125*
X0061Y00116*
X00611Y00106*
X00615Y00098*
X0062Y0009*
X00628Y00085*
X00636Y00081*
X00646Y0008*
X00655Y00081*
X00664Y00085*
X00671Y0009*
X00677Y00098*
X0068Y00106*
X00681Y00116*
X0068Y00125*
X00677Y00134*
X00671Y0014*
X00673Y00145*
X00719*
X0072Y0014*
X00715Y00134*
X00711Y00125*
X0071Y00116*
X00711Y00106*
X00715Y00098*
X0072Y0009*
X00728Y00085*
X00736Y00081*
X00746Y0008*
X00755Y00081*
X00764Y00085*
X00771Y0009*
X00777Y00098*
X0078Y00106*
X00781Y00116*
X0078Y00125*
X00777Y00134*
X00771Y0014*
X00773Y00145*
X00819*
X0082Y0014*
X00815Y00134*
X00811Y00125*
X0081Y00116*
X00811Y00106*
X00815Y00098*
X0082Y0009*
X00828Y00085*
X00836Y00081*
X00846Y0008*
X00855Y00081*
X00864Y00085*
X00871Y0009*
X00877Y00098*
X0088Y00106*
X00881Y00116*
X0088Y00125*
X00877Y00134*
X00871Y0014*
X00873Y00145*
X00888*
X00892Y00146*
X00895Y00148*
X00903Y00156*
X00912*
X00913Y00155*
X00917Y00152*
X00922Y00151*
X00928Y00152*
X00932Y00155*
X00935Y0016*
X00941Y00162*
X00943Y0016*
X00948Y00159*
X00953Y0016*
X00957Y00163*
X00984Y00136*
Y00128*
X00979Y00127*
X00977Y00134*
X00971Y00141*
X00964Y00147*
X00955Y0015*
X00946Y00152*
X00936Y0015*
X00928Y00147*
X0092Y00141*
X00915Y00134*
X00911Y00125*
X0091Y00116*
X00911Y00106*
X00915Y00098*
X0092Y0009*
X00928Y00085*
X00936Y00081*
X00946Y0008*
X00955Y00081*
X00964Y00085*
X00971Y0009*
X00977Y00098*
X00979Y00104*
X00984Y00103*
Y00083*
X00985Y00079*
X00986Y00078*
X00984Y00073*
X00917*
X00913Y00077*
X00913Y00077*
X00914Y00083*
X00913Y00088*
X0091Y00093*
X00906Y00096*
X009Y00097*
X00895Y00096*
X0089Y00093*
X00887Y00088*
X00886Y00083*
X00887Y00077*
X0089Y00073*
X00892Y00072*
X00892Y00071*
X00894Y00068*
X00897Y00065*
X00895Y00061*
X00106*
Y00079*
X00126*
Y00101*
Y00123*
X00106*
Y00137*
X00109Y0014*
X00111*
X00148*
X00152*
X00154Y00136*
X00154Y00134*
X00158Y00128*
X00164Y00124*
X00166Y00124*
Y00141*
Y00158*
X00164Y00158*
X00158Y00154*
X00157Y00153*
X00152Y00155*
Y00169*
X00173Y00189*
X00305*
Y00177*
X00344*
Y00224*
X00305*
Y00212*
X00168*
X00164Y00211*
X0016Y00208*
X00128Y00176*
X00111*
X00109*
X00106Y00179*
Y00645*
X00111Y00646*
X00113Y00641*
X00117Y00636*
X00122Y00631*
X00128Y00629*
X00135Y00628*
X00142Y00629*
X00148Y00631*
X00153Y00636*
X00157Y00641*
X00159Y00645*
X00167*
Y00637*
X00168Y00633*
X0017Y0063*
X00188Y00612*
X00191Y0061*
X00195Y00609*
X00227*
X00273Y00564*
X00276Y00561*
X00281Y0056*
X00308*
Y00546*
X00337*
X00339Y00541*
X00328Y0053*
X00325Y00531*
X00319Y0053*
X00315Y00527*
X00312Y00522*
X00311Y00517*
X00312Y00511*
X00314Y00509*
Y00495*
X00304Y00485*
X00301Y00482*
X00301Y00479*
X00299Y00479*
X00296Y00482*
X00296Y00484*
X003Y00489*
X00303Y00496*
X00304Y00503*
X00303Y0051*
X003Y00516*
X00296Y00522*
X00291Y00526*
X00284Y00529*
X00277Y0053*
X00269*
X00262Y00529*
X00256Y00526*
X0025Y00522*
X00246Y00516*
X00243Y0051*
X00242Y00503*
X00243Y00496*
X00246Y00489*
X00249Y00485*
X00247Y0048*
X00228*
Y00453*
Y00427*
Y00382*
X00224*
Y00369*
X0026*
X00297*
Y00382*
X00293*
Y00405*
X00315*
X00318Y00406*
X00322Y00408*
X00336Y00422*
X00341Y00421*
X00343Y00419*
X00342Y00414*
X00341Y00414*
X00337Y00411*
X0033Y00405*
X00327Y00404*
X00322Y00401*
X00319Y00396*
X00318Y00391*
X00319Y00385*
X00322Y00381*
X00327Y00378*
X00332Y00377*
X00338Y00378*
X00342Y00381*
X00343Y00382*
X00347Y00386*
X00406*
Y00419*
X0041*
Y00436*
X00376*
Y00446*
X0041*
Y00463*
X00406*
Y00496*
X00347*
Y00488*
X00338*
X00336Y0049*
Y00509*
X00338Y00511*
X00338Y00514*
X00342Y00518*
X00348Y00517*
X0035Y00513*
X00356Y00509*
X00358Y00509*
Y00526*
X00368*
Y00509*
X0037Y00509*
X00376Y00513*
X00379Y00519*
X00381Y00524*
X00385Y00526*
X00418Y00494*
Y00451*
X00419Y00447*
X00421Y00444*
X0043Y00434*
X00433Y00432*
X00437Y00432*
X00437Y00431*
Y00423*
Y00418*
Y00386*
X00496*
X00501Y00388*
X00502Y00388*
X00506*
X00508Y00386*
X00514Y00385*
X00519Y00386*
X00524Y00389*
X00527Y00393*
X00528Y00399*
X00527Y00404*
X00524Y00409*
X00519Y00412*
X00514Y00413*
X00508Y00412*
X00506Y00411*
X00505Y00411*
X00502Y00414*
X00498Y00415*
X00496Y00416*
Y00421*
Y00427*
X005Y00431*
X00505*
X00509Y00432*
X00512Y00434*
X00535Y00457*
X00601*
X00605Y00458*
X00608Y0046*
X00618Y0047*
X00619Y0047*
X00635*
Y00486*
X00635Y00487*
X00657Y00509*
X00678*
Y00545*
X00656*
X00635Y00565*
X00632Y00567*
X00629Y00567*
X00629Y00568*
X00624Y00571*
X00619Y00572*
X00613Y00571*
X00609Y00568*
X00606Y00564*
X00605Y00558*
X00606Y00553*
X00609Y00548*
X00612Y00546*
X00613Y00545*
X00612Y00541*
X00609Y00541*
X00604Y0054*
X00601Y00538*
X006*
X00589Y00549*
Y00577*
X0055*
Y00529*
X00577*
X00588Y00519*
X00591Y00517*
X00596Y00516*
X00601*
X00604Y00514*
X00609Y00513*
X00615Y00514*
X00619Y00517*
X00622Y00522*
X00624Y00527*
X00622Y00533*
X00619Y00537*
X00616Y00539*
X00615Y0054*
X00617Y00545*
X00619Y00544*
X00624Y00545*
X00627Y00547*
X00642Y00531*
Y00523*
X00597Y00477*
X00591*
X00591Y00482*
X00594Y00483*
X00598Y00486*
X00601Y00491*
X00602Y00496*
X00601Y00501*
X00598Y00506*
X00594Y00509*
X00588Y0051*
X00583Y00509*
X0058Y00507*
X00564*
X00548Y00523*
X00534Y00537*
Y00577*
X00495*
Y00572*
X00492Y00571*
X0049Y00571*
X00486Y00573*
X0048Y00574*
X00475Y00573*
X0047Y0057*
X00468Y00567*
X00463Y00569*
Y00587*
X00416*
Y00575*
X00411*
Y00586*
X00363*
Y00582*
X00356*
Y00585*
X00308*
Y00583*
X00285*
X0025Y00618*
X00279Y00647*
X003*
X00304Y00645*
Y00642*
Y00632*
X003Y0063*
X00299Y00631*
X00297Y00631*
Y00614*
Y00596*
X00299Y00597*
X00301Y00598*
X00304Y00597*
X00327*
Y00621*
X00337*
Y00597*
X0036*
Y00598*
X00382*
Y00622*
X00392*
Y00598*
X00415*
Y00599*
X00435*
Y00622*
X0044*
Y00627*
X00467*
Y00646*
X00472Y00647*
X00488*
Y00635*
X00511*
X00535*
Y00647*
X00547*
Y00606*
X00586*
Y00654*
X00574*
X00561Y00666*
X00557Y00669*
X00553Y0067*
X00274*
X0027Y00669*
X00266Y00666*
X00236Y00636*
X00232Y00639*
X00234Y00643*
X00235Y00645*
X002*
X00201Y00643*
X00205Y00637*
X00211Y00633*
X00213Y00633*
X00213Y00628*
X00199*
X00186Y00641*
Y0065*
X00185Y00654*
X00183Y00657*
X00179Y0066*
X00176Y00662*
X00173Y00663*
X00159*
X00157Y00667*
X00153Y00672*
X00148Y00676*
X00142Y00679*
X00135Y0068*
X00128Y00679*
X00122Y00676*
X00117Y00672*
X00113Y00667*
X00111Y00662*
X00106Y00663*
Y00722*
X0011Y00723*
X00113Y00715*
X00118Y00709*
X00124Y00704*
X00132Y00701*
X00134Y00701*
Y0073*
Y0076*
X00132Y00759*
X00124Y00756*
X00118Y00751*
X00113Y00745*
X0011Y00738*
X00106Y00739*
Y0077*
X00443*
X00445Y00765*
G37*
G36*
X01079Y00693D02*
X0108Y0069D01*
X01062Y00672*
X0106Y00669*
X01059Y00665*
Y00638*
X01058Y00638*
X01056Y00634*
X01052Y00635*
X01051Y00635*
Y00654*
X01052Y00656*
X01053Y00661*
X01052Y00666*
X01049Y00671*
X01044Y00674*
X01039Y00675*
X01034Y00674*
X01029Y00671*
X01026Y00666*
X01025Y00661*
X01026Y00656*
X01029Y00651*
X01032Y00649*
Y00631*
X01032Y00631*
X01029Y00626*
X01028Y00621*
X01029Y00615*
X01032Y00611*
X01036Y00608*
X01042Y00607*
X01047Y00608*
X01052Y00611*
X01054Y00615*
X01055Y00616*
X0106Y00617*
X01063Y00615*
X01068Y00614*
X01074Y00615*
X01078Y00618*
X01082Y00622*
X01083Y00628*
Y00628*
X01087Y00632*
X0109Y00631*
X01095Y00633*
X01099Y00635*
X01102Y00635*
X01104Y00634*
X01105Y00633*
X01108Y00628*
X01112Y00625*
X01118Y00624*
X01123Y00625*
X01128Y00628*
X01131Y00633*
X01132Y00638*
X01131Y00644*
X01128Y00648*
X01128Y00653*
X0113Y00655*
X01146*
X01147Y00654*
X01149Y0065*
X01149Y00648*
Y00638*
X01148Y00638*
X01145Y00633*
X01144Y00628*
X01145Y00623*
X01146Y00621*
X01143Y00616*
X01102*
X01098Y00615*
X01095Y00613*
X01086Y00604*
X01084Y00601*
X01083Y00597*
Y0057*
X01078Y00568*
X01076Y00569*
Y00591*
X01035*
Y00546*
X01072*
X01082Y00536*
Y00466*
X01077Y00465*
X01072Y00461*
X01068Y00455*
X01067Y00453*
X01084*
Y00443*
X01065*
X01064Y00442*
X01059Y00444*
Y00452*
X01058Y00456*
Y00456*
X0106Y0046*
X01061Y00461*
X01063Y00462*
X01067Y00465*
X0107Y00469*
X01071Y00474*
X0107Y0048*
X01067Y00484*
X01067Y00484*
Y00508*
X01069Y00509*
X01072Y00514*
X01073Y00519*
X01072Y00524*
X01069Y00529*
X01064Y00532*
X01059Y00533*
X01054Y00532*
X01049Y00529*
X01048Y00527*
X01043Y00529*
X00974*
X00964Y00539*
X00964Y0054*
X00966Y00544*
X0097Y00545*
X00975Y00548*
X0098Y00546*
Y00542*
X00999*
Y00568*
Y00595*
X00989*
X00987Y00599*
X00987Y006*
X00988Y00603*
X00989Y00607*
Y00618*
X00994Y0062*
X00997Y00618*
X01002Y00617*
X01008Y00618*
X01012Y00621*
X01013Y00623*
X01013Y00623*
X01015Y00626*
X01016Y0063*
Y0063*
X01016Y00631*
X01016Y00633*
Y00658*
X01017Y00658*
X0102Y00663*
X01021Y00668*
X0102Y00673*
X01017Y00678*
X01016Y00679*
X01015Y00679*
X01015Y00681*
X01015Y00685*
X01015Y00686*
X01015Y00689*
X01018Y0069*
X01021Y0069*
X01028Y00685*
X01036Y00681*
X01046Y0068*
X01055Y00681*
X01064Y00685*
X01071Y0069*
X01074Y00695*
X01079Y00693*
G37*
G36*
X00993Y00753D02*
X00992Y00748D01*
X00993Y00743*
X00996Y00738*
X00997Y00738*
Y00696*
X00995Y00696*
X00992Y00694*
X00973Y00674*
X00971Y00671*
X00971Y00668*
Y00645*
X00966Y00643*
X00963Y00644*
X0096Y00645*
X00924Y00681*
X00927Y00685*
X00928Y00685*
X00936Y00681*
X00946Y0068*
X00955Y00681*
X00964Y00685*
X00971Y0069*
X00977Y00698*
X0098Y00706*
X00981Y00716*
X0098Y00725*
X00977Y00734*
X00971Y00741*
X00964Y00747*
X00958Y00749*
X00957Y00754*
X00961Y00758*
X00991*
X00993Y00753*
G37*
G36*
X00888Y00748D02*
Y00695D01*
X00889Y00691*
X00891Y00688*
X00925Y00654*
X00923Y0065*
X00901*
X00898Y00653*
X00897Y00659*
X00894Y00663*
X0089Y00666*
X00884Y00667*
X00879Y00666*
X00874Y00663*
X00872Y0066*
X00867Y0066*
X00858Y00669*
X00855Y00671*
X00852Y00671*
X00814*
X00811Y00676*
X00812Y0068*
X00811Y00685*
X00808Y0069*
X00803Y00693*
X00798Y00694*
X00792Y00693*
X00788Y0069*
X00783Y00692*
X00777Y00698*
X0078Y00706*
X00781Y00716*
X0078Y00725*
X00777Y00734*
X00771Y00741*
X00764Y00747*
X00761Y00748*
X00762Y00753*
X00829*
X0083Y00748*
X00828Y00747*
X0082Y00741*
X00815Y00734*
X00811Y00725*
X0081Y00716*
X00811Y00706*
X00815Y00698*
X0082Y0069*
X00828Y00685*
X00836Y00681*
X00846Y0068*
X00855Y00681*
X00864Y00685*
X00871Y0069*
X00877Y00698*
X0088Y00706*
X00881Y00716*
X0088Y00725*
X00877Y00734*
X00871Y00741*
X00864Y00747*
X00861Y00748*
X00862Y00753*
X00883*
X00888Y00748*
G37*
G36*
X0202Y00743D02*
X0202Y00741D01*
X02015Y00734*
X02011Y00725*
X0201Y00716*
X02011Y00706*
X02015Y00698*
X0202Y0069*
X02028Y00685*
X02036Y00681*
X0204Y00681*
X0204Y00676*
X01952*
X01951Y00681*
X01955Y00681*
X01964Y00685*
X01971Y0069*
X01977Y00698*
X0198Y00706*
X01981Y00716*
X0198Y00725*
X01977Y00734*
X01971Y00741*
X01972Y00743*
X01973Y00746*
X02019*
X0202Y00743*
G37*
G36*
X01636Y00681D02*
X01639Y00681D01*
X01652Y00668*
X01655Y00666*
X01659Y00665*
X01732*
Y00665*
X01729Y0066*
X01729*
Y00633*
X01724*
Y00628*
X017*
Y00615*
X01688*
Y00656*
X01649*
Y00637*
X01637*
X01634Y00636*
X01631Y00634*
X01623Y00626*
X01621Y00623*
X0162Y00619*
Y00593*
X01616Y00589*
X01615Y00588*
X01582Y00555*
X0158Y00552*
X01579Y00548*
Y00518*
X0156Y00499*
X01557Y00499*
X01552Y00498*
X01551Y00498*
X01547Y00499*
X01546Y005*
X01543Y00504*
X01542Y00507*
X01542Y00508*
X01543Y00513*
X01542Y00516*
X01547Y00518*
X01548Y00516*
X01553Y00513*
X01558Y00512*
X01563Y00513*
X01568Y00516*
X01571Y00521*
X01572Y00526*
X01571Y00531*
X01568Y00536*
X01567Y00536*
Y00549*
X01579Y00561*
X0158Y00562*
X01605Y00586*
X01605Y00587*
X0161Y00592*
X01612Y00595*
X01613Y00599*
Y00642*
X01618Y00645*
X01621Y00644*
X01626Y00645*
X01631Y00648*
X01634Y00653*
X01635Y00658*
X01634Y00664*
X01631Y00668*
X01628Y0067*
Y0068*
X01632Y00683*
X01636Y00681*
G37*
G36*
X00738Y00653D02*
X00816D01*
X00819Y00648*
X00818Y00647*
X00818Y00645*
X00835*
Y0064*
X0084*
Y00623*
X00842Y00623*
X00848Y00627*
X00852Y00633*
X00853Y0064*
X00853Y0064*
X00855Y00642*
X00858Y00643*
X0086Y00642*
X00864Y00641*
X00878*
X00879Y0064*
X00884Y00639*
X00887Y0064*
X00892Y00636*
Y00631*
X0092*
Y00621*
X00892*
Y00608*
X00891Y00608*
X00877Y00593*
X00875Y0059*
X00874Y00587*
Y00585*
X00874Y00585*
X00869Y00583*
X00866Y00585*
X00861Y00586*
X00855Y00585*
X00854Y00584*
X00849Y00587*
Y00613*
X00827*
Y00589*
Y00566*
X00848*
X00851Y00562*
X00855Y00559*
X00857Y00559*
Y00538*
X00857Y00537*
Y00518*
X00857Y00516*
X00857Y00516*
Y00487*
Y00464*
X00877*
X00878Y0046*
X0088Y00458*
X00879Y00455*
X00876Y00452*
X00829*
Y00431*
X00824Y00429*
X00815Y00438*
Y00464*
X00817Y00467*
X00818Y00472*
X00817Y00477*
X00814Y00482*
X0081Y00485*
X00804Y00486*
X00799Y00485*
X00794Y00482*
X00791Y00477*
X0079Y00472*
X00791Y00467*
X00793Y00464*
Y00433*
X00794Y00429*
X00796Y00425*
X00823Y00398*
X00821Y00393*
X00773*
X0077Y00398*
X00773Y00401*
X00774Y00407*
X00773Y00412*
X00771Y00415*
Y00465*
X00772Y00466*
X00773Y00472*
X00772Y00477*
X00769Y00482*
X00764Y00485*
X00759Y00486*
X00754Y00485*
X0075Y00483*
X00746Y00484*
X00745Y00485*
Y00509*
X00765*
Y00523*
X00798*
Y00514*
X00821*
X00825Y00511*
Y00492*
X00847*
Y00513*
X00845Y00514*
Y00554*
X00798*
Y00545*
X00757*
Y00546*
X00755Y00549*
X00723Y00581*
Y00603*
X00732*
Y0065*
X00733Y00651*
X00735Y00653*
X00738Y00653*
G37*
G36*
X02067Y00585D02*
X0204Y00558D01*
X02038Y00555*
Y00555*
X02033Y00553*
X02032Y00554*
X0203Y00554*
Y00537*
X02025*
Y00532*
X02008*
X02008Y0053*
X02009Y00528*
X02007Y00523*
X02001*
X01995Y00529*
X01996Y00534*
X01995Y00539*
X01992Y00544*
X01988Y00547*
X01982Y00548*
X01977Y00547*
X01972Y00544*
X01969Y00539*
X01968Y00534*
X01969Y00529*
X01972Y00524*
X01977Y00521*
X01987Y00511*
X01985Y00506*
X01983*
X0198Y00505*
X01977Y00503*
X01976Y00503*
X01974Y005*
X01974Y00496*
Y00462*
X01969Y00459*
X01966Y00461*
X01963Y00462*
Y00443*
X01953*
Y00462*
X0195Y00461*
X01944Y00457*
X01939Y0045*
X01939Y00448*
X01934*
X01933Y0045*
X01929Y00457*
X01922Y00461*
X0192Y00462*
Y00443*
X0191*
Y00462*
X01907Y00461*
X019Y00457*
X01896Y0045*
X01895Y00448*
X0189*
X0189Y0045*
X01886Y00457*
X01885Y00458*
X01904Y00477*
X01906Y0048*
X01907Y00483*
Y00533*
X01908Y00535*
Y00554*
X01918*
Y00537*
X0192Y00537*
X01926Y00541*
X0193Y00547*
X01931Y00554*
X01932Y00555*
X01952*
Y00608*
X01957*
Y00613*
X01998*
Y00657*
X02067*
Y00585*
G37*
G36*
X02149Y00584D02*
Y00509D01*
X02144Y00507*
X02143Y0051*
X02138Y00513*
X02133Y00514*
X02127Y00513*
X02123Y0051*
X0212Y00505*
X02118Y005*
X0212Y00494*
X02123Y0049*
X02124Y00489*
Y00483*
X02123Y00482*
X02119Y00476*
X02118Y00475*
X02152*
X02152Y00476*
X02148Y00482*
X02144Y00485*
X02143Y00487*
X02145Y0049*
X02145Y0049*
X0215Y00489*
X02152Y00485*
X02178Y0046*
Y00373*
X02169*
X02168Y00374*
X02163Y00375*
X02162Y00375*
X02161Y00376*
X02159Y00379*
X02159Y00383*
X02158Y00389*
X02155Y00393*
X02151Y00396*
X02146Y00397*
X02145Y00397*
X02143Y004*
X0214Y00402*
X02136Y00402*
X02062*
X0206Y00407*
X0206Y00408*
Y00409*
X02061Y00409*
X02064Y00414*
X02066Y00419*
X02065Y00421*
X0207Y00425*
X02071Y00425*
X02076Y00426*
X02081Y00429*
X02084Y00433*
X02085Y00439*
X02085Y00439*
X02092Y00447*
X02094Y0045*
X02095Y00453*
Y0052*
X02099Y00523*
X02099Y00523*
X02106Y00525*
X02112Y00529*
X02116Y00534*
X02121Y00533*
X02121Y00533*
X02127Y00532*
X02132Y00533*
X02137Y00536*
X0214Y00541*
X02141Y00546*
X0214Y00551*
X02137Y00556*
X02137Y00557*
X02139Y00561*
X02142*
Y00583*
X02147Y00586*
X02149Y00584*
G37*
G36*
X01251Y00515D02*
X01252Y00515D01*
X01257Y00519*
X0126Y00519*
X01261Y00519*
X01265Y00518*
X0127Y00519*
X01274Y00522*
X01276*
X0128Y00519*
X01285Y00518*
X0129Y00519*
X01291Y0052*
X01292Y0052*
X01295Y00521*
X01298Y00519*
X01298Y00518*
X01308Y00509*
X01311Y00507*
X01315Y00506*
X01385*
X0141Y00481*
X0141Y0048*
X01411Y00475*
X01414Y0047*
X01418Y00467*
X01424Y00466*
X01429Y00467*
X01433Y0047*
X01436Y00475*
X01437Y0048*
X01436Y00486*
X01433Y0049*
X01429Y00493*
X01424Y00494*
X01423Y00494*
X01404Y00513*
X01405Y00519*
X01408Y00519*
X01412Y00522*
X01414*
X01418Y00519*
X01423Y00518*
X01427Y00519*
X01431Y00522*
X01434*
X01438Y00519*
X01442Y00518*
X01444Y00519*
X01448Y00514*
X01448Y00513*
X01449Y00508*
X01449Y00507*
X01449Y00504*
X01445Y00499*
X01445Y00498*
X01496*
Y00488*
X01445*
X01445Y00487*
X01449Y00481*
X01449Y00478*
X01449Y00478*
X01448Y00473*
X01449Y00469*
X01452Y00465*
Y00462*
X01449Y00458*
X01448Y00453*
X01449Y00449*
X0145Y00447*
X01451Y00445*
X0145Y00442*
X01449Y00442*
X01444Y00442*
X01442Y00444*
X01438Y00447*
X01433Y00448*
X01427Y00447*
X01423Y00444*
X0142Y00439*
X01419Y00434*
X0142Y00429*
X01423Y00424*
X01421Y0042*
X0142Y00419*
X01419Y00415*
Y00391*
X01418Y0039*
X01414Y00391*
X01412Y00392*
X0141Y00394*
X01346Y00458*
X01343Y00461*
X0134Y00461*
X01325*
X01324Y00462*
X0132Y00465*
X01315Y00466*
X01309Y00465*
X01305Y00462*
X01302Y00457*
X01301Y00452*
X01302Y00447*
X01305Y00442*
X01309Y00439*
X01315Y00438*
X0132Y00439*
X01324Y00442*
X01325Y00443*
X01336*
X01394Y00384*
Y00371*
X01395Y00367*
X01397Y00364*
X01411Y0035*
Y00316*
X01411Y00316*
X01408Y00311*
X01407Y00306*
X01408Y003*
X0141Y00297*
X01409Y00292*
X01409Y00291*
X01406Y0029*
X01403Y0029*
X01398Y00289*
X01397Y00288*
X01393Y00287*
X0139Y00288*
X01388Y00289*
X01383Y0029*
X01379Y00289*
X01377Y00288*
X01374Y00287*
X0137Y00288*
X01368Y00289*
X01365Y0029*
X01365Y00291*
X01365Y00293*
X01348*
Y00303*
X01365*
X01365Y00305*
X01361Y0031*
X0136Y00311*
X01359Y00317*
X01362Y0032*
X01371*
X01375Y0032*
X01378Y00322*
X01386Y0033*
X01388Y00333*
X01388Y00337*
Y00378*
X01388Y00381*
X01386Y00384*
X01352Y00418*
X01349Y0042*
X01346Y0042*
X01282*
X01281Y00422*
Y00473*
X01285Y00477*
X01353*
X01354Y00476*
X01358Y00473*
X01363Y00472*
X01369Y00473*
X01373Y00476*
X01376Y00481*
X01377Y00486*
X01376Y00491*
X01373Y00496*
X01369Y00499*
X01363Y005*
X01358Y00499*
X01354Y00496*
X01353Y00495*
X01281*
X01277Y00495*
X01274Y00493*
X01265Y00483*
X01263Y0048*
X01262Y00477*
Y00418*
X01263Y00414*
X01264Y00413*
X01261Y00408*
X01241*
X0124Y00409*
X01236Y00412*
X01231Y00413*
X01225Y00412*
X01225Y00411*
X0122Y00414*
X01219Y00419*
X01217Y00423*
Y00425*
X01219Y00429*
X0122Y00434*
X01219Y00438*
X01218Y0044*
X01217Y00444*
X01218Y00447*
X01219Y00449*
X0122Y00453*
X01219Y00458*
X01217Y00462*
Y00465*
X01219Y00469*
X0122Y00473*
X01219Y00478*
X01218Y00479*
X01217Y00483*
X01218Y00487*
X01219Y00488*
X0122Y00493*
X01219Y00497*
X01218Y00499*
X01217Y00503*
X01218Y00506*
X01219Y00508*
X0122Y00513*
X0122Y00514*
X01224Y00519*
X01226Y00518*
X01231Y00519*
X01231Y00519*
X01234Y00519*
X01239Y00515*
X01241Y00515*
Y00566*
X01251*
Y00515*
G37*
G36*
X00416Y00548D02*
X00443D01*
X00446Y00547*
X00449Y00548*
X00463*
Y0055*
X00468Y00551*
X00471Y00549*
Y00526*
X00472Y00522*
X00474Y00519*
X00484Y00509*
X00487Y00507*
X0049Y00506*
X00491*
X00491Y00506*
X00496Y00503*
X00501Y00502*
X00505Y00502*
X00507Y00498*
X00501Y00492*
X00496Y00494*
Y00496*
X00441*
X00437Y00498*
X00436Y00501*
X00436Y00502*
X00434Y00505*
X00396Y00542*
X00398Y00547*
X00411*
Y00554*
X00416*
Y00548*
G37*
G36*
X0137Y00374D02*
Y00341D01*
X01367Y00338*
X01355*
X01351Y00338*
X01348Y00336*
X01343Y00337*
X01343Y00337*
X0134Y00342*
X01335Y00345*
X0133Y00346*
X01325Y00345*
X0132Y00342*
X0132Y00341*
X01265*
X01262Y0034*
X01259Y00338*
X01257Y00335*
X01256Y00332*
Y00292*
X01251Y00289*
X0125Y00289*
X01246Y0029*
X01243Y00295*
X01242Y00299*
X01239Y00303*
X01235Y00306*
X01229Y00307*
X01224Y00306*
X01223Y00306*
X0122Y00307*
X01219Y0031*
X01219Y00311*
X0122Y00316*
X01219Y0032*
X01218Y00322*
X01217Y00326*
X01218Y00329*
X01219Y00331*
X0122Y00335*
X01219Y0034*
X01218Y00342*
X01217Y00345*
X01218Y00349*
X01219Y0035*
X0122Y00351*
X01221Y00355*
X01223*
Y00372*
X01228*
Y00377*
X01245*
X01245Y00379*
X01242Y00384*
X01241Y00385*
X01242Y00387*
X01243Y00389*
X01316*
X0133Y00375*
X0133Y00375*
X01329Y00369*
X0133Y00364*
X01333Y00359*
X01337Y00356*
X01342Y00355*
X01348Y00356*
X01352Y00359*
X01355Y00364*
X01356Y00369*
X01355Y00375*
X01352Y00379*
X0135Y0038*
X01349Y00382*
X01334Y00397*
X01336Y00402*
X01342*
X0137Y00374*
G37*
G36*
X01049Y00368D02*
Y00334D01*
X01062*
Y00326*
X01051*
Y00278*
X01053Y00278*
Y00231*
Y00231*
X01054Y00227*
Y00184*
X0105Y00181*
X01047Y00177*
X01046Y00172*
X01047Y00166*
X0105Y00162*
X01055Y00159*
X0106Y00158*
X01061Y00158*
X01064Y00155*
X01067Y00153*
X01071Y00152*
X01081*
X01084Y00147*
X01084Y00144*
X01085Y00139*
X01088Y00134*
X01093Y00131*
X01098Y0013*
X01103Y00131*
X01108Y00134*
X01112Y00131*
X01113Y0013*
X01111Y00125*
X0111Y00116*
X01111Y00106*
X01115Y00098*
X0112Y0009*
X01121Y0009*
X01119Y00085*
X01072*
X0107Y0009*
X01071Y0009*
X01077Y00098*
X0108Y00106*
X01081Y00116*
X0108Y00125*
X01077Y00134*
X01071Y00141*
X01064Y00147*
X01055Y0015*
X01046Y00152*
X01036Y0015*
X01028Y00147*
X01022Y00143*
X00987Y00178*
X00988Y00184*
X00991Y00186*
X00994Y0019*
X00999Y00189*
Y00179*
X01038*
Y00227*
X01041*
Y00249*
X01017*
X00993*
Y00231*
X00977*
X00973Y0023*
X00973Y00229*
X00969Y00232*
X00969Y00233*
X0097Y00238*
X00969Y00241*
X00972Y00245*
X00973Y00246*
X00975Y00245*
X0098Y00246*
X00985Y00249*
X00988Y00254*
X00989Y00259*
X00988Y00264*
X00985Y00269*
X0098Y00272*
X00975Y00273*
X00969Y00272*
X00965Y00269*
X00965Y00268*
X00901*
X00898Y00268*
X00895Y00266*
X00884Y00255*
X00879Y00257*
Y0035*
X00994*
Y00334*
X00992Y0033*
Y00307*
X01016*
X0104*
Y0033*
X01036*
X01033Y00334*
Y00359*
X01044Y0037*
X01049Y00368*
G37*
G36*
X01998Y00487D02*
X02003Y00484D01*
X02008Y00483*
X02011Y00481*
Y00393*
X02011Y00389*
X02013Y00386*
X02016Y00384*
X0202Y00384*
X02038*
X02041Y00379*
X0204Y00375*
X02041Y0037*
X02044Y00365*
X02049Y00362*
X02054Y00361*
X02055Y00356*
Y00259*
X0205Y00255*
X02044*
X02041Y0026*
X02041Y0026*
X02007*
X02007Y0026*
X02004Y00255*
X01994*
Y00295*
X01919*
Y0027*
X01914Y00268*
X01914Y00268*
X0191Y00271*
X01904Y00272*
X01899Y00271*
X01894Y00268*
X01894Y00268*
X01889Y00269*
X01887Y00272*
X01882Y00275*
X01877Y00276*
X01872Y00275*
X01867Y00272*
X01864Y00267*
X01863Y00262*
X01864Y00256*
X01867Y00252*
X01872Y00249*
X01873Y00249*
X01891Y00231*
Y00212*
X01886Y00208*
X01883Y00209*
X01878Y00208*
X01874Y00205*
X01871Y002*
X0187Y00195*
X01871Y0019*
X01872Y00188*
X01871Y00187*
X0187Y00183*
Y00163*
X0187Y00162*
X01867Y00158*
X01866Y00153*
X01866Y00151*
X01866Y00151*
X01862Y00148*
X01855Y0015*
X01846Y00152*
X01836Y0015*
X01829Y00147*
X01826Y00148*
X01824Y0015*
Y00165*
X01823Y00168*
X01821Y00171*
X01817Y00175*
X01819Y0018*
X0182*
Y00205*
X01825*
Y0021*
X01852*
Y00215*
X01852Y00216*
X01857Y00218*
X0186Y00216*
X01865Y00214*
X01871Y00216*
X01875Y00219*
X01878Y00223*
X01879Y00228*
X01878Y00234*
X01875Y00238*
X01871Y00241*
X01865Y00242*
X0186Y00241*
X0186Y00241*
X01848Y00253*
Y00277*
X01839*
X01838Y00279*
X01836Y00283*
X01831Y00288*
X01833Y00293*
X01833*
X01837Y00296*
X01838Y00297*
X01842*
X01845Y00297*
X01848Y00299*
X01857Y00308*
X01859Y00311*
X0186Y00315*
Y00316*
X0186Y00316*
Y00335*
X01865Y00337*
X01867Y00337*
Y00356*
X01877*
Y00337*
X01879Y00338*
X01886Y00342*
X0189Y00348*
X0189Y0035*
X01896*
X01896Y00348*
X019Y00342*
X01907Y00337*
X0191Y00337*
Y00356*
X0192*
Y00337*
X01922Y00337*
X01929Y00342*
X01933Y00348*
X01934Y0035*
X01939*
X01939Y00348*
X01944Y00342*
X0195Y00337*
X01953Y00337*
Y00356*
X01963*
Y00337*
X01966Y00337*
X01969Y00339*
X01974Y00337*
Y0033*
X01974Y00327*
X01976Y00324*
X02005Y00295*
X02008Y00293*
X02012Y00292*
X02014*
X02015Y00292*
X02019Y00288*
X02022Y00288*
Y00283*
X02017Y00282*
X02011Y00278*
X02007Y00272*
X02007Y0027*
X02041*
X02041Y00272*
X02037Y00278*
X02031Y00282*
X02027Y00283*
Y00288*
X0203Y00288*
X02035Y00292*
X02038Y00296*
X02039Y00302*
X02038Y00307*
X02035Y00312*
X0203Y00315*
X02025Y00316*
X02019Y00315*
X02015Y00312*
X01992Y00334*
Y00487*
X01998*
X01998Y00487*
G37*
G36*
X02042Y00231D02*
X02037Y00227D01*
X02035Y00228*
X02029Y00227*
X02025Y00224*
X02022Y00219*
X02021Y00214*
X02022Y00209*
X02025Y00204*
X02025Y00204*
Y00186*
X02024Y00184*
X01922*
Y00197*
X01994*
Y00236*
X02042*
Y00231*
G37*
G36*
X01111Y00289D02*
X01114Y00287D01*
X01118Y00287*
X0113*
X01133Y00285*
X01137Y00284*
X01208*
X0121Y00284*
X01214Y0028*
X01214Y00278*
Y00225*
X01209Y00224*
X01206Y00227*
X01203Y00229*
X01199Y0023*
X01107*
X01103Y00229*
X011Y00227*
X011Y00226*
X01098Y00224*
X01097Y00224*
X01093Y00227*
X01092Y00231*
Y00259*
X01101Y00269*
X01103Y00272*
X01104Y00275*
Y00289*
X01109Y00291*
X01111Y00289*
G37*
G36*
X00772Y00335D02*
Y00251D01*
X00798*
Y00225*
X00799Y00221*
X00801Y00218*
X00811Y00208*
X00809Y00203*
X00743*
X0074Y00208*
X00741Y00209*
X00742Y00214*
X00742Y00215*
X00758Y00232*
X00761Y00235*
X00761Y00238*
Y0033*
X00767Y00336*
X00767Y00336*
X00772Y00335*
G37*
G36*
X02045Y00171D02*
X02049Y00168D01*
X02048Y00163*
X02049Y00158*
X0205Y00156*
X02047Y00151*
X02046Y00152*
X02036Y0015*
X02028Y00147*
X0202Y00141*
X02015Y00134*
X02011Y00125*
X0198*
X01977Y00134*
X01971Y00141*
X01964Y00147*
X01955Y0015*
X01946Y00152*
X01936Y0015*
X01928Y00147*
X0192Y00141*
X01917Y00137*
X01912Y00138*
Y00163*
X01914Y00165*
X02034*
X02037Y00166*
X0204Y00168*
X02044Y00172*
X02045Y00171*
G37*
G36*
X01892Y00141D02*
X01893Y0014D01*
Y00096*
X0187Y00073*
X01809*
X01806Y00078*
X01806Y00081*
X01805Y00086*
X01802Y0009*
X01798Y00093*
X01792Y00094*
X01787Y00093*
X01783Y0009*
X0178Y00086*
X0178Y00085*
X01772*
X0177Y0009*
X01771Y0009*
X01777Y00098*
X0178Y00106*
X01781Y00116*
X0178Y00125*
X01779Y00128*
X01783Y00131*
X01784Y0013*
X01787Y00128*
X01791Y00127*
X01805*
X01807Y00128*
X01809Y00126*
X0181Y00126*
X01811Y00124*
X0181Y00116*
X01811Y00106*
X01815Y00098*
X0182Y0009*
X01828Y00085*
X01836Y00081*
X01846Y0008*
X01855Y00081*
X01864Y00085*
X01871Y0009*
X01877Y00098*
X0188Y00106*
X01881Y00116*
X0188Y00125*
X01877Y00134*
X01876Y00134*
X01879Y00139*
X01879Y00139*
X01885Y0014*
X01888Y00142*
X01892Y00141*
G37*
G36*
X0142Y00142D02*
X0142Y00141D01*
X01415Y00134*
X01411Y00125*
X0141Y00116*
X01411Y00106*
X01415Y00098*
X0142Y0009*
X01428Y00085*
X01436Y00081*
X01446Y0008*
X01455Y00081*
X01464Y00085*
X01471Y0009*
X01475Y00096*
X01477*
X01481Y00095*
X01481Y00092*
X01483Y00089*
X01507Y00065*
X01505Y00061*
X0131*
X01308Y00065*
X01328Y00085*
X01336Y00081*
X01346Y0008*
X01355Y00081*
X01364Y00085*
X01371Y0009*
X01377Y00098*
X0138Y00106*
X01381Y00116*
X0138Y00125*
X01377Y00134*
X01371Y00141*
X01371Y00142*
X01373Y00146*
X01419*
X0142Y00142*
G37*
%LNpcb1-2*%
%LPC*%
G36*
X02225Y00752D02*
X0219D01*
X02191Y0075*
X02195Y00745*
X02195Y00744*
Y00739*
X02195Y00739*
X02191Y00733*
X0219Y00731*
X02225*
X02224Y00733*
X0222Y00739*
X0222Y00739*
Y00744*
X0222Y00745*
X02224Y0075*
X02225Y00752*
G37*
G36*
Y00721D02*
X0219D01*
X02191Y00719*
X02195Y00713*
X022Y0071*
X022Y00707*
X022Y00704*
X02195Y00701*
X02191Y00695*
X0219Y00693*
X02225*
X02224Y00695*
X0222Y00701*
X02215Y00704*
X02215Y00707*
X02215Y0071*
X0222Y00713*
X02224Y00719*
X02225Y00721*
G37*
G36*
X02168Y00628D02*
X02156D01*
X02156Y00626*
X0216Y0062*
X02166Y00616*
X02168Y00615*
Y00628*
G37*
G36*
X02224Y00608D02*
X0219D01*
X0219Y00606*
X02194Y006*
X02196Y00599*
Y00593*
X02193Y00591*
X02189Y00585*
X02189Y00583*
X02223*
X02223Y00585*
X02219Y00591*
X02217Y00592*
Y00598*
X0222Y006*
X02224Y00606*
X02224Y00608*
G37*
G36*
X02223Y00573D02*
X02211D01*
Y00561*
X02213Y00561*
X02219Y00565*
X02223Y00571*
X02223Y00573*
G37*
G36*
X02201D02*
X02189D01*
X02189Y00571*
X02193Y00565*
X02199Y00561*
X02201Y00561*
Y00573*
G37*
G36*
X02217Y00496D02*
Y00483D01*
X02229*
X02229Y00485*
X02225Y00491*
X02219Y00495*
X02217Y00496*
G37*
G36*
X02232Y00342D02*
X02197D01*
X02198Y0034*
X02202Y00334*
X02206Y00331*
X02206Y0033*
Y00327*
X02206Y00326*
X02202Y00323*
X02198Y00317*
X02197Y00315*
X02232*
X02231Y00317*
X02227Y00323*
X02223Y00326*
X02223Y00327*
Y0033*
X02223Y00331*
X02227Y00334*
X02231Y0034*
X02232Y00342*
G37*
G36*
Y00305D02*
X02197D01*
X02198Y00303*
X02202Y00297*
X02204Y00295*
X02204Y00294*
X02204Y00289*
X02199Y00286*
X02195Y00281*
X02195Y00279*
X02229*
X02229Y00281*
X02225Y00286*
X02223Y00288*
X02222Y00289*
X02223Y00294*
X02227Y00297*
X02231Y00303*
X02232Y00305*
G37*
G36*
X02229Y00269D02*
X02195D01*
X02195Y00267*
X02199Y00261*
X02203Y00258*
X02203Y00252*
X022Y0025*
X02196Y00244*
X02195Y00242*
X0223*
X02229Y00244*
X02225Y0025*
X02222Y00253*
X02222Y00258*
X02225Y00261*
X02229Y00267*
X02229Y00269*
G37*
G36*
X0223Y00232D02*
X02195D01*
X02196Y0023*
X022Y00224*
X02202Y00223*
Y00217*
X02199Y00215*
X02195Y00209*
X02195Y00207*
X02229*
X02229Y00209*
X02225Y00215*
X02223Y00216*
Y00223*
X02225Y00224*
X02229Y0023*
X0223Y00232*
G37*
G36*
X02229Y00197D02*
X02195D01*
X02195Y00195*
X02199Y00189*
X02201Y00188*
X02201Y00182*
X02197Y00176*
X02196Y00174*
X02231*
X02231Y00176*
X02227Y00182*
X02225Y00183*
X02225Y00189*
X02229Y00195*
X02229Y00197*
G37*
G36*
X02231Y00164D02*
X02196D01*
X02197Y00162*
X02201Y00156*
X02203Y00155*
Y00151*
X02202Y0015*
X02198Y00144*
X02198Y00142*
X02232*
X02232Y00144*
X02228Y0015*
X02226Y00151*
Y00155*
X02227Y00157*
X02231Y00162*
X02231Y00164*
G37*
G36*
X02232Y00132D02*
X02198D01*
X02198Y0013*
X02202Y00124*
X02204Y00123*
Y00117*
X02202Y00116*
X02198Y0011*
X02198Y00108*
X02232*
X02232Y0011*
X02228Y00116*
X02226Y00117*
Y00123*
X02228Y00124*
X02232Y0013*
X02232Y00132*
G37*
G36*
Y00098D02*
X02198D01*
X02198Y00096*
X02202Y0009*
X02203Y0009*
Y00085*
X02202Y00084*
X02198Y00079*
X02198Y00077*
X02232*
X02232Y00079*
X02228Y00084*
X02227Y00085*
Y0009*
X02228Y0009*
X02232Y00096*
X02232Y00098*
G37*
G36*
X00144Y0076D02*
Y00735D01*
X00169*
X00168Y00738*
X00165Y00745*
X0016Y00751*
X00154Y00756*
X00147Y00759*
X00144Y0076*
G37*
G36*
X00351Y00755D02*
Y00721D01*
X00385*
X00384Y00726*
X0038Y00736*
X00374Y00744*
X00366Y0075*
X00356Y00754*
X00351Y00755*
G37*
G36*
X00341D02*
X00335Y00754D01*
X00326Y0075*
X00317Y00744*
X00311Y00736*
X00307Y00726*
X00306Y00721*
X00341*
Y00755*
G37*
G36*
X00285Y00755D02*
X00251D01*
Y00721*
X00285*
Y00755*
G37*
G36*
X00241D02*
X00206D01*
Y00721*
X00241*
Y00755*
G37*
G36*
X00169Y00725D02*
X00144D01*
Y00701*
X00147Y00701*
X00154Y00704*
X0016Y00709*
X00165Y00715*
X00168Y00723*
X00169Y00725*
G37*
G36*
X00385Y00711D02*
X00351D01*
Y00676*
X00356Y00677*
X00366Y00681*
X00374Y00688*
X0038Y00696*
X00384Y00705*
X00385Y00711*
G37*
G36*
X00341D02*
X00306D01*
X00307Y00705*
X00311Y00696*
X00317Y00688*
X00326Y00681*
X00335Y00677*
X00341Y00676*
Y00711*
G37*
G36*
X00285D02*
X00251D01*
Y00676*
X00285*
Y00711*
G37*
G36*
X00241D02*
X00206D01*
Y00676*
X00241*
Y00711*
G37*
G36*
X00223Y00667D02*
Y00655D01*
X00235*
X00234Y00657*
X00231Y00663*
X00225Y00667*
X00223Y00667*
G37*
G36*
X00213D02*
X00211Y00667D01*
X00205Y00663*
X00201Y00657*
X002Y00655*
X00213*
Y00667*
G37*
G36*
X0068Y00654D02*
X00662D01*
Y00632*
X0068*
Y00654*
G37*
G36*
X00652D02*
X00633D01*
Y00632*
X00652*
Y00654*
G37*
G36*
X00287Y00631D02*
X00285Y00631D01*
X00279Y00627*
X00275Y00621*
X00275Y00619*
X00287*
Y00631*
G37*
G36*
X00535Y00625D02*
X00516D01*
Y00602*
X00535*
Y00625*
G37*
G36*
X00506D02*
X00488D01*
Y00602*
X00506*
Y00625*
G37*
G36*
X0068Y00622D02*
X00662D01*
Y00599*
X0068*
Y00622*
G37*
G36*
X00652D02*
X00633D01*
Y00599*
X00652*
Y00622*
G37*
G36*
X00467Y00617D02*
X00445D01*
Y00599*
X00467*
Y00617*
G37*
G36*
X00287Y00609D02*
X00275D01*
X00275Y00607*
X00279Y00601*
X00285Y00597*
X00287Y00596*
Y00609*
G37*
G36*
X00169Y0061D02*
X00141D01*
X00134Y00609*
X00126Y00606*
X0012Y00601*
X00115Y00595*
X00112Y00587*
X00112Y0058*
X00111Y0058*
Y00518*
X00113Y00513*
X00118Y00511*
X00192*
X00197Y00513*
X00199Y00518*
Y0058*
X00199Y00581*
X00198Y00587*
X00195Y00595*
X0019Y00601*
X00184Y00606*
X00177Y00609*
X00169Y0061*
G37*
G36*
X00681Y00496D02*
Y00484D01*
X00692*
X00692Y00486*
X00688Y00492*
X00682Y00496*
X00681Y00496*
G37*
G36*
X00671D02*
X00669Y00496D01*
X00663Y00492*
X00659Y00486*
X00658Y00479*
X00657Y00479*
X00653Y00477*
X00653Y00478*
X00647Y00481*
X00645Y00482*
Y00465*
X0064*
Y0046*
X00623*
X00624Y00458*
X00627Y00452*
X00633Y00448*
X00637Y00448*
X00636Y00443*
X00602*
Y00418*
X00654*
Y00443*
X00644*
X00643Y00448*
X00647Y00448*
X00653Y00452*
X00657Y00458*
X00658Y00465*
X00659Y00465*
X00663Y00466*
X00669Y00463*
X00671Y00462*
Y00479*
Y00496*
G37*
G36*
X00692Y00474D02*
X00681D01*
Y00462*
X00682Y00463*
X00688Y00466*
X00692Y00472*
X00692Y00474*
G37*
G36*
X00198Y00502D02*
X00112D01*
Y00419*
X00198*
Y00502*
G37*
G36*
X00592Y00443D02*
X0054D01*
Y00418*
X00592*
Y00443*
G37*
G36*
X00654Y00408D02*
X00602D01*
Y00383*
X00654*
Y00408*
G37*
G36*
X00592D02*
X0054D01*
Y00383*
X00592*
Y00408*
G37*
G36*
X00343Y00355D02*
Y00343D01*
X00355*
X00355Y00344*
X00351Y0035*
X00345Y00354*
X00343Y00355*
G37*
G36*
X00333D02*
X00331Y00354D01*
X00325Y0035*
X00321Y00344*
X00321Y00343*
X00333*
Y00355*
G37*
G36*
X0045Y00358D02*
X00431D01*
Y00336*
X0045*
Y00358*
G37*
G36*
X00421D02*
X00403D01*
Y00336*
X00421*
Y00358*
G37*
G36*
X00198Y00411D02*
X00112D01*
Y00329*
X00198*
Y00411*
G37*
G36*
X00355Y00333D02*
X00343D01*
Y0032*
X00345Y00321*
X00351Y00325*
X00355Y00331*
X00355Y00333*
G37*
G36*
X00333D02*
X00321D01*
X00321Y00331*
X00325Y00325*
X00331Y00321*
X00333Y0032*
Y00333*
G37*
G36*
X0045Y00326D02*
X00431D01*
Y00303*
X0045*
Y00326*
G37*
G36*
X00297Y00359D02*
X0026D01*
X00224*
Y00346*
X00244*
X00246Y00342*
X00246Y00341*
X00243Y00335*
X00242Y00328*
X00243Y00321*
X00246Y00314*
X0025Y00309*
X00256Y00304*
X00262Y00302*
X00269Y00301*
X00277*
X00284Y00302*
X00291Y00304*
X00296Y00309*
X003Y00314*
X00303Y00321*
X00304Y00328*
X00303Y00335*
X003Y00341*
X00299Y00342*
X00297Y00346*
Y00359*
G37*
G36*
X00336Y00313D02*
X00329Y00312D01*
X00323Y00309*
X00317Y00305*
X00313Y003*
X00312Y00298*
X00311Y00297*
X00307Y00295*
X00292Y0028*
X00266*
X00263Y00282*
X00257Y00283*
X00252Y00282*
X00247Y00278*
X00244Y00274*
X00243Y00268*
X00244Y00263*
X00247Y00258*
X00252Y00255*
X00257Y00254*
X00263Y00255*
X00266Y00257*
X00297*
X00301Y00258*
X00305Y00261*
X00313Y00269*
X00317Y00269*
X00323Y00265*
X00329Y00262*
X00336Y00261*
X00342Y00262*
X00344Y00263*
X00368Y00238*
Y00224*
X0036*
Y00177*
X00399*
Y00224*
X00391*
Y00243*
X0039Y00247*
X00387Y00251*
X0036Y00278*
X00361Y0028*
X00362Y00287*
X00361Y00294*
X00358Y003*
X00354Y00305*
X00349Y00309*
X00342Y00312*
X00336Y00313*
G37*
G36*
X00192Y00319D02*
X00118D01*
X00113Y00318*
X00111Y00313*
Y00251*
X00112Y0025*
X00112Y00243*
X00115Y00236*
X0012Y0023*
X00126Y00225*
X00134Y00222*
X00141Y00221*
X00169*
X00177Y00222*
X00184Y00225*
X0019Y0023*
X00195Y00236*
X00198Y00243*
X00199Y0025*
X00199Y00251*
Y00313*
X00197Y00318*
X00192Y00319*
G37*
G36*
X00176Y00158D02*
Y00146D01*
X00188*
X00188Y00148*
X00184Y00154*
X00178Y00158*
X00176Y00158*
G37*
G36*
X00188Y00136D02*
X00176D01*
Y00124*
X00178Y00124*
X00184Y00128*
X00188Y00134*
X00188Y00136*
G37*
G36*
X00351Y00155D02*
Y00121D01*
X00385*
X00384Y00126*
X0038Y00136*
X00374Y00144*
X00366Y0015*
X00356Y00154*
X00351Y00155*
G37*
G36*
X00341D02*
X00335Y00154D01*
X00326Y0015*
X00317Y00144*
X00311Y00136*
X00307Y00126*
X00306Y00121*
X00341*
Y00155*
G37*
G36*
X00156Y00123D02*
X00136D01*
Y00106*
X00156*
Y00123*
G37*
G36*
X00281Y00151D02*
X0021D01*
Y0008*
X00281*
Y00151*
G37*
G36*
X00156Y00096D02*
X00136D01*
Y00079*
X00156*
Y00096*
G37*
G36*
X00485Y00111D02*
X00451D01*
Y00076*
X00456Y00077*
X00466Y00081*
X00474Y00088*
X0048Y00096*
X00484Y00105*
X00485Y00111*
G37*
G36*
X00441D02*
X00406D01*
X00407Y00105*
X00411Y00096*
X00417Y00088*
X00426Y00081*
X00435Y00077*
X00441Y00076*
Y00111*
G37*
G36*
X00385D02*
X00351D01*
Y00076*
X00356Y00077*
X00366Y00081*
X00374Y00088*
X0038Y00096*
X00384Y00105*
X00385Y00111*
G37*
G36*
X00341D02*
X00306D01*
X00307Y00105*
X00311Y00096*
X00317Y00088*
X00326Y00081*
X00335Y00077*
X00341Y00076*
Y00111*
G37*
G36*
X01029Y00595D02*
X01009D01*
Y00573*
X01029*
Y00595*
G37*
G36*
Y00563D02*
X01009D01*
Y00542*
X01029*
Y00563*
G37*
G36*
X01719Y0066D02*
X017D01*
Y00638*
X01719*
Y0066*
G37*
G36*
X0083Y00635D02*
X00818D01*
X00818Y00633*
X00822Y00627*
X00828Y00623*
X0083Y00623*
Y00635*
G37*
G36*
X00817Y00613D02*
X00794D01*
Y00594*
X00817*
Y00613*
G37*
G36*
Y00584D02*
X00794D01*
Y00566*
X00817*
Y00584*
G37*
G36*
X00847Y00482D02*
X00825D01*
Y00464*
X00847*
Y00482*
G37*
G36*
X01998Y00603D02*
X01962D01*
Y00555*
X01998*
Y00603*
G37*
G36*
X0202Y00554D02*
X02018Y00554D01*
X02012Y0055*
X02008Y00544*
X02008Y00542*
X0202*
Y00554*
G37*
G36*
X02152Y00465D02*
X0214D01*
Y00453*
X02142Y00453*
X02148Y00457*
X02152Y00463*
X02152Y00465*
G37*
G36*
X0213D02*
X02118D01*
X02119Y00463*
X02123Y00457*
X02129Y00453*
X0213Y00453*
Y00465*
G37*
G36*
X01245Y00367D02*
X01233D01*
Y00355*
X01235Y00356*
X01241Y0036*
X01245Y00366*
X01245Y00367*
G37*
G36*
X0104Y00297D02*
X01016D01*
X00992*
Y00274*
X00993*
Y00259*
X01017*
X01041*
Y00282*
X0104*
Y00297*
G37*
G36*
X01852Y002D02*
X0183D01*
Y0018*
X01852*
Y002*
G37*
%LNpcb1-3*%
%LPD*%
G54D12*
X00341Y0062D02*
X00464D01*
X00334Y00435D02*
Y00478D01*
X00315Y00415D02*
X00334Y00435D01*
X01497Y00395D02*
X016D01*
X01658Y00448D02*
Y00472D01*
X01657Y00448D02*
X01658Y00448D01*
X01633Y00448D02*
X01657D01*
X016Y00395D02*
X01623Y00418D01*
X01496Y00394D02*
X01497Y00395D01*
X01623Y00418D02*
Y00438D01*
X01633Y00448*
X01658Y00472D02*
X01662Y00476D01*
X00381Y00572D02*
X00394Y00558D01*
X00334Y00572D02*
X00381D01*
X00438Y00565D02*
X00446Y00557D01*
X00401Y00565D02*
X00438D01*
X00394Y00558D02*
X00401Y00565D01*
X00601Y00467D02*
X0066Y00527D01*
X00531Y00467D02*
X00601D01*
X00505Y00441D02*
X00531Y00467D01*
X00426Y00347D02*
Y00428D01*
X00131Y00101D02*
X00171Y00141D01*
X00338Y00338D02*
Y00364D01*
X00467Y00441D02*
X00505D01*
X00371Y00331D02*
X00426D01*
X00338Y00364D02*
X00371Y00331D01*
X0026Y00364D02*
X00338D01*
X0026Y00415D02*
X00315D01*
X00413Y00441D02*
X00426Y00428D01*
X00376Y00441D02*
X00413D01*
X00334Y00478D02*
X00376D01*
G54D14*
X01226Y00566D03*
X01246D03*
X01265D03*
X01285D03*
X01305D03*
X01324D03*
X01344D03*
X01364D03*
X01383D03*
X01403D03*
X01423D03*
X01442D03*
Y00243D03*
X01423D03*
X01403D03*
X01383D03*
X01364D03*
X01344D03*
X01324D03*
X01305D03*
X01285D03*
X01265D03*
X01246D03*
X01226D03*
G54D15*
X01496Y00513D03*
Y00493D03*
Y00473D03*
Y00453D03*
Y00434D03*
Y00414D03*
Y00394D03*
Y00375D03*
Y00355D03*
Y00335D03*
Y00316D03*
Y00296D03*
X01173D03*
Y00316D03*
Y00335D03*
Y00355D03*
Y00375D03*
Y00394D03*
Y00414D03*
Y00434D03*
Y00453D03*
Y00473D03*
Y00493D03*
Y00513D03*
G54D16*
X00379Y002D03*
X00324D03*
X01738Y00298D03*
X01683D03*
X01679Y00206D03*
X01734D03*
X01715Y00541D03*
X0166D03*
X01724Y00633D03*
X01668D03*
X01014Y00357D03*
X01069D03*
X01016Y00302D03*
X01071D03*
X01072Y00254D03*
X01017D03*
X01018Y00203D03*
X01074D03*
X01715Y00488D03*
X0166D03*
X00657Y00627D03*
X00712D03*
X00511Y0063D03*
X00566D03*
X00426Y00331D03*
X00481D03*
X00515Y00553D03*
X0057D03*
G54D17*
X01825Y00205D03*
Y00256D03*
G54D18*
X02105Y0061D03*
X01957Y00608D03*
G54D19*
X02105Y00248D03*
X01957Y00246D03*
G54D20*
X00131Y00158D03*
Y00101D03*
G54D21*
X00822Y00589D03*
Y00534D03*
X01824Y00389D03*
Y00334D03*
X0174Y00398D03*
Y00343D03*
X01684Y00342D03*
Y00398D03*
X0092Y00626D03*
Y00571D03*
X00852Y00487D03*
Y00432D03*
X00332Y00621D03*
Y00566D03*
X00387Y00622D03*
Y00566D03*
X0044Y00622D03*
Y00567D03*
X00481Y00253D03*
Y00198D03*
X0043Y00252D03*
Y00197D03*
G54D22*
X01177Y00575D03*
X01126D03*
X01004Y00568D03*
X01055D03*
G54D23*
X01825Y00447D03*
Y00512D03*
G54D24*
X00984Y00493D03*
Y00418D03*
G54D26*
X00376Y00478D03*
Y00441D03*
Y00403D03*
X00467D03*
Y00441D03*
Y00478D03*
G54D27*
X00597Y00413D03*
Y00322D03*
Y00232D03*
G54D28*
X00826Y00322D03*
G54D29*
X00155Y0037D03*
Y00461D03*
G54D30*
X0026Y00466D03*
Y00441D03*
Y00364D03*
Y00415D03*
Y0039D03*
G54D31*
X00135Y00654D03*
X00139Y0073D03*
X00336Y00287D03*
G54D32*
X00155Y00549D03*
G54D33*
X00155Y00282D03*
G54D62*
X0066Y00527D03*
X00747D03*
G54D63*
X02163Y00364D02*
X02187D01*
X02159Y00492D02*
Y00595D01*
Y00492D02*
X02187Y00464D01*
X00891Y00469D02*
X00911Y00489D01*
X00891Y00466D02*
Y00469D01*
X01023Y00361D02*
X01062Y004D01*
X00871Y00626D02*
X0092D01*
X00835Y00589D02*
X00871Y00626D01*
X00822Y00589D02*
X00835D01*
X01578Y00677D02*
X01591Y00663D01*
X01525Y00537D02*
X01568Y00581D01*
X01503Y00677D02*
X01578D01*
X01591Y00604D02*
Y00663D01*
X01588Y00548D02*
X01622Y00583D01*
X01588Y00514D02*
Y00548D01*
X01622Y00583D02*
Y00583D01*
X01579Y00556D02*
X0161Y00588D01*
X01578Y00556D02*
X01579D01*
X0161Y00588D02*
Y00588D01*
X01579Y00556D02*
D01*
X01576Y00554D02*
X01579Y00556D01*
X01578Y00556D02*
X01579Y00556D01*
X01576Y00519D02*
Y00554D01*
X0161Y00588D02*
X01617Y00595D01*
X01955Y00245D02*
X0205D01*
X01734Y00179D02*
Y00213D01*
X01879Y00153D02*
Y00183D01*
X01885Y00189*
X01903Y00092D02*
Y00167D01*
X01874Y00064D02*
X01903Y00092D01*
X019Y0017D02*
X01903Y00167D01*
X01315Y00515D02*
X01389D01*
X01305Y00525D02*
X01315Y00515D01*
X01305Y00525D02*
Y00566D01*
X01293Y00503D02*
Y00503D01*
X01349Y00474D02*
X01369Y00454D01*
X01303Y00474D02*
X01349D01*
X01284Y00455D02*
X01303Y00474D01*
X01284Y00434D02*
Y00455D01*
Y00434D02*
X01294Y00423D01*
X01278Y00411D02*
X01346D01*
X01272Y00418D02*
X01278Y00411D01*
X01272Y00418D02*
Y00477D01*
X01281Y00486D02*
X01363D01*
X01272Y00477D02*
X01281Y00486D01*
X01293Y00503D02*
X01377D01*
X01271Y00503D02*
X01293D01*
X01351Y00423D02*
X01391Y00383D01*
X01346Y00411D02*
X01379Y00378D01*
X01319Y00399D02*
X01342Y00376D01*
X01294Y00423D02*
X01351D01*
X01231Y00399D02*
X01319D01*
X01755Y00257D02*
X01758D01*
X01731Y00233D02*
X01755Y00257D01*
X01769Y00372D02*
X01778Y00381D01*
X01637Y00372D02*
X01769D01*
X01621Y00537D02*
X01621D01*
X01602Y005D02*
X01603D01*
X01557Y00485D02*
X0156D01*
X01042Y00621D02*
Y00662D01*
X0104Y00661D02*
X01042Y00662D01*
X00911Y00489D02*
Y00537D01*
X00866Y00518D02*
X00886Y00499D01*
X00883Y00587D02*
X00898Y00601D01*
X00866Y00518D02*
Y00537D01*
X00866D02*
Y00566D01*
X00866Y00537D02*
X00866D01*
X00883Y0053D02*
Y00587D01*
X00861Y00572D02*
X00866Y00566D01*
X00852Y00487D02*
Y0055D01*
X00822Y00581D02*
X00852Y0055D01*
X00901Y00259D02*
X00975D01*
X00876Y00234D02*
X00901Y00259D01*
X00966Y00215D02*
X0097D01*
X00954D02*
X00958D01*
X01442Y00305D02*
X01445Y00308D01*
X01533Y00154D02*
X01662D01*
X01565Y00179D02*
X01672D01*
X01377Y00503D02*
X01387Y00493D01*
X01389Y00515D02*
X01405Y00499D01*
X01387Y00486D02*
Y00493D01*
Y00486D02*
X01419Y00454D01*
X01315Y00452D02*
X0134D01*
X01436Y00362D02*
X01449Y00375D01*
X01496*
X01436Y00318D02*
Y00362D01*
Y00318D02*
X01445Y00309D01*
X01433Y00419D02*
Y00434D01*
X01429Y00415D02*
X01433Y00419D01*
X01429Y00379D02*
Y00415D01*
X01404Y00371D02*
Y00388D01*
X0134Y00452D02*
X01404Y00388D01*
X01391Y00332D02*
Y00383D01*
X01379Y00337D02*
Y00378D01*
X01404Y00371D02*
X01421Y00353D01*
X01445Y00308D02*
Y00309D01*
X017Y00076D02*
X01792D01*
X01348Y00298D02*
X01377D01*
X01378Y00298*
X01382Y00302*
X01323Y00298D02*
X01324D01*
X01355Y00329*
X0133Y00332D02*
D01*
X01173Y00375D02*
X01226D01*
X01228Y00372*
X01369Y00454D02*
X01419D01*
X01246Y00529D02*
X01271Y00503D01*
X01419Y00454D02*
X01426D01*
X01342Y00369D02*
Y00376D01*
X00139Y0073D02*
X00154Y00716D01*
X00246*
X00173Y00654D02*
X00176Y0065D01*
X00135Y00654D02*
X00173D01*
X00176Y00637D02*
Y0065D01*
X00195Y00618D02*
X00234D01*
X00176Y00637D02*
X00195Y00618D01*
X0114Y00607D02*
X01172D01*
X01102D02*
X0114D01*
X01152Y00594*
Y00533D02*
Y00594D01*
X01172Y00607D02*
X01177Y00612D01*
X01092Y00597D02*
X01102Y00607D01*
X01092Y00555D02*
Y00597D01*
X01118Y00638D02*
Y00656D01*
X01126Y00665*
X01162Y00652D02*
X01196D01*
X01158Y00648D02*
X01162Y00652D01*
X01158Y00628D02*
Y00648D01*
X01177Y0064D02*
X01201D01*
X01177Y00612D02*
Y0064D01*
X012Y00621D02*
Y00622D01*
Y00621D02*
Y00622D01*
Y00621D02*
X01207Y00628D01*
X01235*
X01228Y00567D02*
Y00611D01*
X01201Y0064D02*
X0124D01*
X01196Y00652D02*
X01245D01*
X01126Y00665D02*
X0125D01*
X01121Y00677D02*
X01255D01*
X01255Y00677*
X0125Y00665D02*
X0125Y00665D01*
X01245Y00652D02*
X01245D01*
X0124Y0064D02*
D01*
X01235Y00628D02*
D01*
X01196Y00652D02*
D01*
X0109Y00646D02*
X01121Y00677D01*
X01007Y0063D02*
Y00668D01*
X01005Y00631D02*
X01007Y0063D01*
X01002Y00631D02*
X01005D01*
X0098Y00607D02*
Y00668D01*
X00999Y00687*
X00974Y00607D02*
X00979D01*
X0098Y00607*
X01235Y00628D02*
X01246D01*
X0124Y0064D02*
X01271D01*
X01245Y00652D02*
X01303D01*
X0125Y00665D02*
X01298D01*
X01255Y00677D02*
X01293D01*
X01226Y00566D02*
X01228Y00567D01*
X01201Y0064D02*
D01*
X01246Y00566D02*
Y00628D01*
X01271Y0064D02*
X01295Y00616D01*
X01068Y00665D02*
X0109Y00687D01*
X01068Y00628D02*
Y00665D01*
X01466Y00212D02*
X01468Y00209D01*
X01461Y00192D02*
X01476D01*
X01461D02*
D01*
X01338D02*
X01461D01*
X01456Y0018D02*
X01481D01*
X01456D02*
D01*
X01299D02*
X01456D01*
X01586Y00203D02*
X0168D01*
X0154Y00257D02*
X0154D01*
X01531D02*
X0154D01*
X01668Y00343D02*
X01677Y00334D01*
X01685*
X01572Y00343D02*
X01668D01*
X0174Y00343D02*
X01764D01*
X0177Y00338*
Y00272D02*
Y00338D01*
X01745Y00421D02*
X01763Y0044D01*
X01683Y00431D02*
X01692Y00421D01*
X01745*
X01686Y00394D02*
X01741D01*
X01668Y00412D02*
X01686Y00394D01*
X01758Y00254D02*
Y00257D01*
X01774Y00195D02*
Y00245D01*
X01775Y00245*
X01786Y00175D02*
Y0024D01*
X01787Y0024*
X01799Y0018D02*
Y00234D01*
X01799Y00235*
X01775Y00245D02*
Y00267D01*
X01787Y0024D02*
Y00272D01*
X01799Y00235D02*
Y00277D01*
X01721Y00245D02*
X01738Y00263D01*
X01688Y00245D02*
X01721D01*
X01738Y00263D02*
Y00288D01*
X01749Y00299*
X01687Y00247D02*
X01688Y00245D01*
X01712Y00262D02*
Y00262D01*
X01683Y00233D02*
X01731D01*
X01682Y00235D02*
X01683Y00233D01*
X01636Y00235D02*
X01682D01*
X01631Y00247D02*
X01687D01*
X01711Y00262D02*
X01712D01*
X01712Y00262D02*
X01712Y00262D01*
X01711D02*
X01713Y00264D01*
X01711Y00262D02*
D01*
X01631Y00246D02*
X01631Y00247D01*
X00977Y00221D02*
X01D01*
X0097Y00215D02*
X00977Y00221D01*
X00958Y00215D02*
X00966D01*
X00948Y00221D02*
X00954Y00215D01*
X00912Y00221D02*
X00948D01*
X00955Y00238D02*
X00959D01*
X00959Y00238*
X00905Y00238D02*
X00955D01*
X00905Y00238D02*
X00905Y00238D01*
X00901Y0021D02*
X00912Y00221D01*
X00822Y0021D02*
X00901D01*
X00866Y00234D02*
X00876D01*
X0063Y00185D02*
Y00192D01*
X00632Y00193*
X00807Y00225D02*
X00822Y0021D01*
X00807Y00225D02*
Y00304D01*
X00829Y00326*
X00382Y00543D02*
X00427Y00498D01*
X00328Y00517D02*
X00354Y00543D01*
X00379Y00526D02*
X00413Y00492D01*
X00354Y00543D02*
X00382D01*
X00363Y00526D02*
X00379D01*
X01185Y00189D02*
X01185Y00188D01*
X01164Y00189D02*
X01185D01*
X01159Y00183D02*
X01164Y00189D01*
X01134Y00183D02*
X01159D01*
X01185Y00188D02*
X01187Y00189D01*
X01208Y00194D02*
Y00211D01*
Y00194D02*
X01223Y00179D01*
X01131Y00183D02*
X01134D01*
X01125Y00167D02*
X0119D01*
X01119Y00161D02*
X01125Y00167D01*
X0113Y00154D02*
X0117D01*
X01119Y00144D02*
X0113Y00154D01*
X01071Y00161D02*
X01119D01*
X00437Y00441D02*
X00467D01*
X00427Y00451D02*
X00437Y00441D01*
X00427Y00451D02*
Y00498D01*
X00325Y00517D02*
X00328D01*
X01729Y00438D02*
X01738D01*
X01725D02*
X01729D01*
X01493Y00218D02*
X01531Y00257D01*
X01324Y00206D02*
X01338Y00192D01*
X0133Y00332D02*
D01*
D01*
X01265D02*
X0133D01*
X01265Y00243D02*
Y00332D01*
X01228Y00246D02*
X01228Y00245D01*
X01228Y00291D02*
X01229Y00293D01*
X01228Y00246D02*
Y00291D01*
X01421Y00306D02*
Y00353D01*
X01409Y00293D02*
X01424Y00278D01*
X01391Y00293D02*
X01409D01*
X01382Y00302D02*
X01391Y00293D01*
X01382Y00323D02*
X01391Y00332D01*
X01371Y00329D02*
X01379Y00337D01*
X01487Y00665D02*
X01516D01*
X01522Y00659*
X01528Y00639D02*
X01538D01*
X01517Y00628D02*
X01528Y00639D01*
X01517Y00628D02*
X01517Y00628D01*
X0157Y00624D02*
X01577Y00617D01*
X0157Y00624D02*
Y00656D01*
X01604Y00599D02*
Y00683D01*
X01598Y00593D02*
X01604Y00599D01*
X01586Y00598D02*
X01591Y00604D01*
X01588Y00699D02*
X01604Y00683D01*
X01588Y00699D02*
Y00756D01*
X01618Y00661D02*
Y00686D01*
X016Y00704D02*
X01618Y00686D01*
Y00661D02*
X01621Y00658D01*
X016Y00704D02*
Y00749D01*
X01617Y00631D02*
X01648Y00662D01*
X01617Y00595D02*
Y00631D01*
X01629Y00619D02*
X01637Y00628D01*
X01629Y0059D02*
Y00619D01*
X01622Y00583D02*
X01629Y0059D01*
X01556Y0061D02*
X01557D01*
X01524Y00538D02*
Y00542D01*
X01563Y00593D02*
X01564D01*
X01542Y00572D02*
X01563Y00593D01*
X01568Y00581D02*
X01569D01*
X01573Y00568D02*
X01574D01*
X01558Y00553D02*
X01573Y00568D01*
X01569Y00581D02*
X01586Y00598D01*
X01574Y00568D02*
X01598Y00593D01*
X01543Y00597D02*
X01556Y0061D01*
X01564Y00593D02*
X01573Y00603D01*
X01494Y00686D02*
X01503Y00677D01*
X01577Y00607D02*
Y00617D01*
X01483Y00607D02*
X01495D01*
X01449Y00616D02*
X01465Y006D01*
Y00573D02*
Y006D01*
X01573Y00603D02*
Y00603D01*
X01577Y00607*
X01586Y00598D02*
Y00598D01*
X01598Y00593D02*
Y00593D01*
X01635Y00578D02*
X01662Y00605D01*
X01635Y00577D02*
Y00578D01*
X01601Y00543D02*
X01635Y00577D01*
X01601Y00528D02*
Y00543D01*
X01647Y00573D02*
X01667Y00593D01*
X01647Y00572D02*
Y00573D01*
X01621Y00547D02*
X01647Y00572D01*
X01621Y00537D02*
Y00547D01*
X01475Y00559D02*
X01482Y00566D01*
X01458D02*
X01465Y00573D01*
X01458Y00535D02*
Y00566D01*
X01405Y00499D02*
X01424Y0048D01*
X01426Y00454D02*
X01445Y00473D01*
X01513Y00597D02*
X01543D01*
X01558Y00526D02*
Y00553D01*
X01563Y00506D02*
X01576Y00519D01*
X01552Y00506D02*
X01563D01*
X0156Y00485D02*
X01588Y00514D01*
X01601Y00528D02*
X01621Y00508D01*
Y00483D02*
Y00508D01*
X01684Y00576D02*
X01687Y00574D01*
X01643Y00515D02*
X01656D01*
X01636Y00508D02*
X01643Y00515D01*
X01636Y00469D02*
Y00508D01*
X01495Y00607D02*
X01517Y00628D01*
X01637Y00628D02*
X01658D01*
X01541Y00495D02*
X01552Y00506D01*
X01494Y0054D02*
Y0055D01*
X01593Y00471D02*
X01609D01*
X01597Y00414D02*
X0161Y00426D01*
X01496Y00414D02*
X01597D01*
X0156Y00378D02*
X01593D01*
X0164Y00431D02*
X01683D01*
X01638Y00412D02*
X01668D01*
X0162Y00394D02*
X01638Y00412D01*
X01667Y00593D02*
X01755D01*
X01662Y00605D02*
X01761D01*
X01458Y00535D02*
X01481Y00513D01*
X01457Y00493D02*
X01496D01*
X01445Y00481D02*
X01457Y00493D01*
X01445Y00473D02*
Y00481D01*
X01482Y00566D02*
X01482D01*
X01513Y00597*
X01494Y0055D02*
X01516Y00572D01*
X01648Y00662D02*
X01708D01*
X01659Y00675D02*
X0174D01*
X01646Y00688D02*
X01659Y00675D01*
X01761Y00605D02*
X01809Y00558D01*
X01755Y00593D02*
X01792Y00555D01*
X01762Y00635D02*
X01821Y00577D01*
X0174Y00675D02*
X01834Y00582D01*
X01785Y0065D02*
X01867Y00569D01*
X01785Y0065D02*
Y00664D01*
X01809Y0054D02*
Y00558D01*
X01726Y00635D02*
X01762D01*
X01821Y00515D02*
Y00577D01*
X01834Y00555D02*
Y00582D01*
X01867Y00542D02*
Y00569D01*
X01817Y00641D02*
X01879Y00579D01*
X01817Y00641D02*
Y00659D01*
X01788Y00688D02*
X01817Y00659D01*
X01879Y00547D02*
Y00579D01*
X01718Y00628D02*
X01726Y00635D01*
X01481Y00513D02*
X01496D01*
X0147Y00648D02*
X01487Y00665D01*
X01445Y00648D02*
X0147D01*
X01501Y00716D02*
X01546D01*
X01478Y00693D02*
X01501Y00716D01*
X01478Y00684D02*
Y00693D01*
X01464Y0067D02*
X01478Y00684D01*
X01434Y0067D02*
X01464D01*
X00533Y00195D02*
X00562Y00167D01*
X00533Y00195D02*
Y00264D01*
X00877Y00167D02*
X00881Y00172D01*
X00562Y00167D02*
X00877D01*
X00533Y00264D02*
X00552Y00282D01*
X00758Y00362D02*
X00761Y00359D01*
Y00343D02*
Y00359D01*
X00752Y00334D02*
X00761Y00343D01*
X00752Y00238D02*
Y00334D01*
X0049Y00516D02*
X00501D01*
X0048Y00526D02*
X0049Y00516D01*
X01511Y00167D02*
X0152D01*
X0151Y00167D02*
X01511Y00167D01*
X00886Y00487D02*
Y00495D01*
Y00499*
X01466Y00212D02*
Y00242D01*
X01522Y00204D02*
Y00213D01*
X01485Y00167D02*
X01522Y00204D01*
X01304Y00167D02*
X01485D01*
X01496Y00155D02*
X01502Y00148D01*
X01309Y00155D02*
X01496D01*
X01502Y00148D02*
X01522D01*
X01546Y00125*
X01476Y00192D02*
X01493Y0021D01*
X01481Y0018D02*
X01508Y00207D01*
Y00216*
X01493Y0021D02*
Y00218D01*
X015Y00276D02*
X01558D01*
X01522Y00213D02*
X01537Y00228D01*
X01508Y00216D02*
X01532Y0024D01*
X0149Y00096D02*
Y00137D01*
X01535Y00179D02*
X01547Y00167D01*
X01561Y00184D02*
X01565Y00179D01*
X01556Y00211D02*
X01565D01*
X01556D02*
X01557Y0021D01*
X01558Y00276D02*
X01567Y00267D01*
X01586Y00247D02*
Y00285D01*
X01565Y00247D02*
X01586D01*
X01559Y0024D02*
X01565Y00247D01*
X01532Y0024D02*
X01559D01*
X01571Y00234D02*
X01595D01*
X01564Y00228D02*
X01571Y00234D01*
X01537Y00228D02*
X01564D01*
X01576Y00222D02*
X01624D01*
X01565Y00211D02*
X01576Y00222D01*
X01498Y00495D02*
X01541D01*
X01552Y00453D02*
X016Y00502D01*
X01602Y005*
X01609Y00471D02*
X01621Y00483D01*
X01635Y00309D02*
Y00318D01*
Y00309D02*
X01644D01*
X01619Y00258D02*
Y00308D01*
X01609Y00318D02*
X01619Y00308D01*
X01602Y00241D02*
Y00299D01*
X01583Y00307D02*
X01594Y00318D01*
X01583Y00307D02*
D01*
D01*
Y00288D02*
Y00307D01*
Y00288D02*
X01586Y00285D01*
X01564Y00296D02*
X01566Y00298D01*
X01496Y00315D02*
X01574D01*
X01589Y0033*
X01566Y00332D02*
Y00336D01*
X01545Y00335D02*
X01566Y00356D01*
X01639Y00276D02*
Y00283D01*
X01619Y00258D02*
X01631Y00246D01*
X01624Y00222D02*
X01636Y00235D01*
X01644Y00309D02*
X01655Y00299D01*
X01623Y0033D02*
X01635Y00318D01*
X01557Y00375D02*
X0156Y00378D01*
X01566Y00356D02*
X0162D01*
X01496Y00434D02*
X01586D01*
X01763Y0044D02*
X01765D01*
X01704Y0045D02*
X01711D01*
X01721Y0046*
X01738*
X01729Y00438D02*
Y00442D01*
X01738Y0046D02*
X01742Y00464D01*
X01773Y00455D02*
Y00487D01*
Y00455D02*
X01781Y00447D01*
Y00421D02*
Y00447D01*
X0179Y00479D02*
Y0048D01*
X01773Y00487D02*
X018Y00514D01*
X01772Y0051D02*
Y00521D01*
X01755Y00455D02*
Y00535D01*
X01742Y00464D02*
Y00563D01*
X01738Y00438D02*
X01755Y00455D01*
X01637Y00372D02*
Y00383D01*
X0162Y00368D02*
Y00394D01*
Y00368D02*
X0162Y00368D01*
X01466Y00242D02*
X01484Y0026D01*
X0152Y00167D02*
X01533Y00154D01*
X02047Y00552D02*
X02105Y0061D01*
X02047Y00503D02*
Y00552D01*
Y00503D02*
X02054Y00496D01*
X02025Y00537D02*
Y00546D01*
X02021Y00551D02*
X02025Y00546D01*
X01955Y00572D02*
X01977Y00551D01*
X02021*
X02052Y00448D02*
X02054Y0045D01*
Y00496*
X02098Y00507D02*
Y0054D01*
X02099Y00541*
X02068Y00543D02*
X02086Y00525D01*
Y00453D02*
Y00525D01*
X02098Y00507D02*
X02135Y0047D01*
X01829Y00258D02*
X01859Y00228D01*
X01867Y00206D02*
X01882Y00221D01*
X01867Y00201D02*
Y00206D01*
X01858Y00253D02*
X01866Y00245D01*
X01872*
X01882Y00235*
Y00221D02*
Y00235D01*
X01859Y00228D02*
X01865D01*
X0186Y00194D02*
X01867Y00201D01*
X01842Y00194D02*
X0186D01*
X01829Y00207D02*
X01842Y00194D01*
X01914Y00174D02*
X02034D01*
X01912Y00176D02*
X01914Y00174D01*
X01912Y00176D02*
Y00251D01*
X019Y0017D02*
Y00235D01*
X01877Y00258D02*
X019Y00235D01*
X01908Y00255D02*
X01912Y00251D01*
X01877Y00258D02*
Y00262D01*
X01858Y00253D02*
Y00305D01*
X01863Y0031*
X01958Y00338D02*
X02024Y00272D01*
Y00265D02*
Y00272D01*
X01607Y00077D02*
Y00103D01*
X01584Y00093D02*
X0159D01*
X01684Y00132D02*
X01707D01*
X01662Y00154D02*
X01684Y00132D01*
X01702Y00144D02*
X01725Y00167D01*
X01689Y00144D02*
X01702D01*
X01667Y00167D02*
X01689Y00144D01*
X01547Y00167D02*
X01667D01*
X01689Y00162D02*
X01696D01*
X017*
X01607Y00077D02*
X0162Y00064D01*
X01601Y0011D02*
X01607Y00103D01*
X01672Y00179D02*
X01689Y00162D01*
X01701Y00161D02*
X0172Y00179D01*
X01707Y00132D02*
X0173Y00154D01*
X017Y00162D02*
X01701Y00161D01*
X01713Y00264D02*
D01*
X01651D02*
X01713D01*
X01639Y00276D02*
X01651Y00264D01*
X0172Y00179D02*
X01734D01*
X0177Y00272D02*
X01775Y00267D01*
X01782Y00277D02*
X01787Y00272D01*
X01794Y00282D02*
X01799Y00277D01*
X01739Y00573D02*
Y00576D01*
X01736Y0057D02*
X01739Y00573D01*
X01687Y00517D02*
Y00574D01*
X01718Y00632D02*
Y00652D01*
X01708Y00662D02*
X01718Y00652D01*
X01621Y00508D02*
D01*
X01524Y00538D02*
X01525Y00537D01*
X01059Y00518D02*
Y00519D01*
Y00518D02*
X0106Y00517D01*
X01057Y00515D02*
X0106Y00517D01*
X01098Y00144D02*
X01119D01*
X0117Y00154D02*
X01185Y00139D01*
X0119Y00167D02*
X01194Y00163D01*
X0161Y00426D02*
Y00443D01*
X01663Y00522D02*
Y00544D01*
X02071Y00439D02*
X02086Y00453D01*
X01863Y0031D02*
Y00348D01*
X01871Y00356*
X02052Y00196D02*
Y00244D01*
X0205Y00245D02*
X02052Y00244D01*
X0206Y0037D02*
X02064Y00365D01*
Y00201D02*
Y00365D01*
X01811Y00286D02*
X01812Y00285D01*
X01782Y00277D02*
Y00307D01*
X01794Y00282D02*
Y00299D01*
X01811Y00286D02*
Y00289D01*
X01812Y00285D02*
X01816Y00289D01*
X01782Y00307D02*
X01786Y00311D01*
X01799Y00303D02*
Y00319D01*
X01794Y00299D02*
X01799Y00303D01*
X01786Y00311D02*
Y00359D01*
X01816Y00289D02*
X01829Y00276D01*
X01799Y00319D02*
X01814Y00334D01*
X01799Y0018D02*
X01814Y00165D01*
X01786Y00359D02*
X01816Y00389D01*
X01786Y00175D02*
X01798Y00164D01*
X01103Y00454D02*
X01116D01*
X01091Y00465D02*
Y00539D01*
X01107Y00473D02*
Y00541D01*
Y00473D02*
X01108Y00472D01*
X01091Y00465D02*
X01103Y00454D01*
X01079Y00453D02*
Y00529D01*
X01115Y00454D02*
X01134Y00473D01*
X01655Y00299D02*
X01681D01*
X01746Y00167D02*
X01774Y00195D01*
X01773Y00154D02*
X01791Y00137D01*
X0173Y00154D02*
X01773D01*
X01814Y00147D02*
Y00165D01*
X01805Y00137D02*
X01814Y00147D01*
X01791Y00137D02*
X01805D01*
X01798Y00153D02*
Y00164D01*
X01778Y00418D02*
X01781Y00421D01*
X0179Y0048D02*
X01838D01*
X01873Y00514*
X0161Y00443D02*
X01636Y00469D01*
X0162Y00356D02*
Y00368D01*
X01484Y0026D02*
X015Y00276D01*
X01595Y00234D02*
X01602Y00241D01*
X01584Y00201D02*
X01586Y00203D01*
X01584Y002D02*
Y00201D01*
X01725Y00167D02*
X01746D01*
X01441Y00303D02*
X01442Y00305D01*
X0159Y00111D02*
X01591Y0011D01*
X01601*
X0159Y00111D02*
Y00135D01*
X01556Y00065D02*
X01584Y00093D01*
X0152Y00065D02*
X01556D01*
X0149Y00096D02*
X0152Y00065D01*
X01106Y00178D02*
Y0022D01*
X0106Y00172D02*
X01071Y00161D01*
X01001Y00076D02*
X01272D01*
X00911Y00064D02*
X01294D01*
X01185Y00139D02*
X01215D01*
X0123Y00154D02*
X01291D01*
X01215Y00139D02*
X0123Y00154D01*
X01223Y00179D02*
X01226D01*
X01261Y00176D02*
Y00179D01*
Y00176D02*
X01267Y0017D01*
X01062Y004D02*
Y004D01*
X01062Y004D02*
X01062Y004D01*
X00999Y00419D02*
X01127D01*
X01055Y00431D02*
X01094D01*
X0105Y00436D02*
X01055Y00431D01*
X01131Y00414D02*
X01173D01*
X01127Y00419D02*
X01131Y00414D01*
X01094Y00431D02*
X01096Y00434D01*
X01103Y00326D02*
X0111D01*
X01119Y00335*
X01173*
X01334Y00652D02*
X01372D01*
X01377Y0064D02*
X01377Y00641D01*
X01366Y0064D02*
X01377D01*
X01361Y00635D02*
X01366Y0064D01*
X012Y00612D02*
Y00615D01*
X01178Y0059D02*
X012Y00612D01*
X0092Y00626D02*
X00928D01*
X00932Y00622D02*
X00985Y00568D01*
X00957Y00631D02*
X00959Y00633D01*
X01152Y00533D02*
X01173Y00513D01*
X01119Y00559D02*
X01127Y00566D01*
X01119Y00504D02*
Y00559D01*
X01062Y00568D02*
X01091Y00539D01*
X01066Y00542D02*
X01079Y00529D01*
X00879Y00445D02*
X00887Y00437D01*
X0089*
X0133Y00332D02*
X01334D01*
X0133D02*
D01*
X01442Y00305D02*
Y00305D01*
X00852Y00662D02*
X00864Y0065D01*
X00738Y00662D02*
X00852D01*
X00685Y00716D02*
X00738Y00662D01*
X00782Y0068D02*
X00798D01*
X00778Y00684D02*
X00782Y0068D01*
X0048Y00526D02*
Y0056D01*
X00661Y00465D02*
X00676Y00479D01*
X0064Y00465D02*
X00661D01*
X0062Y00417D02*
X00643D01*
X0062D02*
X0064Y00437D01*
Y00465*
X00619Y00558D02*
X00629D01*
X0066Y00527*
X02136Y00393D02*
X02146Y00383D01*
X0202Y00393D02*
X02136D01*
X02187Y00364D02*
Y00464D01*
X02016Y00514D02*
X02025Y00505D01*
Y0049D02*
Y00505D01*
X01983Y0033D02*
X02012Y00302D01*
X02025*
X01983Y0033D02*
Y00496D01*
X01983Y00497*
X02008*
X01997Y00514D02*
X02016D01*
X01981Y0053D02*
X01997Y00514D01*
X0202Y00393D02*
Y00485D01*
X02025Y0049*
X01496Y00453D02*
X01552D01*
X01736Y0057D02*
X01743Y00564D01*
X01774Y00674D02*
X01776D01*
X01785Y00664*
X01982Y00531D02*
Y00534D01*
X01981Y0053D02*
X01982Y00531D01*
X01768Y00548D02*
X01776D01*
X02087Y00666D02*
X02089Y00664D01*
X01891Y00666D02*
X02087D01*
X02144Y00672D02*
Y00716D01*
X02089Y00664D02*
X02136D01*
X01873Y00514D02*
Y00536D01*
X01867Y00542D02*
X01873Y00536D01*
X02052Y00412D02*
Y00448D01*
X01891Y00552D02*
Y00666D01*
Y00552D02*
X01897Y00546D01*
X01879Y00547D02*
X01885Y00541D01*
Y00489D02*
Y00541D01*
X01897Y00483D02*
Y00546D01*
X01913Y00554D02*
Y00565D01*
X01955Y00607*
X01646Y00688D02*
Y00716D01*
X01768Y00767D02*
X01788Y00748D01*
X01619Y00767D02*
X01768D01*
X016Y00749D02*
X01619Y00767D01*
X01788Y00688D02*
Y00748D01*
X01742Y00563D02*
X01743Y00564D01*
X018Y00514D02*
Y00531D01*
X01809Y0054*
X01834Y00555D02*
X0185Y00539D01*
X01772Y00521D02*
X01792Y00541D01*
Y00555*
X01578Y00766D02*
X01588Y00756D01*
X02083Y0061D02*
X02105D01*
X01516Y00572D02*
X01542D01*
X01565Y00336D02*
X01572Y00343D01*
X01351Y00635D02*
X01361D01*
X01367Y00665D02*
X01377Y00675D01*
X01329Y00665D02*
X01367D01*
X01362Y00677D02*
X014Y00716D01*
X01311Y00677D02*
X01362D01*
X01438Y00641D02*
X01445Y00648D01*
X01377Y00675D02*
X01402D01*
X01303Y00652D02*
X01306Y00655D01*
X01094Y00318D02*
X01103Y00326D01*
X01094Y00296D02*
Y00318D01*
Y00296D02*
X01095Y00295D01*
X01113Y00307D02*
X01113D01*
X0111Y00304D02*
X01113Y00307D01*
X01095Y00275D02*
Y00295D01*
X0111Y00304D02*
X01118Y00296D01*
X01173*
X01071Y00369D02*
X01097Y00394D01*
X01071Y00361D02*
Y00369D01*
X01092Y00555D02*
X01107Y00541D01*
X01119Y00504D02*
X01131Y00493D01*
X01173*
X01115Y00454D02*
X01116Y00454D01*
X00987Y00493D02*
Y00502D01*
X01057Y00474D02*
Y00515D01*
X01037Y00542D02*
X01066D01*
X01011Y00568D02*
X01037Y00542D01*
X01442Y00216D02*
Y00243D01*
X01355Y00329D02*
X01371D01*
X01382Y00302D02*
Y00323D01*
X01324Y00206D02*
Y00243D01*
X01292Y00138D02*
X01309Y00155D01*
X02046Y00116D02*
X02137D01*
X02146*
X02074Y00179D02*
X02137Y00116D01*
X02074Y00179D02*
Y00191D01*
X02064Y00201D02*
X02074Y00191D01*
X02059Y00166D02*
Y00189D01*
X02052Y00196D02*
X02059Y00189D01*
X02035Y00186D02*
Y00214D01*
Y00186D02*
X0204Y00181D01*
X02059Y00166D02*
X02061Y00163D01*
X02034Y00174D02*
X0204Y0018D01*
X0204Y00181D02*
X0204Y0018D01*
X01289Y0017D02*
X01299Y0018D01*
X01267Y0017D02*
X01289D01*
X01291Y00154D02*
X01304Y00167D01*
X01292Y00096D02*
Y00138D01*
X01272Y00076D02*
X01292Y00096D01*
X0096Y00173D02*
X00994Y0014D01*
X00643Y00417D02*
X00669Y00391D01*
Y00286D02*
Y00391D01*
X00665Y00282D02*
X00669Y00286D01*
X00552Y00282D02*
X00665D01*
X0043Y00189D02*
X00465Y00155D01*
X00888*
X00899Y00165*
X00922*
X00951Y00201D02*
X01036Y00116D01*
X00919Y00201D02*
X00951D01*
X00948Y00173D02*
X0096D01*
X00978Y00199D02*
X00982D01*
X01Y00221D02*
X01018Y00203D01*
X01036Y00116D02*
X01046D01*
X01958Y00338D02*
Y00356D01*
X01372Y00652D02*
X01372Y00653D01*
X01417*
X0132Y00638D02*
X01334Y00652D01*
X0132Y00655D02*
X01329Y00665D01*
X014Y00716D02*
X01446D01*
X01298Y00665D02*
X01311Y00677D01*
X01306Y00655D02*
X0132D01*
X01313Y00638D02*
X0132D01*
X01293Y00677D02*
X01332Y00716D01*
X01295Y00616D02*
X01449D01*
X01417Y00653D02*
X01434Y0067D01*
X01377Y00641D02*
X01438D01*
X01015Y00361D02*
X01023D01*
X01097Y00394D02*
X01173D01*
X0107Y00361D02*
X01071D01*
X0107D02*
X01071Y0036D01*
Y00306D02*
Y0036D01*
X01117Y00375D02*
X01173D01*
X01946Y00116D02*
X02046D01*
X01496Y00296D02*
X01564D01*
X01496Y00335D02*
X01545D01*
X01589Y0033D02*
X01623D01*
X01594Y00318D02*
X01609D01*
X00794Y00589D02*
X00822D01*
X00725Y00658D02*
X00794Y00589D01*
X0066Y00658D02*
X00725D01*
X00646Y00716D02*
X00685D01*
X00657Y00627D02*
Y00655D01*
X0066Y00658*
X00413Y00441D02*
Y00492D01*
X01332Y00716D02*
X01346D01*
X00881Y0065D02*
X00884Y00653D01*
X00864Y0065D02*
X00881D01*
X0092Y0057D02*
X00987Y00502D01*
X02173Y0018D02*
X02176D01*
X02136Y00664D02*
X02144Y00672D01*
X02094Y00687D02*
Y0074D01*
X02079Y00755D02*
X02094Y0074D01*
X01889Y00755D02*
X02079D01*
X0185Y00716D02*
X01889Y00755D01*
X01846Y00716D02*
X0185D01*
X01846Y00695D02*
Y00716D01*
X01872Y00476D02*
X01885Y00489D01*
X01877Y00464D02*
X01897Y00483D01*
X01857Y00476D02*
X01872D01*
X01838Y00456D02*
X01857Y00476D01*
X01838Y0045D02*
Y00456D01*
X01835Y00447D02*
X01838Y0045D01*
X01825Y00447D02*
X01835D01*
X01821Y00515D02*
X01825Y00512D01*
X0185Y00407D02*
Y00451D01*
X01863Y00464D02*
X01877D01*
X0185Y00451D02*
X01863Y00464D01*
X0185Y00351D02*
Y00371D01*
Y00351D02*
X0185Y00351D01*
Y00316D02*
Y00351D01*
X0185Y00316D02*
X0185Y00316D01*
X0185Y00315D02*
Y00316D01*
Y00407D02*
X0185Y00406D01*
Y00371D02*
Y00406D01*
X0185Y00371D02*
X0185Y00371D01*
X01842Y00306D02*
X0185Y00315D01*
X01765Y00546D02*
X01768Y00548D01*
X01687Y00517D02*
X01715Y00488D01*
X01755Y00535D02*
X01765Y00546D01*
X01246Y00529D02*
Y00566D01*
X01955Y00607D02*
X01979Y0063D01*
X01955Y00572D02*
Y00607D01*
X0185Y00538D02*
Y00539D01*
X01656Y00515D02*
X01663Y00522D01*
X01765Y00546D02*
D01*
X01828Y00306D02*
X01842D01*
X02144Y00716D02*
X02146D01*
X01872Y00356D02*
Y004D01*
Y00442*
X01871Y00443D02*
X01872Y00442D01*
Y00356D02*
X01914D01*
X01915Y00356*
X01871Y00356D02*
X01872D01*
X01829Y00258D02*
Y00276D01*
X01814Y00334D02*
X01824D01*
X01496Y00316D02*
X01496Y00315D01*
X01565Y00336D02*
X01566Y00336D01*
X02105Y00248D02*
X02173Y0018D01*
X01792Y00076D02*
Y00081D01*
Y00076D02*
D01*
X0162Y00064D02*
X01874D01*
X01696Y00081D02*
X017Y00076D01*
X01496Y00493D02*
X01498Y00495D01*
X01958Y00356D02*
Y00399D01*
X01915Y00356D02*
X01958D01*
X01915D02*
Y00399D01*
Y00443D02*
X01958D01*
X01915Y00399D02*
Y00443D01*
X01096Y00434D02*
X01173D01*
X00956Y00767D02*
X01083D01*
X0109Y0076*
X00946Y00756D02*
X00956Y00767D01*
X0109Y00687D02*
Y0076D01*
X01296Y00766D02*
X01578D01*
X01246Y00716D02*
X01296Y00766D01*
X00778Y00684D02*
D01*
X00746Y00716D02*
X00778Y00684D01*
X01004Y00687D02*
X01006Y00689D01*
X00999Y00687D02*
X01004D01*
X00965Y00558D02*
Y00572D01*
X00935Y00601D02*
X00965Y00572D01*
X00985Y00568D02*
X01004D01*
X01037Y00465D02*
X0105Y00452D01*
X01037Y00465D02*
Y00487D01*
X0105Y00436D02*
Y00452D01*
X01032Y00494D02*
X01038Y00487D01*
X01037Y00487D02*
X01038Y00487D01*
X01004Y00568D02*
X01011D01*
X00995Y00494D02*
X01032D01*
X00898Y00601D02*
X00935D01*
X01134Y00473D02*
X01173D01*
X01105Y00345D02*
X01115Y00355D01*
X01226Y00243D02*
X01228Y00245D01*
X0092Y0057D02*
Y00571D01*
X01072Y00254D02*
X01074D01*
X01095Y00275*
X01115Y00355D02*
X01173D01*
X01199Y0022D02*
X01208Y00211D01*
X01107Y0022D02*
X01199D01*
X01106Y0022D02*
X01107Y0022D01*
X01074Y00203D02*
Y00253D01*
X00632Y00193D02*
X00889D01*
X01546Y00116D02*
Y00125D01*
X00994Y00083D02*
X01001Y00076D01*
X00994Y00083D02*
Y0014D01*
X0043Y00189D02*
Y00197D01*
X01226Y00206D02*
Y00243D01*
X00728Y00214D02*
X00752Y00238D01*
X01294Y00064D02*
X01346Y00116D01*
X01816Y00389D02*
X01824D01*
X009Y00075D02*
Y00083D01*
Y00075D02*
X00911Y00064D01*
X01178Y00566D02*
Y0059D01*
X01173Y00493D02*
D01*
Y00513D02*
X01226Y00566D01*
X00852Y0048D02*
Y00487D01*
Y0048D02*
X00879Y00453D01*
Y00445D02*
Y00453D01*
X00886Y00487D02*
X00886Y00487D01*
D01*
X01072Y00254D02*
X01074Y00253D01*
X01006Y00689D02*
Y00748D01*
X01002D02*
X01006D01*
X00946Y00716D02*
Y00756D01*
X00897Y00695D02*
X00959Y00633D01*
X01039Y00661D02*
X0104D01*
X00897Y00695D02*
Y00752D01*
X00887Y00762D02*
X00897Y00752D01*
X00455Y00762D02*
X00887D01*
X00446Y00753D02*
X00455Y00762D01*
X00246Y00716D02*
X00346D01*
X01116Y00567D02*
X01118Y00566D01*
X01055Y00568D02*
X01062D01*
X00446Y00716D02*
Y00753D01*
G54D64*
X00822Y00581D02*
Y00589D01*
X0076Y00407D02*
Y00472D01*
X00299Y0062D02*
X00341D01*
X00292Y00614D02*
X00299Y0062D01*
X00464D02*
X00473Y0063D01*
X0026Y00441D02*
X00307D01*
X0026D02*
D01*
X00804Y00433D02*
X00835Y00402D01*
X00804Y00433D02*
Y00472D01*
X00835Y00402D02*
X00881D01*
X00988Y00407D02*
X00999Y00419D01*
X00914Y00407D02*
X00988D01*
X00852Y00432D02*
X00866Y00418D01*
X00899*
X00899Y00419*
X00881Y00402D02*
X00891Y00393D01*
X00899Y00419D02*
X00903D01*
X00835Y0064D02*
Y0064D01*
Y0064D02*
X00838Y00637D01*
X00281Y00572D02*
X00334D01*
X00234Y00618D02*
X00281Y00572D01*
X00596Y00527D02*
X00609D01*
X0057Y00553D02*
X00596Y00527D01*
X0056Y00496D02*
X00588D01*
X0054Y00515D02*
X0056Y00496D01*
X00864Y00361D02*
X01015D01*
X00325Y0049D02*
Y00517D01*
X00312Y00477D02*
X00325Y0049D01*
X01016Y00255D02*
Y00306D01*
X01018Y00202D02*
X01018Y00203D01*
X00759Y00472D02*
X0076Y00472D01*
X00829Y00326D02*
X00864Y00361D01*
X00891Y00393D02*
X00893D01*
X00903Y00419D02*
X00914Y00407D01*
X00734Y00264D02*
Y00514D01*
X00712Y00576D02*
Y00627D01*
Y00576D02*
X00747Y00541D01*
X00822Y00621D02*
X00838Y00637D01*
X00218Y00688D02*
X00246Y00716D01*
X00218Y0065D02*
Y00688D01*
X00274Y00659D02*
X00553D01*
X00234Y00618D02*
X00274Y00659D01*
X00822Y00589D02*
Y00621D01*
X00553Y00659D02*
X00566Y00645D01*
X00734Y00514D02*
X00754Y00534D01*
X00578Y00187D02*
X00601Y00211D01*
Y00236*
X00516Y00307D02*
X0054Y00331D01*
X00516Y00234D02*
Y00307D01*
X00634Y00627D02*
X00657D01*
X006Y00592D02*
X00634Y00627D01*
X00527Y00592D02*
X006D01*
X01016Y00255D02*
X01017Y00254D01*
X00601Y00236D02*
X00706D01*
X00734Y00264*
X00747Y00527D02*
X00754Y00534D01*
X00822*
X00515Y00541D02*
Y00553D01*
Y00541D02*
X0054Y00515D01*
X0039Y00297D02*
X0043Y00257D01*
Y00252D02*
Y00257D01*
X00467Y00478D02*
X00503D01*
X0054Y00515*
X00481Y00331D02*
X0054D01*
X00481Y00198D02*
X00516Y00234D01*
X00489Y00262D02*
Y00292D01*
X00481Y00253D02*
X00489Y00262D01*
X00498Y00403D02*
X00502Y00399D01*
X00467Y00403D02*
X00498D01*
X00502Y00399D02*
X00514D01*
X00426Y00331D02*
Y00347D01*
X00168Y002D02*
X00324D01*
X00131Y00163D02*
X00168Y002D01*
X00131Y00158D02*
Y00163D01*
X00257Y00268D02*
X00297D01*
X00315Y00287*
X00379Y002D02*
Y00243D01*
X00336Y00287D02*
X00379Y00243D01*
X00336Y00287D02*
Y00287D01*
X00315D02*
X00336D01*
X00747Y00527D02*
Y00541D01*
X00566Y0063D02*
Y00645D01*
X00511Y00608D02*
X00527Y00592D01*
X00511Y00608D02*
Y0063D01*
X00473D02*
X00511D01*
X00312Y00471D02*
Y00477D01*
X00307Y00466D02*
X00312Y00471D01*
X0026Y00466D02*
X00307D01*
X0054Y00331D02*
X00597D01*
X00601Y00326*
X00345Y00403D02*
X00376D01*
X00332Y00391D02*
X00345Y00403D01*
G54D65*
X00246Y00116D03*
Y00716D03*
G54D66*
X00346Y00116D03*
X00446D03*
X00546D03*
X00646D03*
X00746D03*
X00846D03*
X00946D03*
X01046D03*
X01146D03*
X01246D03*
X01346D03*
X01446D03*
X01546D03*
X01646D03*
X01746D03*
X01846D03*
X01946D03*
X02046D03*
X02146D03*
X00346Y00716D03*
X00446D03*
X00546D03*
X00646D03*
X00746D03*
X00846D03*
X00946D03*
X01046D03*
X01146D03*
X01246D03*
X01346D03*
X01446D03*
X01546D03*
X01646D03*
X01746D03*
X01846D03*
X01946D03*
X02046D03*
X02146D03*
G54D67*
X00155Y0058D03*
Y00251D03*
G54D68*
X00273Y00328D03*
Y00503D03*
G54D69*
X01879Y00153D03*
X01231Y00399D03*
X01778Y00383D03*
X01779Y00413D03*
X01621Y00537D03*
X01603Y005D03*
X01557Y00485D03*
X00911Y00537D03*
X00975Y00259D03*
X01363Y00486D03*
X01315Y00452D03*
X01429Y00379D03*
X01348Y00298D03*
X01323Y00298D03*
X0133Y00332D03*
X01228Y00372D03*
X01342Y00369D03*
X01158Y00628D03*
X012Y00622D03*
X01228Y00611D03*
X01468Y00209D03*
X01758Y00254D03*
X01712Y00262D03*
X00866Y00234D03*
X00363Y00526D03*
X02159Y00595D03*
X01187Y00189D03*
X01134Y00183D03*
X01229Y00293D03*
X01421Y00306D03*
X01522Y00659D03*
X01538Y00639D03*
X0157Y00656D03*
X01621Y00658D03*
X01557Y0061D03*
X01524Y00542D03*
X01483Y00607D03*
X01475Y00559D03*
X01424Y0048D03*
X01433Y00434D03*
X01558Y00526D03*
X01684Y00576D03*
X01494Y0054D03*
X01593Y00471D03*
X01593Y00378D03*
X0164Y00431D03*
X01741Y00636D03*
X01494Y00686D03*
X00758Y00362D03*
X0151Y00167D03*
X0154Y00257D03*
X0149Y00137D03*
X01535Y00179D03*
X01561Y00184D03*
X01556Y00211D03*
X01567Y00267D03*
X01635Y00309D03*
X01566Y00298D03*
Y00332D03*
X01639Y00283D03*
X01729Y00438D03*
X01704Y0045D03*
X01765Y0044D03*
X0179Y00479D03*
X01772Y0051D03*
X01637Y00383D03*
X02025Y00537D03*
X02054Y00496D03*
X02099Y00541D03*
X01865Y00228D03*
X01883Y00195D03*
X01904Y00259D03*
X01877Y00262D03*
X02024Y00265D03*
X0159Y00093D03*
X01696Y00162D03*
X01739Y00576D03*
X01059Y00519D03*
X01194Y00163D03*
X01811Y00289D03*
X01108Y00472D03*
X01798Y00153D03*
X01584Y002D03*
X01106Y00178D03*
X01261Y00179D03*
X01062Y004D03*
X01442Y00305D03*
X00676Y00479D03*
X0064Y00465D03*
X02071Y00439D03*
X02135Y0047D03*
X02163Y00361D03*
X01774Y00674D03*
X01982Y00534D03*
X01776Y00548D03*
X02052Y00419D03*
X01913Y00554D03*
X01557Y00375D03*
X01402Y00675D03*
X01351Y00635D03*
X01113Y00307D03*
X01057Y00474D03*
X01084Y00448D03*
X02035Y00214D03*
X02061Y00163D03*
X02054Y00375D03*
X00881Y00172D03*
X00948Y00173D03*
X00922Y00165D03*
X00978Y00199D03*
X01313Y00638D03*
X01117Y00375D03*
X02176Y0018D03*
X02094Y00687D03*
X02068Y00543D03*
X0185Y00538D03*
X01828Y00306D03*
X02146Y00383D03*
X01792Y00081D03*
X01696D03*
X0106Y00172D03*
X00728Y00214D03*
X00891Y00466D03*
G54D70*
X01042Y00621D03*
X00883Y0053D03*
X0109Y00646D03*
X01118Y00638D03*
X01002Y00631D03*
X00974Y00607D03*
X00955Y00238D03*
X00905Y00238D03*
X0063Y00185D03*
X00307Y00441D03*
X01583Y00431D03*
X00501Y00516D03*
X00886Y00495D03*
X00804Y00472D03*
X01602Y00299D03*
X01226Y00179D03*
X01105Y00345D03*
X01068Y00628D03*
X00957Y00631D03*
X0089Y00437D03*
X00798Y0068D03*
X00835Y0064D03*
X0048Y0056D03*
X00619Y00558D03*
X00609Y00527D03*
X00588Y00496D03*
X02133Y005D03*
X02127Y00546D03*
X02206Y00578D03*
X02213Y00237D03*
X02213Y00381D03*
X02025Y00302D03*
X02008Y00497D03*
X02172Y00666D03*
X02173Y00633D03*
X02213Y0041D03*
X02215Y00347D03*
X02215Y00137D03*
X02212Y00202D03*
Y00274D03*
X02207Y00757D03*
Y00726D03*
Y00688D03*
Y00653D03*
X02207Y00613D03*
X02212Y00478D03*
X02213Y00444D03*
X02215Y00072D03*
Y00103D03*
X02214Y00169D03*
X02215Y0031D03*
X00919Y00201D03*
X00325Y00517D03*
X00884Y00653D03*
X00861Y00572D03*
X01007Y00668D03*
X00965Y00558D03*
X01098Y00144D03*
X00889Y00193D03*
X009Y00083D03*
X0076Y00407D03*
X00893Y00393D03*
X01006Y00748D03*
X01039Y00661D03*
X00218Y0065D03*
X00292Y00614D03*
X00759Y00472D03*
X00578Y00187D03*
X0039Y00297D03*
X00489Y00292D03*
X00514Y00399D03*
X00171Y00141D03*
X00338Y00338D03*
X00257Y00268D03*
X00332Y00391D03*
G54D71*
X0159Y00135D03*
G54D72*
X01872Y004D03*
Y00356D03*
X01915Y00356D03*
X01958D03*
X01915Y00399D03*
X01958D03*
X01871Y00443D03*
X01915D03*
X01958D03*
M02*