%FSTAX23Y23*%
%MOIN*%
%SFA1B1*%

%IPPOS*%
%ADD106C,0.003900*%
%ADD107C,0.002000*%
%LNpcb1-1*%
%LPD*%
G54D106*
X00165Y00654D02*
D01*
X00164Y00656*
X00164Y00658*
X00164Y0066*
X00163Y00662*
X00163Y00664*
X00162Y00666*
X00161Y00668*
X0016Y00669*
X00159Y00671*
X00158Y00673*
X00156Y00674*
X00155Y00676*
X00153Y00677*
X00151Y00678*
X0015Y00679*
X00148Y0068*
X00146Y00681*
X00144Y00682*
X00142Y00682*
X0014Y00683*
X00138Y00683*
X00136Y00683*
X00134*
X00132Y00683*
X0013Y00683*
X00128Y00682*
X00126Y00682*
X00124Y00681*
X00122Y0068*
X0012Y00679*
X00119Y00678*
X00117Y00677*
X00115Y00676*
X00114Y00674*
X00112Y00673*
X00111Y00671*
X0011Y00669*
X00109Y00668*
X00108Y00666*
X00107Y00664*
X00107Y00662*
X00106Y0066*
X00106Y00658*
X00106Y00656*
X00106Y00654*
X00106Y00652*
X00106Y0065*
X00106Y00648*
X00107Y00646*
X00107Y00644*
X00108Y00642*
X00109Y0064*
X0011Y00638*
X00111Y00636*
X00112Y00635*
X00114Y00633*
X00115Y00632*
X00117Y00631*
X00119Y00629*
X0012Y00628*
X00122Y00627*
X00124Y00626*
X00126Y00626*
X00128Y00625*
X0013Y00625*
X00132Y00624*
X00134Y00624*
X00136*
X00138Y00624*
X0014Y00625*
X00142Y00625*
X00144Y00626*
X00146Y00626*
X00148Y00627*
X0015Y00628*
X00151Y00629*
X00153Y00631*
X00155Y00632*
X00156Y00633*
X00158Y00635*
X00159Y00636*
X0016Y00638*
X00161Y0064*
X00162Y00642*
X00163Y00644*
X00163Y00646*
X00164Y00648*
X00164Y0065*
X00164Y00652*
X00165Y00654*
X00169Y0073D02*
D01*
X00169Y00732*
X00169Y00734*
X00168Y00736*
X00168Y00738*
X00167Y0074*
X00166Y00742*
X00165Y00744*
X00164Y00746*
X00163Y00748*
X00162Y00749*
X00161Y00751*
X00159Y00752*
X00157Y00753*
X00156Y00755*
X00154Y00756*
X00152Y00757*
X0015Y00758*
X00148Y00758*
X00146Y00759*
X00144Y00759*
X00142Y0076*
X0014Y0076*
X00138*
X00136Y0076*
X00134Y00759*
X00132Y00759*
X0013Y00758*
X00128Y00758*
X00126Y00757*
X00125Y00756*
X00123Y00755*
X00121Y00753*
X0012Y00752*
X00118Y00751*
X00117Y00749*
X00115Y00748*
X00114Y00746*
X00113Y00744*
X00112Y00742*
X00112Y0074*
X00111Y00738*
X0011Y00736*
X0011Y00734*
X0011Y00732*
X0011Y0073*
X0011Y00728*
X0011Y00726*
X0011Y00724*
X00111Y00722*
X00112Y0072*
X00112Y00718*
X00113Y00716*
X00114Y00715*
X00115Y00713*
X00117Y00711*
X00118Y0071*
X0012Y00708*
X00121Y00707*
X00123Y00706*
X00125Y00705*
X00126Y00704*
X00128Y00703*
X0013Y00702*
X00132Y00702*
X00134Y00701*
X00136Y00701*
X00138Y00701*
X0014*
X00142Y00701*
X00144Y00701*
X00146Y00702*
X00148Y00702*
X0015Y00703*
X00152Y00704*
X00154Y00705*
X00156Y00706*
X00157Y00707*
X00159Y00708*
X00161Y0071*
X00162Y00711*
X00163Y00713*
X00164Y00715*
X00165Y00716*
X00166Y00718*
X00167Y0072*
X00168Y00722*
X00168Y00724*
X00169Y00726*
X00169Y00728*
X00169Y0073*
X00365Y00287D02*
D01*
X00365Y00289*
X00365Y00291*
X00365Y00293*
X00364Y00295*
X00363Y00297*
X00363Y00299*
X00362Y00301*
X00361Y00303*
X0036Y00304*
X00358Y00306*
X00357Y00307*
X00355Y00309*
X00354Y0031*
X00352Y00311*
X0035Y00312*
X00349Y00313*
X00347Y00314*
X00345Y00315*
X00343Y00316*
X00341Y00316*
X00339Y00316*
X00337Y00316*
X00335*
X00333Y00316*
X00331Y00316*
X00329Y00316*
X00327Y00315*
X00325Y00314*
X00323Y00313*
X00321Y00312*
X00319Y00311*
X00318Y0031*
X00316Y00309*
X00314Y00307*
X00313Y00306*
X00312Y00304*
X00311Y00303*
X0031Y00301*
X00309Y00299*
X00308Y00297*
X00307Y00295*
X00307Y00293*
X00306Y00291*
X00306Y00289*
X00306Y00287*
X00306Y00285*
X00306Y00283*
X00307Y00281*
X00307Y00279*
X00308Y00277*
X00309Y00275*
X0031Y00273*
X00311Y00271*
X00312Y0027*
X00313Y00268*
X00314Y00266*
X00316Y00265*
X00318Y00264*
X00319Y00262*
X00321Y00261*
X00323Y0026*
X00325Y0026*
X00327Y00259*
X00329Y00258*
X00331Y00258*
X00333Y00258*
X00335Y00257*
X00337*
X00339Y00258*
X00341Y00258*
X00343Y00258*
X00345Y00259*
X00347Y0026*
X00349Y0026*
X0035Y00261*
X00352Y00262*
X00354Y00264*
X00355Y00265*
X00357Y00266*
X00358Y00268*
X0036Y0027*
X00361Y00271*
X00362Y00273*
X00363Y00275*
X00363Y00277*
X00364Y00279*
X00365Y00281*
X00365Y00283*
X00365Y00285*
X00365Y00287*
X0111Y00383D02*
Y00423D01*
X0109Y00403D02*
X0113D01*
X01334Y00385D02*
Y00424D01*
X01315Y00404D02*
X01354D01*
X01512Y00431D02*
X01551D01*
X01531Y00412D02*
Y00451D01*
X00779Y00556D02*
Y00591D01*
X00762Y00574D02*
X00797D01*
X0197Y00189D02*
Y00226D01*
X01951Y00207D02*
X01988D01*
X01744Y002D02*
Y00237D01*
X01725Y00218D02*
X01762D01*
X01622Y00218D02*
Y00255D01*
X01604Y00237D02*
X01641D01*
X02132Y00403D02*
Y0044D01*
X02113Y00421D02*
X02151D01*
X02153Y00283D02*
Y00318D01*
X02136Y00301D02*
X02171D01*
X02125Y002D02*
Y00237D01*
X02106Y00218D02*
X02144D01*
X01915Y0038D02*
Y00419D01*
X01895Y00399D02*
X01934D01*
X0189Y00592D02*
Y00632D01*
X0187Y00612D02*
X0191D01*
X01384Y00223D02*
X01422D01*
X01403Y00204D02*
Y00242D01*
X01309Y00197D02*
X01344D01*
X01326Y00179D02*
Y00215D01*
X00761Y00633D02*
X00796D01*
X00779Y00616D02*
Y00651D01*
X0079Y0031D02*
X00825D01*
X00807Y00292D02*
Y00328D01*
X00535Y00589D02*
Y00629D01*
X00515Y00609D02*
X00555D01*
X00655Y00589D02*
Y00629D01*
X00635Y00609D02*
X00674D01*
X00435Y00343D02*
X00474D01*
X00454Y00323D02*
Y00363D01*
X0079Y0041D02*
X0083D01*
X0081Y0039D02*
Y00429D01*
X00787Y00507D02*
X00822D01*
X00804Y00489D02*
Y00524D01*
X02096Y00285D02*
Y00321D01*
X02079Y00303D02*
X02114D01*
X01825Y00212D02*
Y00249D01*
X01806Y0023D02*
X01844D01*
X02085Y00429D02*
X02124D01*
X02105Y00409D02*
Y00448D01*
X00121Y00129D02*
X0014D01*
X00131Y0012D02*
Y00139D01*
X01937Y00427D02*
X01976D01*
X01957Y00407D02*
Y00446D01*
X01132Y00575D02*
X0117D01*
X01151Y00556D02*
Y00594D01*
X01011Y00568D02*
X01049D01*
X0103Y0055D02*
Y00587D01*
X01825Y00463D02*
Y00495D01*
X01809Y00479D02*
X0184D01*
X00984Y00436D02*
Y00476D01*
X00965Y00456D02*
X01004D01*
X00703Y00507D02*
Y00546D01*
X00684Y00527D02*
X00723D01*
X00402Y00441D02*
X00441D01*
X00422Y00421D02*
Y00461D01*
X00692Y00322D02*
X00731D01*
X00711Y00303D02*
Y00342D01*
X00194Y00415D02*
X00234D01*
X00214Y00396D02*
Y00435D01*
G54D107*
X00905Y00608D02*
X01315D01*
X00905Y00198D02*
X01315D01*
Y00608*
X00905Y00198D02*
Y00608D01*
X01112Y00182D02*
X01557D01*
X01112Y00627D02*
X01557D01*
Y00182D02*
Y00627D01*
X01112Y00182D02*
Y00627D01*
X01702Y00323D02*
Y0054D01*
X01361Y00323D02*
Y0054D01*
X01702*
X01361Y00323D02*
X01702D01*
X00738Y00552D02*
X00821D01*
X00738Y00595D02*
X00821D01*
X00738Y00552D02*
Y00595D01*
X00821Y00552D02*
Y00595D01*
X01419Y00594D02*
Y00631D01*
X01401Y00613D02*
X01438D01*
X01374Y00634D02*
X01465D01*
X01374Y00591D02*
X01465D01*
Y00634*
X01374Y00591D02*
Y00634D01*
X01924Y00231D02*
X02015D01*
X01924Y00184D02*
X02015D01*
Y00231*
X01924Y00184D02*
Y00231D01*
X01698Y00242D02*
X01789D01*
X01698Y00195D02*
X01789D01*
Y00242*
X01698Y00195D02*
Y00242D01*
X01577Y00213D02*
X01668D01*
X01577Y0026D02*
X01668D01*
X01577Y00213D02*
Y0026D01*
X01668Y00213D02*
Y0026D01*
X02087Y00445D02*
X02177D01*
X02087Y00398D02*
X02177D01*
Y00445*
X02087Y00398D02*
Y00445D01*
X02132Y00259D02*
X02175D01*
X02132Y00342D02*
X02175D01*
Y00259D02*
Y00342D01*
X02132Y00259D02*
Y00342D01*
X0208Y00242D02*
X0217D01*
X0208Y00195D02*
X0217D01*
Y00242*
X0208Y00195D02*
Y00242D01*
X01977Y00606D02*
X02014D01*
X01996Y00587D02*
Y00625D01*
X02017Y00561D02*
Y00651D01*
X01974Y00561D02*
Y00651D01*
Y00561D02*
X02017D01*
X01974Y00651D02*
X02017D01*
X02026Y00606D02*
X02063D01*
X02044Y00587D02*
Y00625D01*
X02066Y00561D02*
Y00651D01*
X02023Y00561D02*
Y00651D01*
Y00561D02*
X02066D01*
X02023Y00651D02*
X02066D01*
X02192Y0051D02*
Y00547D01*
X02173Y00528D02*
X02211D01*
X02147Y0055D02*
X02237D01*
X02147Y00507D02*
X02237D01*
Y0055*
X02147Y00507D02*
Y0055D01*
X0178Y00265D02*
X02049D01*
X0178Y00534D02*
X02049D01*
X0178Y00265D02*
Y00534D01*
X02049Y00265D02*
Y00534D01*
X01771Y00611D02*
X01808D01*
X01789Y00592D02*
Y0063D01*
X01768Y00566D02*
Y00656D01*
X01811Y00566D02*
Y00656D01*
X01768D02*
X01811D01*
X01768Y00566D02*
X01811D01*
X01937Y00573D02*
Y00652D01*
X01843Y00573D02*
X01937D01*
X01843D02*
Y00652D01*
X01937*
X01379Y00178D02*
Y00268D01*
X01427Y00178D02*
Y00268D01*
X01379D02*
X01427D01*
X01379Y00178D02*
X01427D01*
X01285Y00176D02*
Y00219D01*
X01368Y00176D02*
Y00219D01*
X01285Y00176D02*
X01368D01*
X01285Y00219D02*
X01368D01*
X00737Y00612D02*
Y00655D01*
X0082Y00612D02*
Y00655D01*
X00737Y00612D02*
X0082D01*
X00737Y00655D02*
X0082D01*
X00893Y00592D02*
Y00629D01*
X00875Y00611D02*
X00912D01*
X00848Y00632D02*
X00939D01*
X00848Y00589D02*
X00939D01*
Y00632*
X00848Y00589D02*
Y00632D01*
X00692Y00481D02*
X00729D01*
X00711Y00462D02*
Y00499D01*
X00689Y00435D02*
Y00526D01*
X00732Y00435D02*
Y00526D01*
X00689D02*
X00732D01*
X00689Y00435D02*
X00732D01*
X00674Y00342D02*
X00711D01*
X00692Y00323D02*
Y0036D01*
X00714Y00296D02*
Y00387D01*
X00671Y00296D02*
Y00387D01*
Y00296D02*
X00714D01*
X00671Y00387D02*
X00714D01*
X00766Y00289D02*
Y00332D01*
X00849Y00289D02*
Y00332D01*
X00766Y00289D02*
X00849D01*
X00766Y00332D02*
X00849D01*
X00418Y00589D02*
Y00626D01*
X00399Y00607D02*
X00436D01*
X00372Y00629D02*
X00463D01*
X00372Y00586D02*
X00463D01*
Y00629*
X00372Y00586D02*
Y00629D01*
X0048Y00578D02*
X0059D01*
X0048Y0064D02*
X0059D01*
X0048Y00578D02*
Y0064D01*
X0059Y00578D02*
Y0064D01*
X006D02*
X0071D01*
X006Y00578D02*
X0071D01*
Y0064*
X006Y00578D02*
Y0064D01*
X00596Y00172D02*
Y00514D01*
X00313Y00172D02*
Y00514D01*
Y00172D02*
X00596D01*
X00313Y00514D02*
X00596D01*
X00779Y00363D02*
X00842D01*
X00779D02*
Y00457D01*
X00842*
Y00363D02*
Y00457D01*
X00763Y00485D02*
Y00528D01*
X00846Y00485D02*
Y00528D01*
X00763Y00485D02*
X00846D01*
X00763Y00528D02*
X00846D01*
X02075Y00344D02*
X02118D01*
X02075Y00262D02*
X02118D01*
X02075D02*
Y00344D01*
X02118Y00262D02*
Y00344D01*
X00397Y00179D02*
Y00222D01*
X00307Y00179D02*
Y00222D01*
Y00179D02*
X00397D01*
X00307Y00222D02*
X00397D01*
X00333Y002D02*
X00371D01*
X00352Y00182D02*
Y00219D01*
X01802Y00185D02*
X01849D01*
X01802Y00276D02*
X01849D01*
X01802Y00185D02*
Y00276D01*
X01849Y00185D02*
Y00276D01*
X02178Y00201D02*
Y00656D01*
X02032Y00201D02*
X02178D01*
X02032Y00656D02*
X02178D01*
X02032Y00201D02*
Y00656D01*
X00111Y00174D02*
X0015D01*
Y00085D02*
Y00174D01*
X00111Y00085D02*
X0015D01*
X00111D02*
Y00174D01*
X02029Y00199D02*
Y00654D01*
X01884Y00199D02*
X02029D01*
X01884Y00654D02*
X02029D01*
X01884Y00199D02*
Y00654D01*
X008Y00607D02*
X00843D01*
X008Y00516D02*
X00843D01*
Y00607*
X008Y00516D02*
Y00607D01*
X00822Y00543D02*
Y0058D01*
X00803Y00562D02*
X0084D01*
X01802Y00407D02*
X01845D01*
X01802Y00316D02*
X01845D01*
Y00407*
X01802Y00316D02*
Y00407D01*
X01824Y00343D02*
Y0038D01*
X01805Y00361D02*
X01842D01*
X01756Y00276D02*
Y00319D01*
X01665Y00276D02*
Y00319D01*
Y00276D02*
X01756D01*
X01665Y00319D02*
X01756D01*
X01692Y00298D02*
X01729D01*
X01711Y00279D02*
Y00316D01*
X01661Y00185D02*
Y00228D01*
X01752Y00185D02*
Y00228D01*
X01661D02*
X01752D01*
X01661Y00185D02*
X01752D01*
X01688Y00206D02*
X01725D01*
X01706Y00188D02*
Y00225D01*
X01733Y00519D02*
Y00563D01*
X01642Y00519D02*
Y00563D01*
Y00519D02*
X01733D01*
X01642Y00563D02*
X01733D01*
X01669Y00541D02*
X01706D01*
X01688Y00522D02*
Y0056D01*
X01741Y00611D02*
Y00654D01*
X01651Y00611D02*
Y00654D01*
Y00611D02*
X01741D01*
X01651Y00654D02*
X01741D01*
X01677Y00633D02*
X01715D01*
X01696Y00614D02*
Y00651D01*
X00996Y00336D02*
Y00379D01*
X01087Y00336D02*
Y00379D01*
X00996D02*
X01087D01*
X00996Y00336D02*
X01087D01*
X01023Y00357D02*
X0106D01*
X01041Y00339D02*
Y00376D01*
X00998Y0028D02*
Y00324D01*
X01089Y0028D02*
Y00324D01*
X00998D02*
X01089D01*
X00998Y0028D02*
X01089D01*
X01025Y00302D02*
X01062D01*
X01044Y00283D02*
Y00321D01*
X0109Y00233D02*
Y00276D01*
X01Y00233D02*
Y00276D01*
Y00233D02*
X0109D01*
X01Y00276D02*
X0109D01*
X01026Y00254D02*
X01064D01*
X01045Y00236D02*
Y00273D01*
X01001Y00181D02*
Y00225D01*
X01091Y00181D02*
Y00225D01*
X01001D02*
X01091D01*
X01001Y00181D02*
X01091D01*
X01027Y00203D02*
X01065D01*
X01046Y00184D02*
Y00222D01*
X01718Y00416D02*
X01761D01*
X01718Y00325D02*
X01761D01*
Y00416*
X01718Y00325D02*
Y00416D01*
X0174Y00352D02*
Y00389D01*
X01721Y0037D02*
X01759D01*
X01663Y00325D02*
X01706D01*
X01663Y00415D02*
X01706D01*
X01663Y00325D02*
Y00415D01*
X01706Y00325D02*
Y00415D01*
X01684Y00351D02*
Y00389D01*
X01665Y0037D02*
X01703D01*
X01196Y00552D02*
Y00599D01*
X01106Y00552D02*
Y00599D01*
Y00552D02*
X01196D01*
X01106Y00599D02*
X01196D01*
X00985Y00545D02*
Y00592D01*
X01075Y00545D02*
Y00592D01*
X00985D02*
X01075D01*
X00985Y00545D02*
X01075D01*
X01733Y00466D02*
Y0051D01*
X01642Y00466D02*
Y0051D01*
Y00466D02*
X01733D01*
X01642Y0051D02*
X01733D01*
X01669Y00488D02*
X01706D01*
X01688Y00469D02*
Y00507D01*
X01805Y00531D02*
X01844D01*
Y00427D02*
Y00531D01*
X01805Y00427D02*
Y00531D01*
Y00427D02*
X01844D01*
X01041Y00385D02*
Y00527D01*
X00927Y00385D02*
X01041D01*
X00927Y00527D02*
X01041D01*
X00927Y00385D02*
Y00527D01*
X00898Y00644D02*
X00942D01*
X00898Y00553D02*
X00942D01*
Y00644*
X00898Y00553D02*
Y00644D01*
X0092Y0058D02*
Y00617D01*
X00901Y00598D02*
X00939D01*
X00831Y00505D02*
X00874D01*
X00831Y00415D02*
X00874D01*
Y00505*
X00831Y00415D02*
Y00505D01*
X00852Y00441D02*
Y00478D01*
X00834Y0046D02*
X00871D01*
X00639Y00605D02*
Y00648D01*
X00729Y00605D02*
Y00648D01*
X00639D02*
X00729D01*
X00639Y00605D02*
X00729D01*
X00665Y00627D02*
X00703D01*
X00684Y00608D02*
Y00645D01*
X00494Y00608D02*
Y00652D01*
X00584Y00608D02*
Y00652D01*
X00494D02*
X00584D01*
X00494Y00608D02*
X00584D01*
X0052Y0063D02*
X00558D01*
X00539Y00611D02*
Y00649D01*
X0031Y00639D02*
X00353D01*
X0031Y00548D02*
X00353D01*
Y00639*
X0031Y00548D02*
Y00639D01*
X00332Y00575D02*
Y00612D01*
X00313Y00593D02*
X00351D01*
X00365Y00639D02*
X00409D01*
X00365Y00549D02*
X00409D01*
Y00639*
X00365Y00549D02*
Y00639D01*
X00387Y00575D02*
Y00613D01*
X00368Y00594D02*
X00406D01*
X00418Y0064D02*
X00461D01*
X00418Y0055D02*
X00461D01*
Y0064*
X00418Y0055D02*
Y0064D01*
X0044Y00576D02*
Y00614D01*
X00421Y00595D02*
X00458D01*
X00409Y00309D02*
Y00352D01*
X00499Y00309D02*
Y00352D01*
X00409D02*
X00499D01*
X00409Y00309D02*
X00499D01*
X00435Y00331D02*
X00473D01*
X00454Y00312D02*
Y00349D01*
X00497Y00531D02*
Y00575D01*
X00587Y00531D02*
Y00575D01*
X00497D02*
X00587D01*
X00497Y00531D02*
X00587D01*
X00523Y00553D02*
X00561D01*
X00542Y00534D02*
Y00572D01*
X00459Y00271D02*
X00502D01*
X00459Y00181D02*
X00502D01*
Y00271*
X00459Y00181D02*
Y00271D01*
X00481Y00207D02*
Y00245D01*
X00462Y00226D02*
X00499D01*
X00408Y0027D02*
X00452D01*
X00408Y00179D02*
X00452D01*
Y0027*
X00408Y00179D02*
Y0027D01*
X0043Y00206D02*
Y00243D01*
X00411Y00225D02*
X00449D01*
X00644Y00558D02*
X00763D01*
X00644Y00495D02*
X00763D01*
X00644D02*
Y00558D01*
X00763Y00495D02*
Y00558D01*
X00349Y00376D02*
Y00506D01*
X00494Y00376D02*
Y00506D01*
X00349D02*
X00494D01*
X00349Y00376D02*
X00494D01*
X0054Y00181D02*
Y00464D01*
X00883Y00181D02*
Y00464D01*
X0054D02*
X00883D01*
X0054Y00181D02*
X00883D01*
X00043Y00223D02*
X00302D01*
X00043D02*
Y00607D01*
X00302*
Y00223D02*
Y00607D01*
M02*