M48
;Layer_Color=9474304
;FILE_FORMAT=2:4
INCH,LZ
;TYPE=PLATED
T1F00S00C0.0079
T2F00S00C0.0100
T3F00S00C0.0118
T6F00S00C0.0354
%
T01
X01872Y003567
X01915Y003565
X019583
Y003998
Y004431
X01915
Y003998
X01872Y004
X018717Y004431
T02
X001713Y001415
X002579Y002689
X003383Y00338
X003327Y003913
X003079Y004413
X003252Y005173
X003634Y005264
X005016Y005161
X004807Y005606
X006193Y005587
X006098Y005276
X005886Y004965
X006406Y004654
X00676Y004795
X007594Y00472
X008047Y004724
X008913Y004661
X008902Y004378
X008933Y003933
X008862Y004957
X008839Y005307
X009114Y005378
X00965Y005583
X009748Y006075
X009579Y006319
X010028Y006319
X010073Y006685
X010394Y006614
X010421Y006213
X010689Y006283
X010902Y006461
X011181Y006386
X011583Y006283
X012004Y006225
X01228Y006113
X013135Y006387
X013519Y006358
X014028Y006756
X014949Y006862
X01522Y006598
X015386Y006394
X015571Y006102
X014831Y006071
X014756Y005598
X014941Y005409
X015248Y005425
X015585Y005266
X015579Y004858
X015575Y003756
X014291Y003799
X014331Y004346
X01424Y004807
X013638Y004866
X01315Y004524
X013429Y003697
X013303Y003323
X013232Y002984
X013484Y002982
X014213Y003062
X014425Y003059
X014687Y002096
X015106Y001673
X01535Y001799
X015612Y001841
X015563Y002114
X015402Y002575
X014902Y001378
X012614Y001799
X012264Y001791
X011941Y00163
X011874Y001898
X011343Y001839
X011067Y001783
X010984Y001445
X010606Y00172
X009788Y001995
X009484Y001736
X009229Y001654
X009197Y002016
X008894Y001937
X008819Y00172
X008665Y002343
X009051Y002386
X009559Y002382
X009752Y002594
X011134Y003071
X011055Y003457
X011173Y003752
X010626Y004
X010846Y004488
X011087Y004724
X010579Y004748
X010594Y005193
X00861Y005724
X008354Y006404
X008846Y006535
X00798Y006802
X010067Y007484
X012311Y003992
X012287Y003728
X012299Y002937
X009008Y000831
X007283Y002146
X006307Y001854
X00578Y001878
X004894Y002921
X003902Y002972
X005142Y003992
X007602Y004071
X007583Y003626
X002925Y006142
X002181Y006504
X015709Y006563
X016213Y00537
X016039Y005004
X015937Y004713
X015839Y004319
X016406Y004311
X016378Y003839
X015933Y003783
X015661Y003323
Y002984
X015673Y002673
X01602Y002992
X016358Y003094
X016394Y002831
X017122Y002626
X017583Y002543
X018118Y002898
X01828Y003063
X018776Y002622
X019047Y002591
X018657Y002287
X018839Y001953
X018799Y001532
X01798Y001539
X017929Y000811
X016961
Y001622
X015902Y001354
X015905Y000933
X015846Y002004
X017047Y004504
X017299Y004386
X01765Y004402
X017791Y00413
X017783Y003839
X017902Y004799
X017724Y005106
X01776Y005488
X01739Y005768
X016846
X017413Y006366
X017748Y00674
X018504Y005382
X019138Y005543
X019827Y005343
X020252Y005374
X020681Y005437
X020996Y005417
X021272Y005465
X021331Y005
X021358Y004701
X022122Y004787
X022134Y004445
Y004102
Y003819
X02215Y003476
Y003102
X022126Y00274
X02213Y002378
X022126Y002024
X022142Y001697
X022154Y001374
Y001035
Y00072
X021768Y001803
X020618Y001634
X02035Y002146
X020244Y002657
X020252Y00302
X020543Y003756
X020522Y004197
X020713Y00439
X020547Y004965
X020087Y004972
X021591Y005957
X021736Y006331
X02172Y006665
X022079Y006532
Y006882
Y007264
Y007579
X022075Y00613
X022063Y005783
X020945Y006878
X021461Y003839
X021634Y003618
T03
X016213Y006587
T06
X002461Y001161
X003461
X004461
X005461
X006461
X007461
X008461
X009461
X010461
X011461
X012461
X013461
X014461
X015461
Y007161
X014461
X013461
X012461
X011461
X010461
X009461
X008461
X007461
X006461
X005461
X004461
X003461
X002461
X016461
X017461
X018461
X019461
X020461
X021461
Y001161
X020461
X019461
X018461
X017461
X016461
M30
