%FSTAX23Y23*%
%MOIN*%
%SFA1B1*%

%IPPOS*%
%ADD11C,0.009800*%
%ADD16R,0.027600X0.035400*%
%ADD17R,0.033500X0.029500*%
%ADD21R,0.035400X0.027600*%
%ADD22R,0.029500X0.033500*%
%ADD63C,0.006300*%
%ADD64C,0.010000*%
%ADD65R,0.059100X0.059100*%
%ADD66C,0.059100*%
%ADD67O,0.074800X0.047200*%
%ADD68O,0.049200X0.041300*%
%ADD69C,0.015200*%
%ADD70C,0.015700*%
%ADD71C,0.011800*%
%ADD72C,0.019700*%
%ADD73O,0.011800X0.057100*%
%ADD74O,0.057100X0.011800*%
%ADD75O,0.049200X0.021700*%
%ADD76R,0.027600X0.031500*%
%ADD77R,0.031500X0.027600*%
%ADD78R,0.145700X0.145700*%
%ADD79O,0.009800X0.035400*%
%ADD80O,0.035400X0.009800*%
%ADD81R,0.037400X0.053100*%
%ADD82R,0.129900X0.094500*%
%ADD83R,0.039400X0.094500*%
%ADD84R,0.055100X0.029500*%
%ADD85R,0.216500X0.035400*%
%ADD86R,0.234600X0.019700*%
%ADD87R,0.122000X0.019700*%
%ADD88R,0.122000X0.019700*%
%ADD89R,0.177200X0.019700*%
%ADD90R,0.019700X0.196900*%
%ADD91R,0.019700X0.118100*%
%ADD92R,0.019700X0.106300*%
%ADD93R,0.019700X0.106300*%
%LNpcb1-1*%
%LPD*%
G36*
X02238Y00642D02*
X02238Y00641D01*
Y00605*
X02238Y00604*
Y00552*
X022*
Y00505*
X02238*
Y00065*
X02237Y00065*
X02233Y00069*
X02232Y00067*
X02215*
Y00077*
X02232*
X02232Y00079*
X02228Y00084*
X02227Y00085*
Y0009*
X02228Y0009*
X02232Y00096*
X02232Y00098*
X02215*
Y00108*
X02232*
X02232Y0011*
X02228Y00116*
X02226Y00117*
Y00123*
X02228Y00124*
X02232Y0013*
X02232Y00132*
X02215*
Y00142*
X02232*
X02232Y00144*
X02228Y0015*
X02226Y00151*
Y00155*
X02227Y00157*
X02231Y00162*
X02231Y00164*
X02214*
Y00174*
X02231*
X02231Y00176*
X02227Y00182*
X02225Y00183*
X02225Y00189*
X02229Y00195*
X02229Y00197*
X02195*
X02195Y00195*
X02199Y00189*
X02201Y00188*
X02201Y00182*
X02199Y00179*
X02193Y00178*
X0219Y0018*
X02189Y00185*
X02186Y0019*
X02182Y00193*
X02176Y00194*
X02176Y00194*
X02171Y00198*
Y00241*
X02163*
Y00257*
X02175*
Y00297*
X02132*
Y00257*
X02144*
Y00241*
X0213*
Y00196*
X0212*
Y00241*
X02106*
Y0026*
X02118*
Y00299*
X02075*
Y0026*
X02087*
Y00241*
X02079*
Y00196*
X02061*
X02058Y00196*
X02055Y00194*
X02048Y00187*
X02016*
Y002*
X0202Y00204*
X02025*
X02029Y00201*
X02035Y002*
X0204Y00201*
X02044Y00204*
X02047Y00209*
X02048Y00214*
X02047Y00219*
X02044Y00224*
X0204Y00227*
X02035Y00228*
X02029Y00227*
X02025Y00224*
X02024Y00223*
X02016*
X02016Y00224*
Y0023*
X01974*
Y00187*
X01969*
Y00202*
X01944*
Y00212*
X01969*
Y00234*
X01946*
X01944Y00239*
X01951Y00246*
X01953Y00249*
X01953Y00252*
Y00277*
X01958Y0028*
X01959Y00279*
X01964Y00278*
X01968Y00279*
X0197Y0028*
X01974Y00281*
X01977Y0028*
X01979Y00279*
X01983Y00278*
X01988Y00279*
X01991Y00281*
X01994Y00285*
X01995Y00289*
Y00315*
X01996Y00317*
X01997*
Y00318*
X01999Y00319*
X0201*
X02013Y00316*
X02015Y00312*
X02012Y00307*
X02011Y00302*
X02012Y00296*
X02015Y00292*
X02019Y00288*
X02022Y00288*
X02022*
Y00283*
X02022Y00283*
X02017Y00282*
X02011Y00278*
X02007Y00272*
X02007Y0027*
X02041*
X02041Y00272*
X02037Y00278*
X02031Y00282*
X02027Y00283*
X02027*
Y00288*
X02027Y00288*
X0203Y00288*
X02035Y00292*
X02038Y00296*
X02039Y00302*
X02038Y00307*
X02035Y00312*
X02034Y00312*
Y00318*
X02037Y00321*
X02075*
Y00307*
X02118*
Y00345*
X02127*
X02132Y00344*
Y00305*
X02175*
Y00344*
X0217*
X02169Y00346*
X02169Y00349*
X02173Y00352*
X02176Y00356*
X02177Y00361*
X02176Y00367*
X02173Y00371*
X02168Y00374*
X02163Y00375*
X02162Y00375*
X02161Y00376*
X02159Y00379*
X02159Y00383*
X02159Y00384*
X02164Y00388*
X02166Y00391*
X02166Y00395*
Y00398*
X02178*
Y00444*
X02137*
Y00398*
X02135Y00397*
X02131Y004*
Y00416*
X02106*
Y00426*
X02131*
Y00447*
X02133Y00452*
X02135Y00452*
X02142Y00453*
X02148Y00457*
X02152Y00463*
X02152Y00465*
X02135*
Y00475*
X02152*
X02152Y00476*
X02148Y00482*
X02144Y00485*
X02143Y00489*
X02144Y00491*
X02146Y00494*
X02147Y005*
X02147Y00501*
X0215Y00505*
X02184*
Y00552*
X02145*
X0214Y00551*
X02137Y00556*
X02132Y00559*
X02127Y0056*
X02121Y00559*
X02117Y00556*
X02117Y00556*
X02116Y00555*
X0211Y00555*
X02106Y00558*
X02104Y00558*
Y00541*
X02094*
Y00563*
X02094Y00563*
Y00664*
X02099Y00667*
X02149Y00616*
Y00605*
X02149Y00605*
X02146Y00601*
X02145Y00595*
X02146Y0059*
X02149Y00585*
X02153Y00582*
X02159Y00581*
X02164Y00582*
X02168Y00585*
X02171Y0059*
X02172Y00595*
X02171Y00601*
X02168Y00605*
X02168Y00605*
Y00612*
X02168Y00612*
Y00633*
X02178*
Y00615*
X0218Y00616*
X02185Y00619*
X02188Y00618*
X02224*
X02224Y0062*
X0222Y00625*
X02214Y00629*
X02211Y0063*
Y00635*
X02214Y00636*
X0222Y0064*
X02224Y00646*
X02225Y00648*
X02207*
Y00658*
X02225*
X02224Y0066*
X0222Y00666*
X02218Y00667*
Y00673*
X0222Y00675*
X02224Y00681*
X02225Y00683*
X0219*
X02191Y00681*
X02195Y00675*
X02196Y00674*
X02196Y00669*
X02195Y00668*
X02194Y00667*
X02189Y00669*
X02188Y00673*
X02184Y00679*
X02179Y00683*
X02172Y00684*
X02171Y00684*
X02169Y00689*
X02171Y0069*
X02177Y00698*
X0218Y00706*
X02181Y00716*
X0218Y00725*
X02177Y00734*
X02171Y00741*
X02164Y00747*
X02155Y0075*
X02146Y00752*
X02136Y0075*
X02128Y00747*
X0212Y00741*
X02115Y00734*
X02111Y00725*
X0211Y00716*
X02111Y00706*
X02115Y00698*
X0212Y0069*
X02128Y00685*
X02136Y00681*
X02146Y0068*
X02154Y00681*
X02156Y00679*
X02157Y00677*
X02155Y00673*
X02154Y00671*
X02172*
Y00661*
X02154*
X02155Y00659*
X02159Y00653*
X02161Y00652*
Y00646*
X0216Y00646*
X02157Y00641*
X02152Y0064*
X02107Y00684*
X02108Y00687*
X02107Y00693*
X02104Y00697*
X02099Y007*
X02094Y00701*
X02089Y007*
X02084Y00697*
X02081Y00693*
X0208Y00687*
X0208Y00687*
X02076Y00682*
X02068*
X02066Y00687*
X02071Y0069*
X02077Y00698*
X0208Y00706*
X02081Y00716*
X0208Y00725*
X02077Y00734*
X02071Y00741*
X02064Y00747*
X02055Y0075*
X02046Y00752*
X02036Y0075*
X02028Y00747*
X02009Y00766*
X02011Y0077*
X02189*
X02192Y00766*
X02191Y00764*
X0219Y00762*
X02225*
X02224Y00764*
X02223Y00766*
X02226Y0077*
X02238*
Y00642*
G37*
G36*
X00582Y00766D02*
X00563Y00747D01*
X00555Y0075*
X00546Y00752*
X00536Y0075*
X00528Y00747*
X0052Y00741*
X00515Y00734*
X00511Y00725*
X0051Y00716*
X00511Y00706*
X00515Y00698*
X0052Y0069*
X00528Y00685*
X00536Y00681*
X00546Y0068*
X00555Y00681*
X00564Y00685*
X00571Y0069*
X00577Y00698*
X0058Y00706*
X00581Y00716*
X0058Y00725*
X00577Y00734*
X00601Y00758*
X00868*
X0087Y00753*
X00863Y00747*
X00855Y0075*
X00846Y00752*
X00836Y0075*
X00828Y00747*
X0082Y00741*
X00815Y00734*
X00811Y00725*
X0081Y00716*
X00811Y00706*
X00815Y00698*
X0082Y0069*
X00821Y0069*
X0082Y00685*
X00811*
Y00685*
X00808Y0069*
X00803Y00693*
X00798Y00694*
X00792Y00693*
X00788Y0069*
X00785Y00685*
X00783Y0068*
X00785Y00674*
X00786Y00673*
X00783Y00668*
X00728*
X00725Y00667*
X00722Y00665*
X00717Y0066*
X00715Y00657*
X00714Y00653*
Y00645*
X00711Y00642*
X00709*
X00661*
Y00576*
X00708*
X0071Y00571*
X00705Y00567*
X00653*
X00649Y00566*
X00646Y00564*
X00638Y00555*
X00633Y00558*
Y00558*
X00632Y00564*
X00629Y00567*
X0063Y0057*
X00632Y00572*
X00652*
Y00604*
X00623*
Y00609*
X00618*
Y00646*
X00571*
Y00609*
X00566*
X00571*
Y00572*
X00606*
X00607Y0057*
X00608Y00567*
X00606Y00564*
X00605Y00558*
X00606Y00553*
X00609Y00548*
X00613Y00545*
X00612Y00541*
X00609Y00541*
X00604Y0054*
X00599Y00537*
X00596Y00533*
X00595Y00527*
X00596Y00522*
X00599Y00517*
X00604Y00514*
X00609Y00513*
X00615Y00514*
X00619Y00517*
X0062Y00518*
X00622*
X00626Y00519*
X00629Y00521*
X00657Y00548*
X00667*
X00669Y00543*
X00652Y00527*
X0065Y00524*
X00649Y0052*
Y00485*
X00645Y00483*
Y00465*
Y00447*
X00649Y00444*
Y0027*
X0065Y00266*
X00652Y00263*
X0067Y00246*
X00673Y00244*
X00676Y00243*
X00713*
X00715Y00238*
X00639Y00162*
X00637Y00159*
X00636Y00155*
Y0015*
X00628Y00147*
X0062Y00141*
X00615Y00134*
X00611Y00125*
X0061Y00119*
X00605Y00119*
Y0015*
X00604Y00155*
X00602Y00158*
X00589Y00172*
Y00179*
X00591Y00182*
X00592Y00187*
X00591Y00193*
X00587Y00197*
X00583Y002*
X00578Y00201*
X00572Y002*
X00568Y00197*
X00564Y00193*
X00563Y00187*
X00564Y00182*
X00566Y00179*
Y00167*
X00567Y00163*
X0057Y00159*
X00583Y00146*
Y00132*
X00578Y00131*
X00577Y00134*
X00571Y00141*
X00564Y00147*
X00555Y0015*
X00548Y00151*
X00527Y00171*
X00525Y00175*
Y00234*
X00578*
X00619Y00193*
X00617Y0019*
X00616Y00185*
X00617Y0018*
X0062Y00175*
X00625Y00172*
X0063Y00171*
X00636Y00172*
X0064Y00175*
X00643Y0018*
X00644Y00185*
X00643Y0019*
X0064Y00195*
X00639Y00196*
X00639Y00198*
X00637Y00201*
X00588Y0025*
X00585Y00252*
X00582Y00253*
X00525*
Y00282*
X00504*
X00503Y00285*
X00502Y00287*
X00503Y0029*
X00611Y00398*
X00613Y00402*
X00614Y00406*
Y00481*
X00613Y00485*
X00611Y00489*
X00602Y00498*
X00601Y00501*
X00598Y00506*
X00594Y00509*
X00588Y0051*
X00583Y00509*
X00578Y00506*
X00575Y00502*
X00573*
X0057Y00503*
Y0051*
X00519*
X00518*
X00515Y00514*
X00515Y00516*
X00514Y00521*
X00511Y00526*
X00507Y00529*
X00501Y0053*
X00496Y00529*
X00494Y00528*
X00471*
X00467Y00527*
X00463Y00524*
X00449Y0051*
X00429*
Y00404*
X00474*
X00476Y00399*
X00388Y00311*
X00384Y0031*
X0038Y00307*
X00377Y00302*
X00376Y00297*
X00377Y00291*
X0038Y00287*
X00381Y00286*
X00383Y00282*
Y00279*
Y00175*
X00492*
X00521Y00146*
X00521Y00141*
X0052Y00141*
X00515Y00134*
X00511Y00125*
X0051Y00116*
X00511Y00106*
X00515Y00098*
X0052Y0009*
X00528Y00085*
X00535Y00082*
X00534Y00077*
X00468*
X00467Y00079*
X00466Y00082*
X00474Y00088*
X0048Y00096*
X00484Y00105*
X00485Y00111*
X00406*
X00407Y00105*
X00411Y00096*
X00417Y00088*
X00425Y00082*
X00425Y00079*
X00424Y00077*
X00368*
X00367Y00079*
X00366Y00082*
X00374Y00088*
X0038Y00096*
X00384Y00105*
X00385Y00111*
X00306*
X00307Y00105*
X00311Y00096*
X00317Y00088*
X00325Y00082*
X00325Y00079*
X00324Y00077*
X003*
X00281Y00096*
Y00151*
X0021*
Y0008*
X00265*
X0028Y00065*
X00278Y00061*
X00106*
Y0077*
X0058*
X00582Y00766*
G37*
G36*
X01386Y00754D02*
Y0072D01*
X01381Y0072*
X0138Y00725*
X01377Y00734*
X01371Y00741*
X01364Y00747*
X01355Y0075*
X01346Y00752*
X01336Y0075*
X01328Y00747*
X0132Y00741*
X01315Y00734*
X01311Y00725*
X0131Y00716*
X01311Y00706*
X01315Y00698*
X0132Y00691*
X01318Y00686*
X01273*
X01272Y00691*
X01277Y00698*
X0128Y00706*
X01281Y00716*
X0128Y00725*
X01277Y00734*
X01271Y00741*
X01264Y00747*
X01255Y0075*
X01246Y00752*
X01236Y0075*
X01228Y00747*
X0122Y00741*
X01215Y00734*
X01211Y00725*
X0121Y00716*
X01211Y00706*
X01215Y00698*
X0122Y00691*
X01218Y00686*
X01173*
X01172Y00691*
X01177Y00698*
X0118Y00706*
X01181Y00716*
X0118Y00725*
X01177Y00734*
X01171Y00741*
X01164Y00747*
X01158Y00749*
X01157Y00754*
X0116Y00758*
X01382*
X01386Y00754*
G37*
G36*
X01141Y00766D02*
X01139Y00763D01*
X01137Y0076*
X01136Y00757*
Y0075*
X01128Y00747*
X0112Y00741*
X01115Y00734*
X01111Y00725*
X0111Y00716*
X01111Y00706*
X01115Y00698*
X0112Y00691*
X01118Y00686*
X01104*
X01104Y00686*
X01088*
X01077Y00698*
X0108Y00706*
X01081Y00716*
X0108Y00725*
X01077Y00734*
X01071Y00741*
X01064Y00747*
X01055Y0075*
X01046Y00752*
X01036Y0075*
X01028Y00747*
X01025Y00744*
X0102Y00747*
X0102Y00748*
X01019Y00753*
X01016Y00758*
X01012Y00761*
X01006Y00762*
X01001Y00761*
X01Y00761*
X00996Y00766*
X00997Y0077*
X0114*
X01141Y00766*
G37*
G36*
X01797D02*
X01789Y00758D01*
X01787Y00755*
X01787Y00751*
Y00737*
X01787Y00735*
Y00691*
X01782Y00685*
X0178Y00686*
X01775Y00687*
X01774Y00689*
X01772Y00692*
X01777Y00698*
X0178Y00706*
X01781Y00716*
X0178Y00725*
X01777Y00734*
X01771Y00741*
X01764Y00747*
X01755Y0075*
X01746Y00752*
X01736Y0075*
X01728Y00747*
X0172Y00741*
X01715Y00734*
X01711Y00725*
X0171Y00716*
X01711Y00706*
X01713Y00702*
X01695Y00684*
X01671*
X01669Y00689*
X01671Y0069*
X01677Y00698*
X0168Y00706*
X01681Y00716*
X0168Y00725*
X01677Y00734*
X01671Y00741*
X01664Y00747*
X01655Y0075*
X01646Y00752*
X01636Y0075*
X01628Y00747*
X0162Y00741*
X01615Y00734*
X01611Y00725*
X0161Y00716*
X01611Y00706*
X01612Y00704*
X01609Y00699*
X01583*
X01581Y00701*
X01579Y00704*
X0158Y00706*
X01581Y00716*
X0158Y00725*
X01577Y00734*
X01571Y00741*
X01564Y00747*
X01555Y0075*
X01546Y00752*
X01536Y0075*
X01528Y00747*
X0152Y00741*
X01515Y00735*
X01511Y00736*
X0151*
Y00748*
X0151Y00752*
X01508Y00755*
X01497Y00766*
X01499Y0077*
X01795*
X01797Y00766*
G37*
G36*
X02015Y00734D02*
X02011Y00725D01*
X0201Y00716*
X02011Y00706*
X02015Y00698*
X0202Y0069*
X02025Y00687*
X02023Y00682*
X01993*
X01977Y00698*
X0198Y00706*
X01981Y00716*
X0198Y00725*
X01977Y00734*
X01971Y00741*
X01964Y00747*
X01955Y0075*
X01946Y00752*
X01936Y0075*
X01928Y00747*
X0192Y00741*
X01915Y00734*
X01911Y00725*
X0191Y00716*
X01911Y00706*
X01915Y00698*
X0192Y0069*
X01928Y00685*
X01936Y00681*
X01946Y0068*
X01955Y00681*
X01963Y00685*
X01982Y00666*
X01985Y00664*
X01989Y00663*
X0207*
X02071Y00662*
X02068Y00657*
X02049*
Y00633*
X02039*
Y00657*
X02017*
X02001*
Y00633*
X01996*
Y00628*
X01968*
Y00614*
X01943*
Y00628*
X01917*
Y00633*
X01912*
Y00658*
X0189*
Y00657*
X01886Y00654*
X01841*
Y00648*
X01813*
Y00658*
X01789*
X01786Y00663*
X01787Y00665*
X0179Y00667*
X01803Y0068*
X01805Y00683*
X01806Y00687*
Y00707*
X01811Y00708*
X01811Y00706*
X01815Y00698*
X0182Y0069*
X01828Y00685*
X01836Y00681*
X01846Y0068*
X01855Y00681*
X01864Y00685*
X01871Y0069*
X01877Y00698*
X0188Y00706*
X01881Y00716*
X0188Y00725*
X01877Y00734*
X01871Y00741*
X01864Y00747*
X01855Y0075*
X01846Y00752*
X01836Y0075*
X01828Y00747*
X0182Y00741*
X01815Y00734*
X01811Y00725*
X01811Y00724*
X01806Y00724*
Y00737*
X01805Y0074*
Y00747*
X01815Y00757*
X01991*
X02015Y00734*
G37*
G36*
X01728Y00685D02*
X01736Y00681D01*
X01746Y0068*
X01755Y00681*
X01758Y00682*
X0176Y0068*
X01761Y00678*
X01761Y00674*
X01762Y00668*
X01765Y00664*
X01765Y00663*
X01766Y00658*
Y00619*
X01813*
X01815Y00615*
Y00607*
X01794*
Y00583*
X01784*
Y00607*
X01762*
Y00601*
X01757Y00599*
X01743Y00613*
X01744Y00619*
X01748Y0062*
X01754Y00623*
X01757Y00629*
X01758Y00631*
X01741*
Y00636*
X01736*
Y00653*
X01734Y00653*
X01728Y00649*
X01724Y00643*
X01724Y00639*
X01718Y00638*
X01695Y00661*
X01697Y00665*
X01698*
X01702Y00666*
X01705Y00668*
X01724Y00687*
X01728Y00685*
G37*
G36*
X01735Y00595D02*
X01733Y00589D01*
X01733Y00589*
X01729Y00586*
X01726Y00582*
X01725Y00576*
X01726Y00571*
X01727Y0057*
X01727Y00567*
X01729Y00564*
X01734Y0056*
Y00525*
X01729Y00523*
X01706Y00546*
X01703Y00548*
X017Y00548*
X01691*
X01681Y00558*
X01683Y00563*
X01684Y00562*
X01689Y00564*
X01694Y00567*
X01697Y00571*
X01698Y00576*
X01697Y00582*
X01694Y00586*
X01689Y00589*
X01684Y0059*
X01684Y0059*
X01676Y00598*
X01673Y006*
X01669Y00601*
X01652*
X01632Y00621*
Y0065*
X01634Y00653*
X01635Y00658*
X01634Y00661*
X01638Y00666*
X01664*
X01735Y00595*
G37*
G36*
X01266Y00615D02*
X01269Y00613D01*
X01273Y00612*
X01308*
X0131Y00607*
X01301Y00598*
X01286*
X01282Y00597*
X01279Y00595*
X01236Y00552*
X01231Y00554*
Y00592*
X0123Y00593*
X01233Y00598*
X01237Y00601*
X0124Y00606*
X01241Y00611*
X0124Y00616*
X01237Y00621*
X01233Y00624*
X01228Y00625*
X01222Y00624*
X01221Y00624*
X01221Y00626*
X01224Y00631*
X0125*
X01266Y00615*
G37*
G36*
X00519Y0051D02*
Y00417D01*
X00514Y00413*
X00514*
X00508Y00412*
X00506Y0041*
X00492*
X00487Y00409*
X00485Y00407*
X00481Y00409*
X0048Y0041*
Y00505*
X00492*
X00496Y00503*
X00501Y00502*
X00507Y00503*
X00511Y00506*
X00514Y0051*
X00519Y0051*
G37*
G36*
X00783Y0058D02*
Y00552D01*
X00812*
X00831Y00533*
X00829Y00528*
X00808*
Y005*
X00805Y00498*
X008Y005*
Y00528*
X00761*
Y00487*
X00759Y00486*
X00754Y00485*
X00751Y00483*
X00734Y005*
Y00528*
X00687*
Y00498*
X00683Y00496*
X00682Y00496*
X00681Y00496*
Y00479*
X00671*
Y00498*
X00668Y00501*
Y00516*
X00685Y00534*
X00725*
X00729Y00534*
X00732Y00536*
X00747Y00552*
X00776*
Y0058*
X0078Y00582*
X00783Y0058*
G37*
G36*
X0168Y00533D02*
X01683Y00531D01*
X01687Y0053*
X01696*
X01738Y00488*
Y00459*
X01734Y00457*
Y00438*
X01724*
Y00455*
X01723Y00455*
X01722Y00454*
X01716Y00456*
X01714Y0046*
X0171Y00463*
X01704Y00464*
X01703Y00463*
X01699Y00469*
X01694Y00472*
X01687Y00474*
X01659*
X01659Y00473*
X01655Y00477*
Y00486*
X01659Y00489*
X01659Y00489*
X01687*
X01694Y00491*
X01699Y00494*
X01703Y005*
X01704Y00506*
X01703Y00513*
X01699Y00519*
X01694Y00522*
X01687Y00524*
X01659*
X01653Y00522*
X01653Y00523*
X01652Y00528*
X01657Y00534*
X01659Y00537*
X0166Y0054*
X01663Y00544*
X01669Y00544*
X0168Y00533*
G37*
G36*
X01143Y00469D02*
Y00394D01*
X01144Y00391*
X01146Y00388*
X0116Y00374*
Y00373*
X01195Y00339*
X01193Y00335*
X01121*
X01118Y0034*
X01118Y0034*
X01119Y00345*
X01118Y00351*
X01117Y00352*
X0112Y00357*
X01124Y00358*
X0113Y00362*
X01133Y00368*
X01134Y0037*
X01117*
Y00375*
X01112*
Y00392*
X0111Y00391*
X01108Y0039*
X01103Y00393*
Y00394*
X01102Y00398*
X011Y00401*
X01077Y00424*
X01078Y00427*
X01079Y00429*
Y00448*
X01084*
Y00453*
X01101*
X01101Y00455*
X01101Y00456*
X01101Y00456*
X01104Y00459*
X01108Y00458*
X01114Y00459*
X01118Y00462*
X01121Y00467*
X01122Y00472*
X01121Y00477*
X01118Y00482*
X01117Y00483*
X01116Y00483*
X01119Y00488*
X01124*
X01143Y00469*
G37*
G36*
X01694Y0044D02*
X01699Y00437D01*
X01704Y00436*
X0171Y00437*
X01713Y00433*
X01713Y00431*
X01717Y00425*
X01723Y00422*
X01729Y0042*
X01731Y00419*
Y0037*
X01731Y00367*
X01733Y00364*
X01738Y00359*
Y00346*
X01686Y00294*
X01681Y00296*
Y00309*
X0168Y00313*
X01678Y00316*
X01664Y0033*
X01666Y00335*
X01668*
Y00356*
Y00378*
X01659*
X01655Y00377*
X01651Y00381*
X01651Y00383*
X01651Y00386*
X01651Y00387*
X01655Y0039*
X01659Y00389*
X01687*
X01694Y00391*
X01699Y00394*
X01703Y004*
X01704Y00406*
X01703Y00413*
X01699Y00419*
X01694Y00422*
X01687Y00424*
X0166*
X01654Y0043*
X01654Y00431*
X01653Y00435*
X01654Y00437*
X01656Y0044*
X01659Y00439*
X01687*
X01694Y00441*
X01694Y0044*
G37*
G36*
X01489Y00468D02*
X01492Y00466D01*
X01496Y00465*
X01543*
X01545Y0046*
X01528Y00443*
X01464*
X01461Y00442*
X01457Y0044*
X01451Y00434*
X01451*
X01446Y00436*
X01445Y00439*
X01442Y00444*
X01442Y00444*
Y00447*
X01441Y00451*
X01439Y00454*
X0143Y00463*
X0143Y00463*
X01431Y00469*
X01433Y0047*
X01434Y00471*
X01486*
X01489Y00468*
G37*
G36*
X01213Y00516D02*
Y00438D01*
X01214Y00435*
X01216Y00432*
X0123Y00417*
X01229Y00412*
X01225Y00412*
X01221Y00409*
X01221Y00408*
X01192*
X01174Y00426*
Y00478*
X01174Y00481*
X01172Y00484*
X01147Y00509*
X01149Y00513*
X012*
X01204Y00514*
X01207Y00516*
X01209Y00518*
X01213Y00516*
G37*
G36*
X01568Y00433D02*
X01569Y0043D01*
X01568Y00429*
X01566Y00426*
X01565Y00422*
Y00392*
X0156Y00388*
X01557Y00389*
X01552Y00388*
X01547Y00385*
X01544Y0038*
X01543Y00375*
X01543Y00375*
X01531Y00362*
X01529Y0036*
X01526Y00359*
X01524Y00358*
X01496Y00386*
X01493Y00388*
X01489Y00389*
X01456*
X01456Y00389*
X01455Y00394*
X0147Y0041*
X01534*
X01538Y0041*
X01541Y00412*
X01563Y00435*
X01568Y00433*
G37*
G36*
X00578Y00486D02*
X00583Y00483D01*
X00586Y00482*
X00592Y00476*
Y0041*
X00487Y00305*
X00484Y00305*
X00479Y00302*
X00476Y00297*
X00475Y00292*
X00476Y00287*
X00475Y00285*
X00474Y00282*
X00401*
X004Y00286*
X004Y00287*
X00403Y00291*
X00403Y00295*
X00496Y00388*
X00506*
X00508Y00386*
X00514Y00385*
X00519Y00386*
X00524Y00389*
X00527Y00393*
X00528Y00399*
X00528Y004*
X00531Y00404*
X0057*
Y00489*
X00573Y0049*
X00575*
X00578Y00486*
G37*
G36*
X01044Y00474D02*
X01045Y00469D01*
X01048Y00465*
X01052Y00462*
X01053Y00461*
X01056Y00456*
Y00422*
X01057Y00419*
X01058Y00418*
X01057Y00415*
X01056Y00412*
X01056Y00412*
X01052Y00409*
X01049Y00405*
X01048Y004*
X01049Y00394*
X01052Y0039*
X01057Y00387*
X01062Y00386*
X01067Y00387*
X01072Y0039*
X01075Y00394*
X0108*
X01084Y0039*
Y00352*
X01084Y00351*
X0108Y00349*
X01032Y00396*
Y0047*
X01032Y00471*
X01035Y00476*
X01036Y00476*
X01042*
X01044Y00474*
G37*
G36*
X01001Y00424D02*
Y00332D01*
X00983Y00314*
X00983*
X00978Y00316*
X00978Y00319*
X00975Y00323*
Y00326*
X00978Y0033*
X00979Y00334*
X00978Y00339*
X00975Y00343*
Y00345*
X00978Y00349*
X00979Y00354*
X00978Y00359*
X00977Y0036*
X00975Y00364*
X00977Y00367*
X00978Y00369*
X00979Y00374*
X00978Y00378*
X00975Y00382*
Y00385*
X00978Y00389*
X00979Y00393*
X00978Y00398*
X00975Y00402*
Y00404*
X00978Y00408*
X00979Y00413*
X00978Y00418*
X00977Y00418*
X00978Y00421*
X00981Y00426*
X00982Y00428*
X00944*
Y00438*
X00984*
X00986Y00439*
X01001Y00424*
G37*
G36*
X01087Y00315D02*
X0109Y00313D01*
X01094Y00312*
X01095*
X01098Y00309*
X01097Y00304*
X01095Y00302*
X01004*
X01002Y00306*
X01017Y00322*
X01019Y00325*
X0102Y00328*
Y00375*
X01025Y00377*
X01087Y00315*
G37*
G36*
X00811Y00288D02*
X00822D01*
Y0028*
X00803Y00262*
X0068*
X00668Y00274*
Y0029*
X00669Y00294*
X00716*
Y00304*
X00727*
X00731Y00304*
X00734Y00306*
X00736Y00309*
X00737Y00313*
Y00325*
X00741Y00327*
X00764Y00304*
Y00288*
X00804*
Y00328*
X00811*
Y00288*
G37*
G36*
X01604Y00336D02*
Y00336D01*
X01624Y00316*
X01623Y00314*
X01622Y00309*
X01623Y00304*
X01626Y00299*
X01628Y00298*
X01629Y00293*
X01629Y00292*
X01626Y00288*
X01625Y00283*
X01626Y00277*
X01629Y00273*
X0163Y00273*
Y00259*
X01627*
Y0022*
X01623Y00216*
X01618Y00218*
Y00259*
X01584*
X0158Y00264*
X01581Y00267*
X0158Y00272*
X01577Y00277*
X01572Y0028*
X0157Y0028*
Y00285*
X01571Y00285*
X01575Y00288*
X01578Y00293*
X0158Y00298*
X01578Y00303*
X01577Y00305*
X01578Y00307*
X01583Y00309*
X01588Y00304*
X01587Y00299*
X01588Y00293*
X01592Y00289*
X01596Y00286*
X01602Y00285*
X01607Y00286*
X01612Y00289*
X01615Y00293*
X01616Y00299*
X01615Y00304*
X01612Y00309*
X01607Y00312*
X01606Y00312*
X01592Y00326*
Y00339*
X01591Y00342*
X01591Y00343*
X01595Y00345*
X01604Y00336*
G37*
G36*
X01405Y00278D02*
X01403Y00274D01*
X01376*
Y00254*
X01403*
Y00249*
X01408*
Y00224*
X0143*
Y00226*
X01434Y00227*
X01455Y00207*
X01456Y00204*
X01459Y00199*
X01463Y00196*
X01468Y00195*
X01474Y00196*
X01478Y00199*
X01481Y00195*
X01476Y0019*
X01474Y00187*
X01473Y00184*
Y00171*
X01473Y0017*
X01469Y00167*
X01457Y00179*
X01454Y00181*
X0145Y00182*
X0145*
X01426*
Y00218*
X0138*
Y00207*
X0137*
Y00219*
X01336*
Y00279*
X0134Y00282*
X01341Y00281*
X01343Y00281*
Y00298*
X01353*
Y00281*
X01355Y00281*
X01361Y00285*
X01365Y00291*
X01366Y00298*
X01366Y00299*
X01369Y00303*
X0138*
X01405Y00278*
G37*
G36*
X01789Y00331D02*
X01793Y00329D01*
X01794Y00326*
X01796Y00323*
X018Y0032*
X01801Y0032*
Y00299*
X01799Y00295*
X01798Y00289*
X01799Y00284*
X01802Y0028*
X01806Y00277*
X01811Y00275*
X01817Y00277*
X01821Y0028*
X01824Y00284*
X01825Y00287*
X01826Y00289*
X0183Y0029*
X01835Y00287*
X01835Y00285*
X01837Y00282*
X01837Y00279*
X01836Y00276*
X01836Y00276*
X01833Y00274*
X01795Y00236*
X0179Y00238*
Y00241*
X01772*
X01769Y00246*
X01771Y00249*
X01772Y00254*
X01771Y00259*
X01768Y00264*
X01767Y00264*
Y00317*
X0177*
X01774Y00317*
X01777Y00319*
X01788Y00331*
X01789*
G37*
G36*
X01749Y00323D02*
Y00264D01*
X01748Y00264*
X01745Y00259*
X01744Y00254*
X01745Y00249*
X01747Y00246*
X01748Y00241*
Y00196*
X01746Y00192*
X01742*
X01739Y00196*
Y00241*
X01721*
Y00252*
X01722Y00252*
X01725Y00257*
X01726Y00262*
X01725Y00267*
X01722Y00272*
X01717Y00275*
X01712Y00276*
X01706Y00275*
X01702Y00272*
X01699Y00267*
X01698Y00265*
X01693Y00265*
Y00275*
X01744Y00325*
X01749Y00323*
G37*
G36*
X01217Y00299D02*
X01217Y00299D01*
X01216Y00293*
X01217Y00288*
X0122Y00283*
X01224Y0028*
X01229Y00279*
X01235Y0028*
X01239Y00283*
X0124Y00285*
X01242Y00285*
X01246Y00285*
X01249Y00284*
X01254Y00283*
X01299*
X01304Y00284*
X01307Y00286*
X01309*
X01312Y00286*
X01313Y00287*
X01317Y00284*
Y00219*
X01283*
Y00179*
X01278Y00175*
X01275Y00179*
X01274Y00185*
X01271Y00189*
X01266Y00192*
X01261Y00193*
X01258Y00193*
X01231Y0022*
Y00259*
X0123Y00264*
X01227Y00268*
X01223Y00271*
X01218Y00272*
X01214Y00271*
X01213Y0027*
X01208Y00273*
Y00279*
X01207Y00283*
X01205Y00286*
X01188Y00303*
X01185Y00305*
X01182Y00305*
X01128*
X01127Y00307*
X01126Y00311*
X01129Y00316*
X012*
X01217Y00299*
G37*
G36*
X00849Y00228D02*
X00854Y00226D01*
Y00166*
X00854Y00163*
X00856Y0016*
X00864Y00152*
X00861Y00148*
X00855Y0015*
X00846Y00152*
X00836Y0015*
X00828Y00147*
X00814Y0016*
Y00194*
X00849Y00228*
X00849*
G37*
G36*
X01088Y00171D02*
X01091Y00169D01*
X01095Y00169*
X01096*
X01096Y00168*
X01101Y00165*
X01106Y00164*
X01112Y00165*
X01116Y00168*
X01119Y00173*
X01124Y00174*
X01129Y00171*
X01131Y0017*
X01132Y00169*
X01133Y00165*
X01132Y00163*
X01131Y00159*
Y00148*
X01128Y00147*
X0112Y00141*
X01115Y00134*
X01111Y00125*
X0111Y00116*
X01111Y00106*
X01115Y00098*
X0112Y00091*
X01118Y00086*
X01073*
X01072Y00091*
X01077Y00098*
X0108Y00106*
X01081Y00116*
X0108Y00125*
X01077Y00134*
X01072Y0014*
X01073Y00145*
X01079*
X01085Y00139*
X01085Y00139*
X01088Y00134*
X01093Y00131*
X01098Y0013*
X01103Y00131*
X01108Y00134*
X01111Y00139*
X01112Y00144*
X01111Y00149*
X01108Y00154*
X01103Y00157*
X01098Y00158*
X01093Y00157*
X01089Y00161*
X01086Y00163*
X01083Y00164*
X01077*
X01073Y00169*
X01074Y00172*
X01073Y00177*
X01072Y00178*
X01073Y0018*
X01078Y00181*
X01088Y00171*
G37*
G36*
X02136Y0015D02*
X02128Y00147D01*
X0212Y00141*
X02115Y00134*
X02111Y00125*
X0211Y00116*
X02111Y00106*
X02115Y00098*
X0212Y0009*
X02128Y00085*
X02136Y00081*
X02146Y0008*
X02155Y00081*
X02164Y00085*
X02168Y00088*
X02174Y00086*
X02174Y00086*
X02162Y00074*
X01812*
X01806Y0008*
X01806Y00081*
X01805Y00086*
X01802Y0009*
X01798Y00093*
X01798Y00094*
X01797Y00099*
X01804Y00106*
X01806Y00109*
X01809*
X01811Y00108*
X01811Y00106*
X01815Y00098*
X0182Y0009*
X01828Y00085*
X01836Y00081*
X01846Y0008*
X01855Y00081*
X01864Y00085*
X01871Y0009*
X01877Y00098*
X0188Y00106*
X01881Y00116*
X0188Y00125*
X01877Y00134*
X01876Y00134*
X01879Y00139*
X01879Y00139*
X01885Y0014*
X01889Y00143*
X01892Y00147*
X01893Y00153*
X01892Y00158*
X01891Y00159*
X01894Y00164*
X01909*
X01917Y00156*
X0192Y00154*
X01924Y00154*
X01931*
X01932Y00149*
X01928Y00147*
X0192Y00141*
X01915Y00134*
X01911Y00125*
X0191Y00116*
X01911Y00106*
X01915Y00098*
X0192Y0009*
X01928Y00085*
X01936Y00081*
X01946Y0008*
X01955Y00081*
X01964Y00085*
X01971Y0009*
X01977Y00098*
X0198Y00106*
X01981Y00116*
X0198Y00125*
X01977Y00134*
X01971Y00141*
X01964Y00147*
X01959Y00149*
X0196Y00154*
X02031*
X02032Y00149*
X02028Y00147*
X0202Y00141*
X02015Y00134*
X02011Y00125*
X0201Y00116*
X02011Y00106*
X02015Y00098*
X0202Y0009*
X02028Y00085*
X02036Y00081*
X02046Y0008*
X02055Y00081*
X02064Y00085*
X02071Y0009*
X02077Y00098*
X0208Y00106*
X02081Y00116*
X0208Y00125*
X02077Y00134*
X02071Y00141*
X02066Y00145*
X02067Y0015*
X02067Y0015*
X02071Y00153*
X02074Y00158*
X02075Y00163*
X02074Y00168*
X02071Y00173*
X02073Y00178*
X02136*
Y0015*
G37*
G36*
X01411Y00122D02*
X0141Y00116D01*
X01411Y00106*
X01415Y00098*
X0142Y0009*
X01428Y00085*
X01436Y00081*
X01446Y0008*
X01455Y00081*
X01464Y00085*
X01471Y0009*
X01477Y00098*
X0148Y00106*
X01481Y00116*
X01481Y00121*
X01482Y00123*
X01485Y00124*
X0149Y00124*
X01493Y00124*
X01498Y00121*
Y001*
X01498Y00096*
X015Y00093*
X01516Y00078*
X01514Y00073*
X01284*
X01283Y00078*
X01299Y00094*
X01301Y00097*
X01302Y00101*
Y0014*
X01308Y00146*
X01319*
X0132Y00142*
X0132Y00141*
X01315Y00134*
X01311Y00125*
X0131Y00116*
X01311Y00106*
X01315Y00098*
X0132Y0009*
X01328Y00085*
X01336Y00081*
X01346Y0008*
X01355Y00081*
X01364Y00085*
X01371Y0009*
X01377Y00098*
X0138Y00106*
X01381Y00116*
X0138Y00125*
X01377Y00134*
X01371Y00141*
X01371Y00142*
X01373Y00146*
X01387*
X01411Y00122*
G37*
G36*
X00808Y00214D02*
X00798Y00205D01*
X00796Y00202*
X00796Y00198*
Y00156*
X00796Y00153*
X00798Y0015*
X00815Y00134*
X00811Y00125*
X0081Y00116*
X00811Y00106*
X00815Y00098*
X0082Y0009*
X00828Y00085*
X00836Y00081*
X00846Y0008*
X00855Y00081*
X00864Y00085*
X00871Y0009*
X00877Y00098*
X0088Y00106*
X00881Y00116*
X0088Y00125*
X00877Y00132*
X00881Y00135*
X00891Y00126*
Y00093*
X0089Y00093*
X00887Y00088*
X00886Y00083*
X00887Y00078*
X00885Y00073*
X00716*
X00705Y00083*
Y00111*
X0071Y00112*
X00711Y00106*
X00715Y00098*
X0072Y0009*
X00728Y00085*
X00736Y00081*
X00746Y0008*
X00755Y00081*
X00764Y00085*
X00771Y0009*
X00777Y00098*
X0078Y00106*
X00781Y00116*
X0078Y00125*
X00777Y00134*
X00771Y00141*
X00764Y00147*
X00755Y0015*
Y00191*
X00782Y00218*
X00806*
X00808Y00214*
G37*
G36*
X00714Y00204D02*
X00715Y00202D01*
X00689Y00176*
X00687Y00173*
X00687Y00169*
Y00079*
X00687Y00076*
X00689Y00073*
X00697Y00065*
X00695Y00061*
X00595*
X00593Y00065*
X00602Y00075*
X00604Y00078*
X00605Y00083*
Y00112*
X0061Y00112*
X00611Y00106*
X00615Y00098*
X0062Y0009*
X00628Y00085*
X00636Y00081*
X00646Y0008*
X00655Y00081*
X00664Y00085*
X00671Y0009*
X00677Y00098*
X0068Y00106*
X00681Y00116*
X0068Y00125*
X00677Y00134*
X00671Y00141*
X00664Y00147*
X00659Y00149*
X00658Y00154*
X00709Y00205*
X00714Y00204*
G37*
%LNpcb1-2*%
%LPC*%
G36*
X02225Y00752D02*
X0219D01*
X02191Y0075*
X02195Y00745*
X02195Y00744*
Y00739*
X02195Y00739*
X02191Y00733*
X0219Y00731*
X02225*
X02224Y00733*
X0222Y00739*
X0222Y00739*
Y00744*
X0222Y00745*
X02224Y0075*
X02225Y00752*
G37*
G36*
Y00721D02*
X0219D01*
X02191Y00719*
X02195Y00713*
X022Y0071*
X022Y00707*
X022Y00704*
X02195Y00701*
X02191Y00695*
X0219Y00693*
X02225*
X02224Y00695*
X0222Y00701*
X02215Y00704*
X02215Y00707*
X02215Y0071*
X0222Y00713*
X02224Y00719*
X02225Y00721*
G37*
G36*
X02224Y00608D02*
X0219D01*
X0219Y00606*
X02194Y006*
X02196Y00599*
Y00593*
X02193Y00591*
X02189Y00585*
X02189Y00583*
X02223*
X02223Y00585*
X02219Y00591*
X02217Y00592*
Y00598*
X0222Y006*
X02224Y00606*
X02224Y00608*
G37*
G36*
X02223Y00573D02*
X02211D01*
Y00561*
X02213Y00561*
X02219Y00565*
X02223Y00571*
X02223Y00573*
G37*
G36*
X02201D02*
X02189D01*
X02189Y00571*
X02193Y00565*
X02199Y00561*
X02201Y00561*
Y00573*
G37*
G36*
X02217Y00496D02*
Y00483D01*
X02229*
X02229Y00485*
X02225Y00491*
X02219Y00495*
X02217Y00496*
G37*
G36*
X02207D02*
X02205Y00495D01*
X02199Y00491*
X02195Y00485*
X02195Y00483*
X02207*
Y00496*
G37*
G36*
X02229Y00473D02*
X02195D01*
X02195Y00471*
X02199Y00465*
X02201Y00464*
Y00458*
X022Y00457*
X02196Y00451*
X02196Y00449*
X0223*
X0223Y00451*
X02226Y00457*
X02223Y00459*
Y00465*
X02225Y00465*
X02229Y00471*
X02229Y00473*
G37*
G36*
X0223Y00439D02*
X02196D01*
X02196Y00437*
X022Y00431*
X02202Y0043*
Y00424*
X022Y00423*
X02196Y00417*
X02196Y00415*
X0223*
X0223Y00417*
X02226Y00423*
X02224Y00424*
Y0043*
X02226Y00431*
X0223Y00437*
X0223Y00439*
G37*
G36*
Y00405D02*
X02196D01*
X02196Y00403*
X022Y00397*
Y00394*
X02196Y00388*
X02196Y00386*
X0223*
X0223Y00388*
X02226Y00394*
Y00397*
X0223Y00403*
X0223Y00405*
G37*
G36*
Y00376D02*
X02196D01*
X02196Y00374*
X022Y00369*
X02203Y00367*
Y00361*
X02202Y0036*
X02198Y00354*
X02197Y00352*
X02232*
X02231Y00354*
X02227Y0036*
X02225Y00362*
Y00368*
X02226Y00369*
X0223Y00374*
X0223Y00376*
G37*
G36*
X02232Y00342D02*
X02197D01*
X02198Y0034*
X02202Y00334*
X02206Y00331*
X02206Y0033*
Y00327*
X02206Y00326*
X02202Y00323*
X02198Y00317*
X02197Y00315*
X02232*
X02231Y00317*
X02227Y00323*
X02223Y00326*
X02223Y00327*
Y0033*
X02223Y00331*
X02227Y00334*
X02231Y0034*
X02232Y00342*
G37*
G36*
Y00305D02*
X02197D01*
X02198Y00303*
X02202Y00297*
X02204Y00295*
X02204Y00294*
X02204Y00289*
X02199Y00286*
X02195Y00281*
X02195Y00279*
X02229*
X02229Y00281*
X02225Y00286*
X02223Y00288*
X02222Y00289*
X02223Y00294*
X02227Y00297*
X02231Y00303*
X02232Y00305*
G37*
G36*
X02041Y0026D02*
X02029D01*
Y00248*
X02031Y00249*
X02037Y00253*
X02041Y00258*
X02041Y0026*
G37*
G36*
X02019D02*
X02007D01*
X02007Y00258*
X02011Y00253*
X02017Y00249*
X02019Y00248*
Y0026*
G37*
G36*
X02229Y00269D02*
X02195D01*
X02195Y00267*
X02199Y00261*
X02203Y00258*
X02203Y00252*
X022Y0025*
X02196Y00244*
X02195Y00242*
X0223*
X02229Y00244*
X02225Y0025*
X02222Y00253*
X02222Y00258*
X02225Y00261*
X02229Y00267*
X02229Y00269*
G37*
G36*
X0223Y00232D02*
X02195D01*
X02196Y0023*
X022Y00224*
X02202Y00223*
Y00217*
X02199Y00215*
X02195Y00209*
X02195Y00207*
X02229*
X02229Y00209*
X02225Y00215*
X02223Y00216*
Y00223*
X02225Y00224*
X02229Y0023*
X0223Y00232*
G37*
G36*
X00351Y00755D02*
Y00721D01*
X00385*
X00384Y00726*
X0038Y00736*
X00374Y00744*
X00366Y0075*
X00356Y00754*
X00351Y00755*
G37*
G36*
X00341D02*
X00335Y00754D01*
X00326Y0075*
X00317Y00744*
X00311Y00736*
X00307Y00726*
X00306Y00721*
X00341*
Y00755*
G37*
G36*
X00285Y00755D02*
X00251D01*
Y00721*
X00285*
Y00755*
G37*
G36*
X00241D02*
X00206D01*
Y00721*
X00241*
Y00755*
G37*
G36*
X00746Y00752D02*
X00736Y0075D01*
X00728Y00747*
X0072Y00741*
X00715Y00734*
X00711Y00725*
X0071Y00716*
X00711Y00706*
X00715Y00698*
X0072Y0069*
X00728Y00685*
X00736Y00681*
X00746Y0068*
X00755Y00681*
X00764Y00685*
X00771Y0069*
X00777Y00698*
X0078Y00706*
X00781Y00716*
X0078Y00725*
X00777Y00734*
X00771Y00741*
X00764Y00747*
X00755Y0075*
X00746Y00752*
G37*
G36*
X00646D02*
X00636Y0075D01*
X00628Y00747*
X0062Y00741*
X00615Y00734*
X00611Y00725*
X0061Y00716*
X00611Y00706*
X00615Y00698*
X0062Y0069*
X00628Y00685*
X00636Y00681*
X00646Y0068*
X00655Y00681*
X00664Y00685*
X00671Y0069*
X00677Y00698*
X0068Y00706*
X00681Y00716*
X0068Y00725*
X00677Y00734*
X00671Y00741*
X00664Y00747*
X00655Y0075*
X00646Y00752*
G37*
G36*
X00446D02*
X00436Y0075D01*
X00428Y00747*
X0042Y00741*
X00415Y00734*
X00411Y00725*
X0041Y00716*
X00411Y00706*
X00415Y00698*
X0042Y0069*
X00428Y00685*
X00436Y00681*
X00446Y0068*
X00455Y00681*
X00464Y00685*
X00471Y0069*
X00477Y00698*
X0048Y00706*
X00481Y00716*
X0048Y00725*
X00477Y00734*
X00471Y00741*
X00464Y00747*
X00455Y0075*
X00446Y00752*
G37*
G36*
X00385Y00711D02*
X00351D01*
Y00676*
X00356Y00677*
X00366Y00681*
X00374Y00688*
X0038Y00696*
X00384Y00705*
X00385Y00711*
G37*
G36*
X00341D02*
X00306D01*
X00307Y00705*
X00311Y00696*
X00317Y00688*
X00326Y00681*
X00335Y00677*
X00341Y00676*
Y00711*
G37*
G36*
X00285D02*
X00251D01*
Y00676*
X00285*
Y00711*
G37*
G36*
X00241D02*
X00206D01*
Y00676*
X00241*
Y00711*
G37*
G36*
X00223Y00667D02*
Y00655D01*
X00235*
X00234Y00657*
X00231Y00663*
X00225Y00667*
X00223Y00667*
G37*
G36*
X00213D02*
X00211Y00667D01*
X00205Y00663*
X00201Y00657*
X002Y00655*
X00213*
Y00667*
G37*
G36*
X00235Y00645D02*
X00223D01*
Y00633*
X00225Y00633*
X00231Y00637*
X00234Y00643*
X00235Y00645*
G37*
G36*
X00213D02*
X002D01*
X00201Y00643*
X00205Y00637*
X00211Y00633*
X00213Y00633*
Y00645*
G37*
G36*
X00297Y00631D02*
Y00619D01*
X00309*
X00309Y00621*
X00305Y00627*
X00299Y00631*
X00297Y00631*
G37*
G36*
X00287D02*
X00285Y00631D01*
X00279Y00627*
X00275Y00621*
X00275Y00619*
X00287*
Y00631*
G37*
G36*
X00528Y00642D02*
X00479D01*
Y00619*
X00465*
Y00631*
X00425*
Y00584*
X00465*
X00465*
X00469Y00581*
Y00568*
X00467Y00566*
X00466Y0056*
X00467Y00555*
X0047Y0055*
X00475Y00547*
X0048Y00546*
X00486Y00547*
X0049Y0055*
X00493Y00555*
X00494Y0056*
X00493Y00566*
X00491Y00568*
Y00576*
X00528*
Y00642*
G37*
G36*
X00652Y00646D02*
X00628D01*
Y00614*
X00652*
Y00646*
G37*
G36*
X00561D02*
X00538D01*
Y00614*
X00561*
Y00646*
G37*
G36*
X00414Y00635D02*
X00395D01*
Y00612*
X00414*
Y00635*
G37*
G36*
X00385D02*
X00366D01*
Y00612*
X00385*
Y00635*
G37*
G36*
X00309Y00609D02*
X00297D01*
Y00596*
X00299Y00597*
X00305Y00601*
X00309Y00607*
X00309Y00609*
G37*
G36*
X00287D02*
X00275D01*
X00275Y00607*
X00279Y00601*
X00285Y00597*
X00287Y00596*
Y00609*
G37*
G36*
X00414Y00602D02*
X00395D01*
Y0058*
X00414*
Y00602*
G37*
G36*
X00385D02*
X00366D01*
Y0058*
X00385*
Y00602*
G37*
G36*
X00561Y00604D02*
X00538D01*
Y00572*
X00561*
Y00604*
G37*
G36*
X00169Y0061D02*
X00141D01*
X00134Y00609*
X00126Y00606*
X0012Y00601*
X00115Y00595*
X00112Y00587*
X00111Y0058*
X00112Y00572*
X00115Y00565*
X0012Y00559*
X00126Y00554*
X00134Y00551*
X00141Y0055*
X00169*
X00177Y00551*
X00184Y00554*
X0019Y00559*
X00195Y00565*
X00198Y00572*
X00199Y0058*
X00198Y00587*
X00195Y00595*
X0019Y00601*
X00184Y00606*
X00177Y00609*
X00169Y0061*
G37*
G36*
X00368Y00543D02*
Y00531D01*
X0038*
X00379Y00533*
X00376Y00539*
X0037Y00542*
X00368Y00543*
G37*
G36*
X00358D02*
X00356Y00542D01*
X0035Y00539*
X00346Y00533*
X00346Y00531*
X00358*
Y00543*
G37*
G36*
X00635Y00482D02*
X00633Y00481D01*
X00627Y00478*
X00624Y00472*
X00623Y0047*
X00635*
Y00482*
G37*
G36*
X00299Y00554D02*
X00235D01*
X00231Y00553*
X00227Y00551*
X00191Y00514*
X00188Y00511*
X00188Y00506*
Y00304*
X00188Y003*
X00191Y00296*
X00227Y00261*
X0023Y00258*
X00235Y00257*
X00249*
X00252Y00255*
X00257Y00254*
X00263Y00255*
X00267Y00258*
X0027Y00263*
X00272Y00268*
X0027Y00274*
X00267Y00278*
X00263Y00282*
X00257Y00283*
X00252Y00282*
X00249Y0028*
X00239*
X0021Y00309*
Y00502*
X0024Y00532*
X00256*
X00257Y00527*
X00256Y00526*
X0025Y00522*
X00246Y00516*
X00243Y0051*
X00242Y00503*
X00243Y00496*
X00246Y00489*
X0025Y00484*
X00256Y0048*
X00262Y00477*
X00269Y00476*
X00277*
X00284Y00477*
X00291Y0048*
X00296Y00484*
X003Y00489*
X00303Y00496*
X00304Y00503*
X00303Y0051*
X003Y00516*
X00296Y00522*
X00292Y00525*
X00293Y0053*
X00295Y00531*
X00311Y00515*
X00312Y00511*
X00315Y00507*
X00319Y00504*
X00325Y00503*
X00329Y00504*
X00334Y00501*
Y00462*
X00364*
X00393*
Y00514*
X00382*
X00379Y00518*
X0038Y00519*
X0038Y00521*
X00346*
Y00521*
X00344Y00517*
X00342Y00516*
X0034Y00516*
X00339Y00517*
X00338Y00522*
X00335Y00527*
X0033Y0053*
X00327Y00531*
X00307Y00551*
X00303Y00553*
X00299Y00554*
G37*
G36*
X00635Y0046D02*
X00623D01*
X00624Y00458*
X00627Y00452*
X00633Y00448*
X00635Y00448*
Y0046*
G37*
G36*
X00393Y00452D02*
X00369D01*
Y004*
X00393*
Y00452*
G37*
G36*
X00307Y00455D02*
X00302Y00454D01*
X00297Y00451*
X00294Y00446*
X00293Y00441*
X00294Y00435*
X00297Y00431*
X00302Y00428*
X00302Y00428*
X00321Y00409*
Y00399*
X00319Y00396*
X00318Y00391*
X00319Y00385*
X00322Y00381*
X00327Y00378*
X00332Y00377*
X00338Y00378*
X00342Y00381*
X00345Y00385*
X00346Y00391*
X00346Y00395*
X00348Y00399*
X00349Y004*
X00359*
Y00452*
X00334*
Y00434*
X00329Y00432*
X00321Y0044*
X00322Y00441*
X0032Y00446*
X00317Y00451*
X00313Y00454*
X00307Y00455*
G37*
G36*
X00343Y00355D02*
Y00343D01*
X00355*
X00355Y00344*
X00351Y0035*
X00345Y00354*
X00343Y00355*
G37*
G36*
X00333D02*
X00331Y00354D01*
X00325Y0035*
X00321Y00344*
X00321Y00343*
X00333*
Y00355*
G37*
G36*
X00355Y00333D02*
X00343D01*
Y0032*
X00345Y00321*
X00351Y00325*
X00355Y00331*
X00355Y00333*
G37*
G36*
X00333D02*
X00321D01*
X00321Y00331*
X00325Y00325*
X00331Y00321*
X00333Y0032*
Y00333*
G37*
G36*
X00277Y00355D02*
X00269D01*
X00262Y00354*
X00256Y00351*
X0025Y00347*
X00246Y00341*
X00243Y00335*
X00242Y00328*
X00243Y00321*
X00246Y00314*
X0025Y00309*
X00256Y00304*
X00262Y00302*
X00269Y00301*
X00277*
X00284Y00302*
X00291Y00304*
X00296Y00309*
X003Y00314*
X00303Y00321*
X00304Y00328*
X00303Y00335*
X003Y00341*
X00296Y00347*
X00291Y00351*
X00284Y00354*
X00277Y00355*
G37*
G36*
X00169Y00281D02*
X00141D01*
X00134Y0028*
X00126Y00277*
X0012Y00272*
X00115Y00266*
X00112Y00259*
X00111Y00251*
X00112Y00243*
X00115Y00236*
X0012Y0023*
X00126Y00225*
X00134Y00222*
X00141Y00221*
X00169*
X00177Y00222*
X00184Y00225*
X0019Y0023*
X00195Y00236*
X00198Y00243*
X00199Y00251*
X00198Y00259*
X00195Y00266*
X0019Y00272*
X00184Y00277*
X00177Y0028*
X00169Y00281*
G37*
G36*
X00176Y00158D02*
Y00146D01*
X00188*
X00188Y00148*
X00184Y00154*
X00178Y00158*
X00176Y00158*
G37*
G36*
X00166D02*
X00164Y00158D01*
X00158Y00154*
X00154Y00148*
X00154Y00146*
X00166*
Y00158*
G37*
G36*
X00188Y00136D02*
X00176D01*
Y00124*
X00178Y00124*
X00184Y00128*
X00188Y00134*
X00188Y00136*
G37*
G36*
X00166D02*
X00154D01*
X00154Y00134*
X00158Y00128*
X00164Y00124*
X00166Y00124*
Y00136*
G37*
G36*
X00451Y00155D02*
Y00121D01*
X00485*
X00484Y00126*
X0048Y00136*
X00474Y00144*
X00466Y0015*
X00456Y00154*
X00451Y00155*
G37*
G36*
X00441D02*
X00435Y00154D01*
X00426Y0015*
X00417Y00144*
X00411Y00136*
X00407Y00126*
X00406Y00121*
X00441*
Y00155*
G37*
G36*
X00351D02*
Y00121D01*
X00385*
X00384Y00126*
X0038Y00136*
X00374Y00144*
X00366Y0015*
X00356Y00154*
X00351Y00155*
G37*
G36*
X00341D02*
X00335Y00154D01*
X00326Y0015*
X00317Y00144*
X00311Y00136*
X00307Y00126*
X00306Y00121*
X00341*
Y00155*
G37*
G36*
X01991Y00657D02*
X01968D01*
Y00638*
X01991*
Y00657*
G37*
G36*
X01943Y00658D02*
X01922D01*
Y00638*
X01943*
Y00658*
G37*
G36*
X01746Y00653D02*
Y00641D01*
X01758*
X01757Y00643*
X01754Y00649*
X01748Y00653*
X01746Y00653*
G37*
G36*
X01101Y00443D02*
X01089D01*
Y00431*
X01091Y00432*
X01097Y00436*
X01101Y00442*
X01101Y00443*
G37*
G36*
X01122Y00392D02*
Y0038D01*
X01134*
X01133Y00382*
X0113Y00387*
X01124Y00391*
X01122Y00392*
G37*
G36*
X01687Y00378D02*
X01678D01*
Y00361*
X01707*
X01707Y00365*
X01702Y00371*
X01695Y00376*
X01687Y00378*
G37*
G36*
X01707Y00351D02*
X01678D01*
Y00335*
X01687*
X01695Y00337*
X01702Y00341*
X01707Y00348*
X01707Y00351*
G37*
G36*
X01398Y00244D02*
X01376D01*
Y00224*
X01398*
Y00244*
G37*
%LNpcb1-3*%
%LPD*%
G54D11*
X02129Y00526D02*
X02165D01*
X02052Y00449D02*
X02129Y00526D01*
X02012Y00449D02*
X02052D01*
G54D16*
X01447Y00613D03*
X01392D03*
X0222Y00528D03*
X02165D03*
X00921Y00611D03*
X00866D03*
X00445Y00607D03*
X0039D03*
G54D17*
X01864Y00591D03*
X01917D03*
X01864Y00633D03*
X01917D03*
X01403Y00249D03*
Y00198D03*
G54D21*
X01996Y00578D03*
Y00633D03*
X02044Y00578D03*
Y00633D03*
X01789Y00639D03*
Y00583D03*
X00711Y00508D03*
Y00453D03*
X00692Y00314D03*
Y00369D03*
G54D22*
X01995Y00207D03*
X01944D03*
X01769Y00218D03*
X01718D03*
X01597Y00237D03*
X01648D03*
X02157Y00421D03*
X02106D03*
X02151Y00218D03*
X021D03*
G54D63*
X02092Y00686D02*
X02159Y0062D01*
X00978Y00296D02*
X01011Y00328D01*
X01397Y00399D02*
X01409Y00412D01*
X01442*
X01464Y00434*
X0139Y00406D02*
X01397Y00399D01*
X01669Y00591D02*
X01684Y00576D01*
X01649Y00591D02*
X01669D01*
X01622Y00617D02*
Y00658D01*
Y00617D02*
X01649Y00591D01*
X01864Y00639D02*
X01869Y00633D01*
X01824Y00639D02*
X01864D01*
X01924Y00163D02*
X02061D01*
X01913Y00174D02*
X01924Y00163D01*
X01848Y00174D02*
X01913D01*
X01911Y00193D02*
Y00238D01*
Y00193D02*
X01927Y00178D01*
X02052*
X01833Y00139D02*
X01847Y00153D01*
X01833Y00139D02*
X01846D01*
Y00116D02*
Y00139D01*
X01847Y00153D02*
X01879D01*
X01011Y00328D02*
Y00428D01*
X00987Y00452D02*
X01011Y00428D01*
X00944Y00452D02*
X00987D01*
X00867Y00322D02*
X0088Y00334D01*
X00903Y00315D02*
X00944D01*
X00882Y00294D02*
X00903Y00315D01*
X00882Y00275D02*
Y00294D01*
X00905Y00238D02*
Y0028D01*
X00919Y00295*
X00944*
X00946Y00276D02*
X00975D01*
X00933Y00263D02*
X00946Y00276D01*
X00933Y00209D02*
Y00263D01*
X01165Y00422D02*
Y00478D01*
Y00422D02*
X01188Y00399D01*
X01231*
X01248Y00413D02*
X01277D01*
X01223Y00438D02*
X01248Y00413D01*
X01223Y00438D02*
Y00526D01*
X01509Y00246D02*
Y00302D01*
X01475Y00336D02*
X01509Y00302D01*
X01368Y00336D02*
X01475D01*
X01429Y00379D02*
X01489D01*
X01522Y00347*
X01778Y00383D02*
X01784Y0039D01*
X01817*
X01778Y00383D02*
Y00387D01*
X01779Y00388*
X0176Y00356D02*
Y0037D01*
Y00356D02*
X01765Y00351D01*
X01778*
X01797Y0037*
X01758Y00326D02*
X0177D01*
X01795Y0035*
X01817*
X01797Y0037D02*
X01817D01*
X01752Y00377D02*
X0176Y0037D01*
X01779Y00413D02*
Y00415D01*
X01778Y00415D02*
X01779Y00415D01*
X01778Y00415D02*
X01779Y00416D01*
X01633Y00522D02*
X01651Y0054D01*
X01633Y00477D02*
Y00522D01*
X01599Y00592D02*
X01651Y0054D01*
X01621Y00491D02*
Y00537D01*
X01599Y00504D02*
X01603Y005D01*
X01587Y00493D02*
Y00514D01*
Y00493D02*
X01587Y00493D01*
Y00477D02*
Y00493D01*
X01574Y00488D02*
Y00519D01*
Y00488D02*
X01575Y00488D01*
Y00466D02*
Y00488D01*
X01557Y00484D02*
Y00485D01*
X01599Y00504D02*
Y00509D01*
X01587Y00514D02*
X01587Y00514D01*
X01574Y00519D02*
X01575Y00519D01*
X01557Y00484D02*
X01558Y00484D01*
X00976Y00662D02*
X00989Y00648D01*
X01019*
X01007Y00631D02*
X01041Y00597D01*
Y00569D02*
Y00597D01*
X01042Y00621D02*
X01061Y00602D01*
X01026Y00642D02*
X01049D01*
X01072Y00665*
X00924Y00537D02*
X00938Y00526D01*
X00911Y00537D02*
X00924D01*
X00938Y00526D02*
X00984D01*
X00866Y00546D02*
X00884Y00563D01*
X00866Y00523D02*
Y00546D01*
X00855Y00365D02*
Y00518D01*
X00803Y00574D02*
X00854Y00523D01*
Y00518D02*
Y00523D01*
Y00518D02*
X00855Y00518D01*
X00866Y00523D02*
X00867Y00523D01*
Y00414D02*
Y00523D01*
X00883Y0053D02*
X0089D01*
X00646Y00155D02*
X0073Y0024D01*
X00646Y00116D02*
Y00155D01*
X00975Y00259D02*
X00976D01*
X00975Y00276D02*
X00983Y00283D01*
X01277Y00353D02*
X01303D01*
X01356Y00406D02*
Y00469D01*
X01303Y00353D02*
X01356Y00406D01*
X01344Y00414D02*
Y00464D01*
X01302Y00373D02*
X01344Y00414D01*
X01289Y00373D02*
X01302D01*
X01438Y00538D02*
X01496D01*
X01331Y00423D02*
Y00459D01*
X01302Y00393D02*
X01331Y00423D01*
X01277Y00393D02*
X01302D01*
X01363Y00486D02*
Y00488D01*
Y00486D02*
X01369D01*
X0139Y00506*
X01346Y00479D02*
Y00521D01*
X01334Y00474D02*
Y00526D01*
X01321Y00469D02*
Y00532D01*
X01346Y00479D02*
X01356Y00469D01*
X01334Y00474D02*
X01344Y00464D01*
X01321Y00469D02*
X01331Y00459D01*
X01286Y00452D02*
X01315D01*
X01346Y00521D02*
X01363Y00538D01*
X01334Y00526D02*
X01357Y0055D01*
X01321Y00532D02*
X01354Y00564D01*
X01425Y00399D02*
X01447D01*
X01411Y00386D02*
X01425Y00399D01*
X01411Y00372D02*
Y00386D01*
X01447Y00399D02*
X01466Y00419D01*
X01411Y00372D02*
X01411Y00372D01*
Y00364D02*
Y00372D01*
X01404Y00356D02*
X01411Y00364D01*
X01347Y00298D02*
X01348D01*
X01375*
X01357Y00312D02*
X01384D01*
X01338Y00332D02*
X01357Y00312D01*
X01363Y00324D02*
X01467D01*
X01328Y00359D02*
X01363Y00324D01*
X01342Y00362D02*
X01368Y00336D01*
X01312Y00298D02*
X01323D01*
X01327Y00294*
X0133Y00315D02*
X01347Y00298D01*
X01277Y00315D02*
X0133D01*
X0133Y00332D02*
X01338D01*
X01303Y00334D02*
X01328Y00359D01*
X01327Y00172D02*
Y00294D01*
X01277Y00315D02*
X01277Y00315D01*
X01342Y00362D02*
Y00369D01*
X01328Y00359D02*
D01*
X02139Y00355D02*
X02156D01*
X02139D02*
X02153Y0034D01*
X02156Y00355D02*
X02163Y00361D01*
X01917Y00591D02*
X0193Y00605D01*
X02032*
X02039Y00598*
Y00579D02*
Y00598D01*
X01965Y00572D02*
X01972Y00579D01*
X01989*
X0201Y00634D02*
X02039D01*
X02084Y0056D02*
Y00669D01*
X02081Y00672D02*
X02084Y00669D01*
X01989Y00672D02*
X02081D01*
X02068Y00543D02*
X02084Y0056D01*
X00785Y00407D02*
X0081Y00381D01*
X0076Y00407D02*
X00785D01*
X0109Y00639D02*
Y00646D01*
X01088Y00637D02*
X0109Y00639D01*
X01115Y00638D02*
X0112Y00633D01*
X01115Y00638D02*
X01118D01*
X01137Y00607D02*
Y00652D01*
Y00607D02*
X0114Y00604D01*
X01158Y00628D02*
X01159Y00627D01*
Y0057D02*
Y00627D01*
X01153Y00628D02*
X01158D01*
X0147Y00618D02*
X01483Y00605D01*
X01179Y0064D02*
X01254D01*
X01179Y00569D02*
Y0064D01*
X012Y00615D02*
Y00622D01*
Y00621D02*
Y00622D01*
X01228Y00611D02*
X01228Y00611D01*
X01159Y0057D02*
X01159Y00569D01*
X01137Y00652D02*
X01259D01*
X01099Y00665D02*
X01376D01*
X01104Y00677D02*
X01361D01*
X0114Y00569D02*
Y00604D01*
X0112Y00569D02*
Y00633D01*
X01088Y00637D02*
X011Y00625D01*
X01002Y00631D02*
X01007D01*
X01019Y00648D02*
X01026Y00642D01*
X00974Y00634D02*
X00997Y00612D01*
X00974Y00634D02*
Y00638D01*
X00997Y00612D02*
X01006D01*
X00897Y00649D02*
X00964D01*
X00974Y00638*
X00973Y00598D02*
X00978Y00603D01*
X00974Y00607D02*
X00975D01*
X00978Y00603*
X01199Y00614D02*
X012Y00615D01*
X01199Y00569D02*
Y00614D01*
X011Y00569D02*
Y00625D01*
X01072Y00665D02*
X01099D01*
X01104Y00677D02*
D01*
X01084D02*
X01104D01*
X01046Y00716D02*
X01084Y00677D01*
X01099Y00665D02*
Y00665D01*
X01472Y00231D02*
X01497Y00207D01*
Y00198D02*
Y00207D01*
X01466Y00209D02*
X01468D01*
X01482Y00184D02*
X01497Y00198D01*
X01522Y00252D02*
Y00347D01*
Y00252D02*
X01547Y00227D01*
X01559Y00267D02*
X01561D01*
X01712Y00195D02*
X01724Y00182D01*
X0181*
X01712Y00195D02*
Y00262D01*
X0181Y00182D02*
X01814D01*
X0181Y00182D02*
X0181Y00182D01*
X01814D02*
X01859Y00227D01*
X01758Y00254D02*
Y00326D01*
X01711Y00262D02*
X01712D01*
X01684Y00211D02*
Y00279D01*
X01672Y00216D02*
Y00309D01*
X01668Y00212D02*
X01672Y00216D01*
X01668Y00212D02*
Y00212D01*
X01646Y0019D02*
X01668Y00212D01*
X01639Y00248D02*
X01649Y00238D01*
X01648Y00237D02*
X01649Y00238D01*
X01711Y00261D02*
D01*
X01713Y00264*
X01711Y00261D02*
X01711Y00262D01*
X01707Y0017D02*
X01805D01*
X01698Y00161D02*
X01707Y0017D01*
X01805Y0017D02*
X01844D01*
X01805Y0017D02*
X01805Y0017D01*
X01844D02*
X01848Y00174D01*
X01285Y00451D02*
X01286Y00452D01*
X00955Y00238D02*
X00959D01*
X0096Y00237*
X00955Y00238D02*
X00963D01*
X00963Y00238*
X0096Y00237D02*
X01002D01*
X00983Y00283D02*
X00983D01*
X00997Y0028D02*
X01089D01*
X00988Y00271D02*
X00997Y0028D01*
X00988Y00271D02*
X00988D01*
X00863Y00228D02*
X00868Y00234D01*
X00976Y00259D02*
X00988Y00271D01*
X00944Y00295D02*
X00944Y00295D01*
X00905Y00222D02*
Y00238D01*
X00889Y00207D02*
X00905Y00222D01*
X00925Y00201D02*
X00933Y00209D01*
X00863Y00166D02*
Y00228D01*
X00866Y00234D02*
X00868D01*
X00805Y00156D02*
X00846Y00116D01*
X00805Y00198D02*
X00882Y00275D01*
X00805Y00156D02*
Y00198D01*
X0088Y00334D02*
X00944D01*
X00867Y00277D02*
Y00322D01*
X00817Y00228D02*
X00867Y00277D01*
X00778Y00228D02*
X00817D01*
X00746Y00195D02*
X00778Y00228D01*
X00746Y00116D02*
Y00195D01*
X00882Y00354D02*
X00944D01*
X00855Y00327D02*
X00882Y00354D01*
X00855Y00283D02*
Y00327D01*
X00843Y00271D02*
X00855Y00283D01*
X00843Y00271D02*
Y00271D01*
X00812Y0024D02*
X00843Y00271D01*
X0073Y0024D02*
X00812D01*
X0063Y00185D02*
Y00195D01*
X00582Y00243D02*
X0063Y00195D01*
X00831Y00276D02*
Y0031D01*
X00807Y00252D02*
X00831Y00276D01*
X00676Y00252D02*
X00807D01*
X01096Y00293D02*
X01107Y00281D01*
X00992Y00293D02*
X01096D01*
X00983Y00283D02*
X00992Y00293D01*
X01094Y00322D02*
X01098D01*
X01023Y00392D02*
X01094Y00322D01*
X01089Y0028D02*
X01102Y00268D01*
X00945Y00296D02*
X00978D01*
X00944Y00295D02*
X00945Y00296D01*
X00363Y00529D02*
X00368Y00533D01*
X00576*
X00353Y00526D02*
X00363D01*
X00292Y00587D02*
X00353Y00526D01*
X00363D02*
Y00529D01*
X02159Y00595D02*
Y0062D01*
X01189Y00191D02*
X01219Y00161D01*
X01168Y00201D02*
X01178Y00211D01*
X01168Y00161D02*
Y00201D01*
Y00161D02*
X01193Y00136D01*
X01187Y00189D02*
Y0019D01*
X01178Y00211D02*
X01179D01*
X0114Y00203D02*
X01156Y00187D01*
Y00174D02*
Y00187D01*
X01141Y00159D02*
X01156Y00174D01*
X0112Y00198D02*
X01134Y00184D01*
Y00183D02*
Y00184D01*
X017Y00539D02*
X01747Y00492D01*
Y00432D02*
Y00492D01*
X01723Y00432D02*
X01729Y00438D01*
X01707Y00432D02*
X01723D01*
X01252Y00295D02*
X01277D01*
X01239Y00308D02*
X01252Y00295D01*
X01251Y00315D02*
X01277D01*
X01228Y00337D02*
X01251Y00315D01*
X01228Y00301D02*
X01231Y00298D01*
Y00294D02*
Y00298D01*
X01229Y00293D02*
X01231Y00294D01*
X01167Y0038D02*
X01239Y00308D01*
D01*
X01421Y00299D02*
Y00306D01*
X01384Y00312D02*
X01429Y00267D01*
X01375Y00298D02*
X01403Y0027D01*
X01375Y00298D02*
X01375Y00298D01*
X01375Y00298D02*
X01375Y00298D01*
X01482Y00767D02*
X01501Y00748D01*
Y00699D02*
Y00748D01*
X01494Y00692D02*
X01501Y00699D01*
X01494Y00686D02*
Y00692D01*
X01309Y00295D02*
X01312Y00298D01*
X01277Y00295D02*
X01309D01*
X01277Y00334D02*
X01303D01*
X01549Y00653D02*
Y00659D01*
X01522D02*
X01549D01*
X0157Y00678D02*
X01582Y0069D01*
X0162D02*
X01646Y00716D01*
X01582Y0069D02*
X0162D01*
X01507Y00641D02*
Y00649D01*
X01478Y00678D02*
X01507Y00649D01*
X01494Y00636D02*
Y00644D01*
X01475Y00664D02*
X01494Y00644D01*
X01482Y00631D02*
Y00639D01*
X01469Y00652D02*
X01482Y00639D01*
X0147Y00618D02*
Y00634D01*
X01464Y00639D02*
X0147Y00634D01*
X01384Y00639D02*
X01464D01*
X01538Y00631D02*
Y00639D01*
Y00631D02*
X01543Y00627D01*
X01525Y00615D02*
Y00625D01*
X01518Y00631D02*
X01525Y00625D01*
X01512Y0061D02*
Y00618D01*
X01494Y00636D02*
X01512Y00618D01*
X015Y00605D02*
Y00613D01*
X01482Y00631D02*
X015Y00613D01*
Y00605D02*
X01521Y00584D01*
X01512Y0061D02*
X01525Y00598D01*
Y00615D02*
X0153Y0061D01*
X01592Y00654D02*
Y00658D01*
X01543Y00627D02*
X01584D01*
X01656Y00554*
X01577Y00639D02*
X01592Y00654D01*
X01563Y00639D02*
X01577D01*
X01549Y00653D02*
X01563Y00639D01*
X0157Y00656D02*
Y00678D01*
X01592Y00658D02*
X0161Y00675D01*
X01668*
X01668Y00675*
X01621Y00658D02*
X01622D01*
X0153Y0061D02*
X01557D01*
X01545Y00598D02*
X01551Y00592D01*
X01525Y00598D02*
X01545D01*
X01542Y00584D02*
X01546Y00579D01*
X01521Y00584D02*
X01542D01*
X01537Y00571D02*
X01541Y00567D01*
X01516Y00571D02*
X01537D01*
X01532Y00559D02*
X01536Y00555D01*
X01511Y00559D02*
X01532D01*
X01524Y00525D02*
Y00542D01*
X01551Y00592D02*
X01599D01*
X01546Y00579D02*
X01592D01*
X01541Y00567D02*
X01587D01*
X01536Y00555D02*
X01563D01*
X01497Y0059D02*
X01516Y00571D01*
X0149Y0059D02*
X01497D01*
X01492Y00578D02*
X01511Y00559D01*
X01433Y00578D02*
X01492D01*
X01483Y00605D02*
Y00607D01*
X01475Y0059D02*
X01476Y0059D01*
X01471Y0059D02*
X01475D01*
X01645Y00506D02*
X01673D01*
X01645Y00471D02*
Y00506D01*
X01563Y00555D02*
X01574Y00544D01*
X0149Y0059D02*
X0149Y0059D01*
X01476Y0059D02*
X0149D01*
X01434Y00559D02*
X01475D01*
X01443Y00516D02*
X01516D01*
X01409Y0055D02*
X01443Y00516D01*
X01447Y00495D02*
X01518D01*
X01404Y00538D02*
X01447Y00495D01*
X01424Y0048D02*
X0149D01*
X01433Y00434D02*
Y00447D01*
X0139Y00456D02*
X01423D01*
X01433Y00447*
X01517Y00631D02*
X01518D01*
X01507Y00641D02*
X01517Y00631D01*
X01544Y00512D02*
X01558Y00526D01*
X01575Y00519D02*
Y00533D01*
X01574Y00533D02*
X01575Y00533D01*
X01574Y00533D02*
Y00544D01*
X01587Y00514D02*
Y00538D01*
X01587Y00539D02*
X01587Y00538D01*
X01587Y00539D02*
Y00567D01*
X01599Y00509D02*
X01599Y00509D01*
Y00543*
X01599Y00544D02*
X01599Y00543D01*
X01599Y00544D02*
Y00572D01*
X0161Y0048D02*
X01621Y00491D01*
X0161Y00464D02*
Y0048D01*
X01656Y00554D02*
X01672D01*
X01684Y00576D02*
Y00576D01*
X01635Y00461D02*
X01645Y00471D01*
X01398Y00613D02*
X01433Y00578D01*
X01389Y00652D02*
X01469D01*
X01413Y00664D02*
X01475D01*
X01471Y0059D02*
D01*
X01459D02*
X01471D01*
X01587Y00477D02*
X01593Y00471D01*
X01596Y0045D02*
X0161Y00464D01*
X01565Y0045D02*
X01596D01*
X01574Y00422D02*
X01583Y00431D01*
X01593Y00361D02*
Y00378D01*
X01611Y0037D02*
Y00448D01*
X01622Y00459*
X01623Y00443D02*
X01635Y00454D01*
X01623Y00402D02*
Y00443D01*
X0164Y00431D02*
X01664Y00406D01*
X01459Y0059D02*
Y00601D01*
X01447Y00613D02*
X01459Y00601D01*
X01592Y00579D02*
X01599Y00572D01*
X01432Y00561D02*
X01434Y00559D01*
X01751Y00622D02*
X01789Y00583D01*
X01751Y00622D02*
X01751Y00622D01*
X01622Y00466D02*
X01633Y00477D01*
X01741Y00632D02*
Y00636D01*
Y00632D02*
X01751Y00622D01*
X01668Y00675D02*
X01755Y00588D01*
Y00569D02*
Y00588D01*
X01402Y00675D02*
X01413Y00664D01*
X01478Y00678D02*
Y00693D01*
X01489Y00704*
X01494Y00683D02*
Y00686D01*
X0074Y00386D02*
X0076Y00407D01*
X00827Y00337D02*
X00855Y00365D01*
X00783Y00337D02*
X00827D01*
X00758Y00362D02*
X00783Y00337D01*
X0074Y00342D02*
Y00386D01*
X00727Y00313D02*
Y00414D01*
X00752Y00438*
X0074Y00342D02*
X00771Y0031D01*
X00683Y00479D02*
X00696Y00466D01*
X01482Y00171D02*
Y00184D01*
X0151Y00167D02*
Y00211D01*
Y00167D02*
X0151Y00167D01*
X01482Y00171D02*
X01503Y0015D01*
X01504D02*
X01507Y00147D01*
X01503Y0015D02*
X01504D01*
X00752Y00438D02*
X00804D01*
X0081*
X00781Y00462D02*
X00804Y00438D01*
X00781Y00462D02*
Y00507D01*
X00886Y00495D02*
X00909Y00472D01*
X00908Y00492D02*
X00944D01*
X00903Y00497D02*
X00908Y00492D01*
X00903Y00497D02*
Y00518D01*
X00804Y00483D02*
X00828Y00507D01*
X00804Y00472D02*
Y00483D01*
X0089Y0053D02*
X00903Y00518D01*
X01432Y00561D02*
D01*
X01417Y00576D02*
X01432Y00561D01*
X01429Y00246D02*
X01466Y00209D01*
X01468Y00214D02*
X01468Y00213D01*
X01547Y00218D02*
Y00227D01*
X01509Y00246D02*
X01534Y00221D01*
Y00209D02*
Y00221D01*
X01497Y00241D02*
X01522Y00216D01*
X01497Y00241D02*
Y00295D01*
X01485Y00236D02*
X0151Y00211D01*
X01522Y00192D02*
Y00216D01*
X01485Y00236D02*
Y0026D01*
X0154Y00251D02*
Y00257D01*
X01547Y00218D02*
X01553Y00211D01*
X01534Y00209D02*
X0156Y00184D01*
X01522Y00192D02*
X01535Y00179D01*
X01485Y00137D02*
X0149D01*
X01507Y001D02*
Y00147D01*
X01535Y00179D02*
D01*
X0156Y00184D02*
X01561D01*
X01472Y00231D02*
Y00247D01*
X01553Y00211D02*
X01556D01*
X0154Y00251D02*
X01573Y00218D01*
Y00211D02*
Y00218D01*
Y00211D02*
X01584Y002D01*
X01589Y00222D02*
X01597Y00231D01*
X01589Y00222D02*
Y00222D01*
Y00222D02*
X0159D01*
X01441Y00303D02*
X01485Y0026D01*
X01537Y00288D02*
X01559Y00267D01*
X01537Y00288D02*
Y00355D01*
X01421Y00299D02*
X01472Y00247D01*
X01623Y00402D02*
X01637Y00389D01*
X01611Y0037D02*
X01672Y00309D01*
X01635Y00309D02*
Y00318D01*
X01611Y00342D02*
X01635Y00318D01*
X01593Y00361D02*
X01611Y00342D01*
D01*
X01622Y00459D02*
Y00466D01*
X01635Y00454D02*
Y00461D01*
X01563Y00465D02*
X01573D01*
X01575Y00466*
X01549Y00474D02*
X01558Y00484D01*
X01532Y00434D02*
X01563Y00465D01*
X01602Y00299D02*
Y00303D01*
X01566Y00298D02*
Y00332D01*
X01639Y00248D02*
Y00283D01*
X01582Y00323D02*
Y00339D01*
Y00323D02*
X01602Y00303D01*
X01574Y00347D02*
Y00422D01*
Y00347D02*
X01582Y00339D01*
X0176Y00427D02*
Y00435D01*
X01752Y0042D02*
X0176Y00427D01*
X01725Y00438D02*
X01729D01*
X0174Y00425D02*
X01747Y00432D01*
X01752Y00377D02*
Y0042D01*
X0174Y0037D02*
Y00425D01*
X01683Y0045D02*
X01704D01*
X01683Y00449D02*
X01683Y0045D01*
X0176Y00435D02*
X01765Y0044D01*
X0176Y00468D02*
X01781Y00446D01*
Y00438D02*
Y00446D01*
Y00438D02*
X01791Y00429D01*
X01772Y00473D02*
X01783Y00462D01*
Y00462D02*
Y00462D01*
Y00462D02*
X01794Y00452D01*
Y00449D02*
Y00452D01*
Y00449D02*
X01817D01*
X0179Y00479D02*
X01801Y00468D01*
X01772Y0051D02*
X01772Y0051D01*
X01773Y00527D02*
X01789D01*
X01755Y00545D02*
X01773Y00527D01*
X01679Y00452D02*
X01683Y00449D01*
X01678Y00452D02*
X01679Y00452D01*
X0176Y00468D02*
Y00496D01*
X01772Y00473D02*
Y0051D01*
X01743Y00514D02*
X0176Y00496D01*
X01429Y00246D02*
Y00267D01*
X01791Y00429D02*
X01817D01*
X02068Y00512D02*
X02092D01*
X02044Y00537D02*
X02068Y00512D01*
X02025Y00537D02*
X02044D01*
X02007Y00528D02*
Y00541D01*
X01996Y00552D02*
X02007Y00541D01*
Y00528D02*
X02039Y00496D01*
X02054*
X02041Y00468D02*
X02054Y00481D01*
Y00496*
X02092Y00512D02*
X02099Y0052D01*
Y00541*
X01859Y00228D02*
X01859Y00228D01*
X01859Y00228D02*
X01865D01*
X01858Y00229D02*
X01883Y00203D01*
Y00195D02*
Y00203D01*
X01885Y00259D02*
Y00302D01*
X01904Y00259D02*
X01905Y00259D01*
X01904Y00259D02*
Y00259D01*
X01882Y00262D02*
X01885Y00259D01*
X01877Y00262D02*
X01882D01*
X01865Y00275D02*
Y00302D01*
X01858Y00268D02*
X01865Y00275D01*
X01839Y00268D02*
X01858D01*
X01607Y00118D02*
Y00135D01*
X0159Y00102D02*
X01607Y00118D01*
X01531Y00076D02*
X01691D01*
X00712Y00064D02*
X01748D01*
X01696Y00162D02*
X01697D01*
X01684Y00279D02*
X01747Y00342D01*
X0168Y00207D02*
X01684Y00211D01*
X0168Y00207D02*
Y00207D01*
X01679Y00206D02*
X0168Y00207D01*
X01679Y00155D02*
Y00206D01*
X01718Y00116D02*
X01746D01*
X01679Y00155D02*
X01718Y00116D01*
X01697Y00162D02*
X01698Y00161D01*
X01764Y00217D02*
X01789D01*
X01839Y00268*
X01739Y00573D02*
Y00576D01*
X01736Y00571D02*
X01739Y00573D01*
X01755Y00569D02*
X01755Y00569D01*
X01755Y00569D02*
D01*
X01755Y00569D01*
X01755Y00545D02*
Y00569D01*
X01668Y00675D02*
X01698D01*
X01516Y00516D02*
X01524Y00525D01*
X01412Y00564D02*
X01438Y00538D01*
X01291Y00576D02*
X01417D01*
X01363Y00538D02*
X01404D01*
X01066Y00456D02*
X01089Y0048D01*
X01059Y00486D02*
X01074D01*
X01029Y00498D02*
X01069D01*
X01073Y00519D02*
X01076Y00523D01*
X01069Y00498D02*
X01081Y0051D01*
X01074Y00486D02*
X01086Y00497D01*
X01089Y0048D02*
X01107D01*
X01086Y00497D02*
X01128D01*
X01081Y0051D02*
X01133D01*
X01059Y00519D02*
X01073D01*
X01187Y0019D02*
X01189Y00191D01*
X01187Y0019D02*
Y00192D01*
X01189Y00191D02*
Y00191D01*
X01219Y00143D02*
Y00161D01*
X01194Y00163D02*
X01196D01*
X01206Y00153*
X01192Y00163D02*
X01194D01*
X01102Y00238D02*
Y00268D01*
X01946Y00716D02*
X01989Y00672D01*
X01687Y00539D02*
X017D01*
X01672Y00554D02*
X01687Y00539D01*
X01534Y00419D02*
X01565Y0045D01*
X01929Y00238D02*
X01944Y00252D01*
X01911Y00238D02*
X01929D01*
X01902Y00229D02*
X01911Y00238D01*
X01858Y00229D02*
X01902D01*
X01859Y00227D02*
Y00228D01*
X01976Y00247D02*
X01998D01*
X01941Y00212D02*
X01976Y00247D01*
X02052Y00178D02*
X02061Y00187D01*
X01811Y00288D02*
X01811Y00289D01*
Y00289*
X01811Y00288D02*
Y00324D01*
X01354Y00564D02*
X01412D01*
X01076Y00523D02*
X012D01*
X01128Y00497D02*
X01153Y00473D01*
X01108Y00472D02*
Y00479D01*
X01107Y0048D02*
X01108Y00479D01*
X01133Y0051D02*
X01165Y00478D01*
X00576Y00533D02*
X0064Y0047D01*
X01673Y00457D02*
X01678Y00452D01*
X01748Y00064D02*
X01798Y00113D01*
Y00153*
X01707Y0036D02*
Y00432D01*
X0174Y0037D02*
X01747Y00363D01*
Y00342D02*
Y00363D01*
X01801Y00468D02*
X01817D01*
X01779Y00416D02*
X01786Y00409D01*
X01664Y00406D02*
X01673D01*
X01584Y002D02*
X01584D01*
X01691Y00076D02*
X01696Y00081D01*
X01507Y001D02*
X01531Y00076D01*
X0145Y00172D02*
X01485Y00137D01*
X0112Y00198D02*
Y00237D01*
X01081Y00192D02*
X01095Y00178D01*
X01106*
X01206Y00086D02*
Y00153D01*
X01187Y00193D02*
X01187Y00192D01*
X01223Y00179D02*
X01226D01*
X01222Y0018D02*
X01223Y00179D01*
X01226D02*
X01242Y00163D01*
X01291D02*
X01303Y00174D01*
X01242Y00163D02*
X01291D01*
X01258Y00179D02*
X01261D01*
X01218Y00219D02*
X01258Y00179D01*
X01062Y00401D02*
X01065Y00403D01*
X01062Y004D02*
Y00401D01*
X01065Y00403D02*
X01084D01*
X011Y00345D02*
X01105D01*
X01094Y00352D02*
X011Y00345D01*
X01228Y00301D02*
X01228Y00301D01*
X01204Y00325D02*
X01228Y00301D01*
Y00337D02*
Y00372D01*
X01167Y0038D02*
D01*
X01153Y00394D02*
X01167Y0038D01*
X01153Y00394D02*
Y00473D01*
X01022Y00569D02*
Y00596D01*
X01006Y00612D02*
X01022Y00596D01*
X01082Y00568D02*
Y00578D01*
X01068Y00627D02*
Y00628D01*
Y00627D02*
X0108Y00615D01*
X00973Y00598D02*
X01002Y00569D01*
X00957Y00627D02*
Y00631D01*
X00952Y00621D02*
X00957Y00627D01*
Y0063D02*
Y00631D01*
X00954Y00627D02*
X00957Y0063D01*
X00952Y00597D02*
Y00621D01*
X00902Y00662D02*
X00976D01*
X00907Y00674D02*
X01001D01*
X01007Y00668*
X00894Y00653D02*
X00897Y00649D01*
X00892Y00672D02*
X00902Y00662D01*
X00897Y00684D02*
X00907Y00674D01*
X00954Y00627D02*
D01*
X00884Y00653D02*
X00894D01*
X0089Y00436D02*
Y00437D01*
Y00436D02*
X00893Y00433D01*
X01289Y00372D02*
Y00373D01*
X01278Y00372D02*
X01289D01*
X01442Y00304D02*
Y00305D01*
X01441Y00303D02*
X01442Y00304D01*
X01467Y00324D02*
X01497Y00295D01*
X01537Y00355D02*
X01557Y00375D01*
X01466Y00419D02*
X01534D01*
X00981Y00767D02*
X01Y00748D01*
X00597Y00767D02*
X00981D01*
X00728Y00658D02*
X00858D01*
X00723Y00653D02*
X00728Y00658D01*
X00858D02*
X00863Y00663D01*
X00676Y00479D02*
X00683D01*
X00659Y0052D02*
X00681Y00543D01*
X00659Y0027D02*
Y0052D01*
Y0027D02*
X00676Y00252D01*
X0064Y00465D02*
Y0047D01*
X00609Y00527D02*
X00622D01*
X00653Y00557*
X01285Y00451D02*
X01286Y0045D01*
X02071Y00368D02*
Y00439D01*
X02061Y00358D02*
X02071Y00368D01*
X02147Y00416D02*
X02157Y00406D01*
X02169Y00469D02*
X02189Y0045D01*
X02169Y00469D02*
X02169Y0047D01*
X02135D02*
X02169D01*
X02124D02*
X02135D01*
X02106Y00452D02*
X02124Y0047D01*
X02066Y00346D02*
X02075Y00355D01*
X02042Y00346D02*
X02066D01*
X02038Y0035D02*
X02042Y00346D01*
X02012Y0035D02*
X02038D01*
X02075Y00355D02*
X02139D01*
X02047Y00358D02*
X02061D01*
X02012Y0033D02*
X02025Y00318D01*
Y00302D02*
Y00318D01*
X01998Y00247D02*
X02054Y00302D01*
X01983Y00497D02*
X02008D01*
X01464Y00434D02*
X01532D01*
X01496Y00474D02*
X01549D01*
X01736Y00571D02*
X01743Y00564D01*
X01774Y00674D02*
X01783D01*
X01797Y00687*
X01964Y00513D02*
X01982Y00532D01*
Y00534*
X01776Y00548D02*
Y00552D01*
X01824Y00577D02*
Y00639D01*
Y00577D02*
X01835Y00566D01*
X01889Y00554D02*
X01913D01*
X01869Y00574D02*
X01889Y00554D01*
X01846Y00566D02*
X01885Y00527D01*
X01835Y00566D02*
X01846D01*
X01934Y00549D02*
Y0058D01*
X01923Y00591D02*
X01934Y0058D01*
X01922Y00592D02*
X01923Y00591D01*
X01927*
X01917D02*
X01923D01*
X02157Y00395D02*
Y00406D01*
X02146Y00383D02*
X02157Y00395D01*
X02106Y00426D02*
Y00452D01*
X02096Y00416D02*
X02106Y00426D01*
X02042Y0041D02*
X02052Y00419D01*
X02013Y0041D02*
X02042D01*
X02052Y00377D02*
Y00419D01*
Y00377D02*
X02054Y00375D01*
X02013Y0041D02*
D01*
X02012Y00409D02*
X02013Y0041D01*
X01944Y00497D02*
Y00522D01*
X01967Y00544*
X01924Y00497D02*
Y0052D01*
X01965Y0056*
Y00572*
X02009Y00633D02*
X0201Y00634D01*
X01922Y00633D02*
X02009D01*
X01743Y00514D02*
Y00564D01*
X01797Y00687D02*
Y00737D01*
X01796Y00737D02*
Y00751D01*
Y00737D02*
X01797Y00737D01*
X01698Y00675D02*
X01739Y00716D01*
X01746*
X01789Y00527D02*
X0182Y00497D01*
X01995Y00767D02*
X02046Y00716D01*
X01796Y00751D02*
X01811Y00767D01*
X01995*
X02092Y00686D02*
X02094Y00687D01*
X01477Y00754D02*
X01489Y00743D01*
Y00704D02*
Y00743D01*
X01536Y00512D02*
X01544D01*
X01518Y00495D02*
X01536Y00512D01*
X0132Y00621D02*
X01335Y00636D01*
X01345Y00652D02*
X01371D01*
X01335Y00642D02*
X01345Y00652D01*
X01335Y00636D02*
Y00642D01*
X01361Y00677D02*
X01395Y00711D01*
X01376Y00665D02*
X01389Y00652D01*
X01254Y0064D02*
X01273Y00621D01*
X01278Y00634D02*
X01308D01*
X01259Y00652D02*
X01278Y00634D01*
X01156Y00767D02*
X01482D01*
X01273Y00621D02*
X0132D01*
X01102Y00325D02*
X01204D01*
X01098Y00322D02*
X01102Y00325D01*
X01113Y00307D02*
X01113D01*
X0111Y00304D02*
X01113Y00307D01*
X0111Y00304D02*
X01118Y00296D01*
X01107Y00281D02*
X01152D01*
X01118Y00296D02*
X01182D01*
X01023Y00392D02*
Y0047D01*
X01066Y00422D02*
X01094Y00394D01*
Y00352D02*
Y00394D01*
X01066Y00422D02*
Y00456D01*
X01057Y00474D02*
Y00483D01*
X01084Y00448D02*
Y00448D01*
Y00448D02*
X01112Y0042D01*
X01057Y00483D02*
X0106Y00485D01*
X01059Y00486D02*
X0106Y00485D01*
X02213Y00311D02*
X02215Y0031D01*
X02186Y00085D02*
Y0017D01*
X02176Y0018D02*
X02186Y0017D01*
X01673Y00456D02*
X01673Y00457D01*
X01786Y00409D02*
X01817D01*
X02146Y00116D02*
Y00187D01*
Y00213*
X02061Y00187D02*
X02146D01*
X02016Y00214D02*
X02035D01*
X02016D02*
D01*
X02006Y00204D02*
X02016Y00214D01*
X02035Y0037D02*
X02047Y00358D01*
X02012Y0037D02*
X02035D01*
X0149Y0048D02*
X01496Y00474D01*
X0139Y00356D02*
X01404D01*
X01277Y00374D02*
X01278Y00372D01*
X01327Y00172D02*
X0145D01*
X0145*
X0159Y00135D02*
X01602Y00148D01*
Y00209*
X01615Y00195D02*
X01648Y00228D01*
X01615Y00142D02*
Y00195D01*
X01304Y00155D02*
X01391D01*
X0143Y00116*
X01303Y00174D02*
Y00197D01*
X01292Y00144D02*
X01304Y00155D01*
X01607Y00135D02*
X01615Y00142D01*
X01648Y00228D02*
Y00237D01*
X01193Y00077D02*
Y00136D01*
X0114Y00203D02*
Y00237D01*
X01292Y00101D02*
Y00144D01*
X01218Y00219D02*
Y00237D01*
X00978Y00173D02*
X00984Y00167D01*
X00948Y00173D02*
X00978D01*
X00881Y00174D02*
X00897D01*
X00881Y00172D02*
Y00174D01*
X00881Y00174D02*
X00881Y00174D01*
X00863Y00166D02*
X00874Y00155D01*
X00875D02*
X009Y00129D01*
X00874Y00155D02*
X00875D01*
X00897Y00174D02*
X00904Y00182D01*
X00933*
X0095Y00199*
X00978*
X009Y00083D02*
Y00129D01*
X00919Y00201D02*
X00925D01*
X00922Y00165D02*
X00931D01*
X01009Y00192D02*
X01022D01*
X01002Y00199D02*
X01009Y00192D01*
X00978Y00199D02*
X01002D01*
X00984Y00167D02*
X01028D01*
X00941Y00154D02*
X01083D01*
X01022Y00192D02*
Y00237D01*
X01371Y00652D02*
X01384Y00639D01*
X01395Y00754D02*
X01477D01*
X01395Y00711D02*
Y00754D01*
X01305Y00589D02*
X01351Y00635D01*
X01308Y00634D02*
X01313Y00638D01*
X01357Y0055D02*
X01409D01*
X01286Y00589D02*
X01305D01*
X01112Y00379D02*
X01117Y00375D01*
X00292Y00587D02*
Y00614D01*
X01141Y00121D02*
Y00159D01*
X0159Y00222D02*
X01602Y00209D01*
X01905Y00519D02*
X01934Y00549D01*
X01905Y00497D02*
Y00519D01*
X01776Y00552D02*
X01789Y00566D01*
X01392Y00613D02*
X01398D01*
X01223Y00526D02*
X01286Y00589D01*
X01218Y0054D02*
Y00569D01*
X012Y00523D02*
X01218Y0054D01*
X01235Y0052D02*
X01291Y00576D01*
X00876Y00672D02*
X00892D01*
X00868Y00663D02*
X00876Y00672D01*
X00863Y00663D02*
X00868D01*
X00802Y00676D02*
X00863D01*
X00871Y00684D02*
X00897D01*
X00863Y00676D02*
X00871Y00684D01*
X00802Y0063D02*
X0086Y00572D01*
X00861*
X01677Y0036D02*
X01707D01*
X01277Y00295D02*
D01*
X01235Y00445D02*
Y0052D01*
X02153Y00324D02*
X02164Y00335D01*
X02189Y00317D02*
Y0045D01*
X02173Y00301D02*
X02189Y00317D01*
X01974Y00552D02*
X01996D01*
X01967Y00544D02*
X01974Y00552D01*
X01924Y00497D02*
X01944D01*
X01869Y00574D02*
X01869Y00575D01*
X0185Y00534D02*
Y00538D01*
X0182Y00497D02*
X01846D01*
X01789Y00566D02*
Y00583D01*
Y00639D02*
X01824D01*
X01811Y00324D02*
X01817Y0033D01*
X01828Y00306D02*
X01842D01*
X01846Y00302*
X01905Y00259D02*
Y00302D01*
X02117Y00301D02*
X02173D01*
X02116Y00302D02*
X02117Y00301D01*
X02054Y00302D02*
X02116D01*
X02146Y00213D02*
X02151Y00218D01*
X02153Y00221*
Y00277*
X02096Y00222D02*
X021Y00218D01*
X02096Y00222D02*
Y00279D01*
X01869Y00575D02*
Y00592D01*
X01964Y00497D02*
Y00513D01*
X01865Y00497D02*
Y00518D01*
X0185Y00534D02*
X01865Y00518D01*
X01885Y00497D02*
Y00527D01*
X01673Y00356D02*
X01677Y0036D01*
X01597Y00231D02*
Y00237D01*
X02012Y00468D02*
X02041D01*
X02012Y00409D02*
Y00429D01*
X02153Y00324D02*
Y0034D01*
X02093Y0033D02*
X02096Y00327D01*
X02012Y0033D02*
X02093D01*
X02166Y00065D02*
X02186Y00085D01*
X01809Y00065D02*
X02166D01*
X01792Y00081D02*
X01809Y00065D01*
X01403Y00249D02*
Y0027D01*
X01235Y00445D02*
X01248Y00433D01*
X01861Y00583D02*
X01869Y00592D01*
X01944Y00252D02*
Y00302D01*
X01248Y00433D02*
X01264D01*
X01403Y00197D02*
X01403Y00198D01*
X0135Y00197D02*
X01403D01*
X01093Y00144D02*
X01098D01*
X01083Y00154D02*
X01093Y00144D01*
X01046Y00714D02*
Y00716D01*
X00798Y0068D02*
X00802Y00676D01*
X01017Y00687D02*
X01039Y00665D01*
X01013Y00687D02*
X01017D01*
X00993Y00707D02*
X01013Y00687D01*
X00952Y00597D02*
X00965Y00584D01*
Y00558D02*
Y00584D01*
X01024Y00486D02*
X01059D01*
X00984Y00526D02*
X01024Y00486D01*
X00983Y0051D02*
X01023Y0047D01*
X00989Y00539D02*
X01029Y00498D01*
X01112Y00379D02*
Y0042D01*
X00957Y00539D02*
X00989D01*
X00954Y0051D02*
X00983D01*
X00945Y00551D02*
X00957Y00539D01*
X00945Y00551D02*
Y00587D01*
X00921Y00611D02*
X00945Y00587D01*
X01199Y00237D02*
Y00279D01*
X01182Y00296D02*
X01199Y00279D01*
X01152Y00281D02*
X01159Y00274D01*
Y00237D02*
Y00274D01*
X0106Y00172D02*
X01061Y00172D01*
X0106Y00172D02*
X01062D01*
X01041Y0018D02*
Y00237D01*
X01028Y00167D02*
X01041Y0018D01*
X01081Y00192D02*
Y00237D01*
X00889Y00193D02*
Y00207D01*
X00931Y00165D02*
X00941Y00154D01*
X00954Y0051D02*
X00956Y00511D01*
X00968*
X00944D02*
X00956D01*
X011Y00237D02*
X01102Y00238D01*
X01219Y00143D02*
X01246Y00116D01*
X00984Y00077D02*
X01193D01*
X01062Y00172D02*
X01063Y00171D01*
X01061Y00172D02*
Y00237D01*
X01246Y00116D02*
Y00134D01*
X01206Y00086D02*
X01217Y00076D01*
X01268*
X01292Y00101*
X01179Y00211D02*
Y00237D01*
X00728Y00201D02*
Y00214D01*
X0143Y00116D02*
X01446D01*
X01277Y00354D02*
X01277Y00353D01*
X01146Y00716D02*
Y00757D01*
X01156Y00767*
X00946Y00116D02*
X00984Y00077D01*
X00696Y00079D02*
X00712Y00064D01*
X00696Y00079D02*
Y00169D01*
X00728Y00201*
X00771Y0031D02*
X00784D01*
X0071Y00313D02*
X00727D01*
X00681Y00543D02*
X00725D01*
X00756Y00574*
X00831Y0031D02*
Y0032D01*
X00884Y00374*
X00944*
X00867Y00414D02*
X00868Y00413D01*
X00944*
X00884Y00574D02*
X00921Y00611D01*
X00884Y00563D02*
Y00574D01*
X00803D02*
X00803D01*
X00723Y00571D02*
Y00653D01*
X00891Y00466D02*
X00904Y00452D01*
X00944*
X00909Y00472D02*
X00944D01*
X01646Y00116D02*
Y0019D01*
X0112Y00569D02*
X01122Y00572D01*
X0108Y00615D02*
X01081D01*
Y00569D02*
Y00615D01*
Y00569D02*
X01082Y00568D01*
X01061Y00569D02*
Y00602D01*
X01039Y00661D02*
Y00665D01*
X00993Y00707D02*
Y00729D01*
X01Y00748D02*
X01006D01*
X00968Y00754D02*
X00993Y00729D01*
X00546Y00716D02*
X00597Y00767D01*
X00884Y00754D02*
X00968D01*
X00846Y00716D02*
X00884Y00754D01*
X00709Y00557D02*
X00723Y00571D01*
X00653Y00557D02*
X00709D01*
X00646Y00715D02*
Y00716D01*
X00893Y00433D02*
X00944D01*
X00454Y00229D02*
X00469Y00243D01*
X00582*
X00802Y0063D02*
Y00633D01*
X00755Y00622D02*
X00803Y00574D01*
X00755Y00622D02*
Y00633D01*
G54D64*
X00307Y00439D02*
Y00441D01*
Y00439D02*
X00332Y00414D01*
X00703Y00366D02*
Y00375D01*
X00696Y00382D02*
Y00466D01*
Y00382D02*
X00703Y00375D01*
X005Y00516D02*
X00501Y00516D01*
X00471Y00516D02*
X005D01*
X00836Y0064D02*
X00866Y00611D01*
X00835Y0064D02*
X00836D01*
X0048Y0056D02*
Y00586D01*
D01*
X00502Y00607D01*
X00588Y00496D02*
X00603Y00481D01*
X00454Y005D02*
X00471Y00516D01*
X00299Y00543D02*
X00325Y00517D01*
X01141Y00121D02*
X01146Y00116D01*
X00893Y00393D02*
X00943D01*
X00218Y0065D02*
X00256D01*
X00292Y00614*
X00545Y00657D02*
X00566Y00636D01*
X00401Y00657D02*
X00545D01*
X0039Y00647D02*
X00401Y00657D01*
X00747Y00472D02*
X00759D01*
X00943Y00393D02*
X00944Y00393D01*
X00246Y00116D02*
X00296Y00066D01*
X00577*
X00594Y00083*
Y0015*
X00578Y00167D02*
X00594Y0015D01*
X00578Y00167D02*
Y00187D01*
X00454Y00229D02*
X00546Y00137D01*
Y00116D02*
Y00137D01*
X00284Y00225D02*
X00346Y00164D01*
Y00116D02*
Y00164D01*
Y00116D02*
X00446D01*
X00338Y00279D02*
Y00338D01*
X00284Y00225D02*
X00338Y00279D01*
X00255Y00225D02*
X00284D01*
X00171Y00141D02*
X00255Y00225D01*
X00454Y00457D02*
Y005D01*
X00502Y00607D02*
X00503Y00609D01*
X00445Y00607D02*
X00502D01*
X0039D02*
Y00647D01*
X00566Y00609D02*
Y00636D01*
Y00609D02*
X00623D01*
X00338Y00338D02*
X00364Y00363D01*
Y00457*
X00711Y00508D02*
X00747Y00472D01*
X00492Y00399D02*
X00514D01*
X0039Y00297D02*
X00492Y00399D01*
X00603Y00406D02*
Y00481D01*
X00489Y00292D02*
X00603Y00406D01*
X00235Y00268D02*
X00257D01*
X00199Y00304D02*
X00235Y00268D01*
X00199Y00304D02*
Y00506D01*
X00235Y00543*
X00299*
X00332Y00391D02*
Y00414D01*
G54D65*
X00246Y00116D03*
Y00716D03*
G54D66*
X00346Y00116D03*
X00446D03*
X00546D03*
X00646D03*
X00746D03*
X00846D03*
X00946D03*
X01046D03*
X01146D03*
X01246D03*
X01346D03*
X01446D03*
X01546D03*
X01646D03*
X01746D03*
X01846D03*
X01946D03*
X02046D03*
X02146D03*
X00346Y00716D03*
X00446D03*
X00546D03*
X00646D03*
X00746D03*
X00846D03*
X00946D03*
X01046D03*
X01146D03*
X01246D03*
X01346D03*
X01446D03*
X01546D03*
X01646D03*
X01746D03*
X01846D03*
X01946D03*
X02046D03*
X02146D03*
G54D67*
X00155Y0058D03*
Y00251D03*
G54D68*
X00273Y00328D03*
Y00503D03*
G54D69*
X01879Y00153D03*
X01231Y00399D03*
X01778Y00383D03*
X01779Y00413D03*
X01621Y00537D03*
X01603Y005D03*
X01557Y00485D03*
X00911Y00537D03*
X00975Y00259D03*
X01363Y00486D03*
X01315Y00452D03*
X01429Y00379D03*
X01348Y00298D03*
X01323Y00298D03*
X0133Y00332D03*
X01228Y00372D03*
X01342Y00369D03*
X01158Y00628D03*
X012Y00622D03*
X01228Y00611D03*
X01468Y00209D03*
X01758Y00254D03*
X01712Y00262D03*
X00866Y00234D03*
X00363Y00526D03*
X02159Y00595D03*
X01187Y00189D03*
X01134Y00183D03*
X01229Y00293D03*
X01421Y00306D03*
X01522Y00659D03*
X01538Y00639D03*
X0157Y00656D03*
X01621Y00658D03*
X01557Y0061D03*
X01524Y00542D03*
X01483Y00607D03*
X01475Y00559D03*
X01424Y0048D03*
X01433Y00434D03*
X01558Y00526D03*
X01684Y00576D03*
X01494Y0054D03*
X01593Y00471D03*
X01593Y00378D03*
X0164Y00431D03*
X01741Y00636D03*
X01494Y00686D03*
X00758Y00362D03*
X0151Y00167D03*
X0154Y00257D03*
X0149Y00137D03*
X01535Y00179D03*
X01561Y00184D03*
X01556Y00211D03*
X01567Y00267D03*
X01635Y00309D03*
X01566Y00298D03*
Y00332D03*
X01639Y00283D03*
X01729Y00438D03*
X01704Y0045D03*
X01765Y0044D03*
X0179Y00479D03*
X01772Y0051D03*
X01637Y00383D03*
X02025Y00537D03*
X02054Y00496D03*
X02099Y00541D03*
X01865Y00228D03*
X01883Y00195D03*
X01904Y00259D03*
X01877Y00262D03*
X02024Y00265D03*
X0159Y00093D03*
X01696Y00162D03*
X01739Y00576D03*
X01059Y00519D03*
X01194Y00163D03*
X01811Y00289D03*
X01108Y00472D03*
X01798Y00153D03*
X01584Y002D03*
X01106Y00178D03*
X01261Y00179D03*
X01062Y004D03*
X01442Y00305D03*
X00676Y00479D03*
X0064Y00465D03*
X02071Y00439D03*
X02135Y0047D03*
X02163Y00361D03*
X01774Y00674D03*
X01982Y00534D03*
X01776Y00548D03*
X02052Y00419D03*
X01913Y00554D03*
X01557Y00375D03*
X01402Y00675D03*
X01351Y00635D03*
X01113Y00307D03*
X01057Y00474D03*
X01084Y00448D03*
X02035Y00214D03*
X02061Y00163D03*
X02054Y00375D03*
X00881Y00172D03*
X00948Y00173D03*
X00922Y00165D03*
X00978Y00199D03*
X01313Y00638D03*
X01117Y00375D03*
X02176Y0018D03*
X02094Y00687D03*
X02068Y00543D03*
X0185Y00538D03*
X01828Y00306D03*
X02146Y00383D03*
X01792Y00081D03*
X01696D03*
X0106Y00172D03*
X00728Y00214D03*
X00891Y00466D03*
G54D70*
X01042Y00621D03*
X00883Y0053D03*
X0109Y00646D03*
X01118Y00638D03*
X01002Y00631D03*
X00974Y00607D03*
X00955Y00238D03*
X00905Y00238D03*
X0063Y00185D03*
X00307Y00441D03*
X01583Y00431D03*
X00501Y00516D03*
X00886Y00495D03*
X00804Y00472D03*
X01602Y00299D03*
X01226Y00179D03*
X01105Y00345D03*
X01068Y00628D03*
X00957Y00631D03*
X0089Y00437D03*
X00798Y0068D03*
X00835Y0064D03*
X0048Y0056D03*
X00619Y00558D03*
X00609Y00527D03*
X00588Y00496D03*
X02133Y005D03*
X02127Y00546D03*
X02206Y00578D03*
X02213Y00237D03*
X02213Y00381D03*
X02025Y00302D03*
X02008Y00497D03*
X02172Y00666D03*
X02173Y00633D03*
X02213Y0041D03*
X02215Y00347D03*
X02215Y00137D03*
X02212Y00202D03*
Y00274D03*
X02207Y00757D03*
Y00726D03*
Y00688D03*
Y00653D03*
X02207Y00613D03*
X02212Y00478D03*
X02213Y00444D03*
X02215Y00072D03*
Y00103D03*
X02214Y00169D03*
X02215Y0031D03*
X00919Y00201D03*
X00325Y00517D03*
X00884Y00653D03*
X00861Y00572D03*
X01007Y00668D03*
X00965Y00558D03*
X01098Y00144D03*
X00889Y00193D03*
X009Y00083D03*
X0076Y00407D03*
X00893Y00393D03*
X01006Y00748D03*
X01039Y00661D03*
X00218Y0065D03*
X00292Y00614D03*
X00759Y00472D03*
X00578Y00187D03*
X0039Y00297D03*
X00489Y00292D03*
X00514Y00399D03*
X00171Y00141D03*
X00338Y00338D03*
X00257Y00268D03*
X00332Y00391D03*
G54D71*
X0159Y00135D03*
G54D72*
X01872Y004D03*
Y00356D03*
X01915Y00356D03*
X01958D03*
X01915Y00399D03*
X01958D03*
X01871Y00443D03*
X01915D03*
X01958D03*
G54D73*
X01002Y00237D03*
X01022D03*
X01041D03*
X01061D03*
X01081D03*
X011D03*
X0112D03*
X0114D03*
X01159D03*
X01179D03*
X01199D03*
X01218D03*
Y00569D03*
X01199D03*
X01179D03*
X01159D03*
X0114D03*
X0112D03*
X011D03*
X01081D03*
X01061D03*
X01041D03*
X01022D03*
X01002D03*
G54D74*
X01277Y00295D03*
Y00315D03*
Y00334D03*
Y00354D03*
Y00374D03*
Y00393D03*
Y00413D03*
Y00433D03*
Y00452D03*
Y00472D03*
Y00492D03*
Y00511D03*
X00944D03*
Y00492D03*
Y00472D03*
Y00452D03*
Y00433D03*
Y00413D03*
Y00393D03*
Y00374D03*
Y00354D03*
Y00334D03*
Y00315D03*
Y00295D03*
G54D75*
X01673Y00506D03*
Y00456D03*
Y00406D03*
Y00356D03*
X0139Y00506D03*
Y00456D03*
Y00406D03*
Y00356D03*
G54D76*
X00756Y00574D03*
X00803D03*
X01303Y00197D03*
X0135D03*
X00755Y00633D03*
X00802D03*
X00784Y0031D03*
X00831D03*
X00781Y00507D03*
X00828D03*
G54D77*
X02153Y00277D03*
Y00324D03*
X02096Y00327D03*
Y00279D03*
G54D78*
X01915Y00399D03*
G54D79*
X01983Y00497D03*
X01964D03*
X01944D03*
X01924D03*
X01905D03*
X01885D03*
X01865D03*
X01846D03*
Y00302D03*
X01865D03*
X01885D03*
X01905D03*
X01924D03*
X01944D03*
X01964D03*
X01983D03*
G54D80*
X01817Y00468D03*
Y00449D03*
Y00429D03*
Y00409D03*
Y0039D03*
Y0037D03*
Y0035D03*
Y0033D03*
X02012D03*
Y0035D03*
Y0037D03*
Y0039D03*
Y00409D03*
Y00429D03*
Y00449D03*
Y00468D03*
G54D81*
X00503Y00609D03*
X00566D03*
X00686D03*
X00623D03*
G54D82*
X00454Y00229D03*
G54D83*
X00545Y00457D03*
X00454D03*
X00364D03*
G54D84*
X0081Y00438D03*
Y00381D03*
G54D85*
X02352Y00623D03*
G54D86*
X02343Y00535D03*
G54D87*
X024Y00269D03*
Y00355D03*
G54D88*
X024Y00454D03*
Y0017D03*
G54D89*
X02372Y00084D03*
G54D90*
X02451Y00542D03*
G54D91*
X02348Y0022D03*
Y00405D03*
G54D92*
X02451Y00312D03*
G54D93*
X02451Y00127D03*
M02*